<?xml version="1.0" standalone="no"?>
<!DOCTYPE svg PUBLIC "-//W3C//DTD SVG 1.1//EN" "http://www.w3.org/Graphics/SVG/1.1/DTD/svg11.dtd" >
<svg xmlns="http://www.w3.org/2000/svg" xmlns:xlink="http://www.w3.org/1999/xlink" version="1.1">
<metadata>
Created by FontForge 20170731 at Mon Dec 28 17:28:30 2020
 By Aleksey,,,
Dmitry Rastvortsev exclusively for Pari-Match N.V. parimatch.com
</metadata>
<defs>
<font id="Pari-Match-Bold" horiz-adv-x="942" >
  <font-face 
    font-family="Pari-Match Bold"
    font-weight="800"
    font-style="italic"
    font-stretch="normal"
    units-per-em="2048"
    panose-1="0 0 9 0 0 0 0 0 0 0"
    ascent="1638"
    descent="-410"
    x-height="1126"
    cap-height="1434"
    bbox="-754 -317 5001 1837"
    underline-thickness="102"
    underline-position="-307"
    slope="-16"
    unicode-range="U+000D-2265"
  />
<missing-glyph horiz-adv-x="286" 
 />
    <glyph glyph-name="uni04070407.liga" unicode="&#x407;&#x407;" horiz-adv-x="1064" 
d="M170 1505l72 246h268l-70 -246h-270zM502 1505l71 246h269l-70 -246h-270zM834 1505l71 246h269l-70 -246h-270zM1165 1505l72 246h268l-69 -246h-271zM-47 0l409 1434h308l-410 -1434h-307zM485 0l410 1434h307l-409 -1434h-308z" />
    <glyph glyph-name="uni04570457.liga" unicode="&#x457;&#x457;" horiz-adv-x="952" 
d="M29 1198l71 246h269l-70 -246h-270zM360 1198l72 246h268l-69 -246h-271zM686 1198l72 246h268l-70 -246h-270zM1018 1198l72 246h268l-70 -246h-270zM-57 0l321 1126h297l-321 -1126h-297zM393 0l322 1126h297l-322 -1126h-297z" />
    <glyph glyph-name=".notdef" horiz-adv-x="286" 
 />
    <glyph glyph-name=".null" horiz-adv-x="0" 
 />
    <glyph glyph-name="nonmarkingreturn" horiz-adv-x="682" 
 />
    <glyph glyph-name="CR" unicode="&#xd;" horiz-adv-x="286" 
 />
    <glyph glyph-name="space" unicode=" " horiz-adv-x="286" 
 />
    <glyph glyph-name="exclam" unicode="!" horiz-adv-x="593" 
d="M133 451l281 983h331l-376 -983h-236zM-16 0l98 342h317l-98 -342h-317z" />
    <glyph glyph-name="quotedbl" unicode="&#x22;" horiz-adv-x="901" 
d="M221 918l150 526h276l-149 -526h-277zM610 918l150 526h276l-149 -526h-277z" />
    <glyph glyph-name="numbersign" unicode="#" 
d="M4 0l82 287h-113l74 258h113l98 344h-113l74 258h113l82 287h245l-81 -287h122l82 287h246l-82 -287h113l-74 -258h-113l-98 -344h113l-74 -258h-113l-82 -287h-245l82 287h-123l-82 -287h-246zM406 545h122l99 344h-123z" />
    <glyph glyph-name="dollar" unicode="$" horiz-adv-x="901" 
d="M193 -143l38 133q-149 7 -204 106.5t-13 245.5l52 184h292l-61 -221q-8 -27 1 -39t38 -12h104q24 0 37 12.5t21 42.5l20 70q26 90 -18 143l-197 238q-121 151 -78 299l19 67q50 174 135 246t227 72h12l37 133h172l-36 -133q76 -3 129.5 -32.5t78 -77t29 -110
t-17.5 -132.5l-52 -183h-301l62 217q15 56 -37 56h-76q-40 0 -57 -56l-19 -67q-18 -54 -15 -81t36 -67l192 -239q119 -151 72 -316l-14 -49q-49 -170 -135 -243.5t-228 -73.5h-35l-38 -133h-172z" />
    <glyph glyph-name="percent" unicode="%" horiz-adv-x="1159" 
d="M342 821q-91 0 -132 57.5t-15 149.5l65 227q28 96 83 142.5t144 46.5h97q92 0 133.5 -57.5t15.5 -149.5l-65 -227q-55 -189 -226 -189h-100zM-63 0l1179 1434h197l-1180 -1434h-196zM399 987h56q14 0 18 4t8 23l70 237q3 15 -1.5 21t-21.5 6h-53q-12 0 -18.5 -6
t-10.5 -23l-67 -237q-4 -15 0.5 -20t19.5 -5zM664 -10q-92 0 -133 57.5t-15 149.5l66 227q28 96 83 142t142 46h98q93 0 134.5 -57t15.5 -149l-66 -228q-28 -96 -83 -142t-144 -46h-98zM721 156h55q12 0 16.5 4t8.5 22l69 238q3 15 -1 20.5t-19 5.5h-53q-14 0 -20.5 -5.5
t-10.5 -22.5l-68 -238q-3 -14 1 -19t22 -5z" />
    <glyph glyph-name="ampersand" unicode="&#x26;" horiz-adv-x="915" 
d="M188 -10q-137 0 -199 103t-18 255l82 291q76 263 291 293l-47 260l70 242h684l-82 -287h-375l57 -338l70 127h270l-278 -496l73 -440h-280l-17 115q-110 -125 -243 -125h-58zM279 272h16q19 0 31.5 9t31.5 36l76 121l-41 232h-14q-17 0 -24 -7t-15 -30l-92 -326
q-6 -20 0 -27.5t31 -7.5z" />
    <glyph glyph-name="quotesingle" unicode="'" horiz-adv-x="512" 
d="M221 918l150 526h276l-149 -526h-277z" />
    <glyph glyph-name="parenleft" unicode="(" horiz-adv-x="614" 
d="M180 -317q-130 0 -185 82.5t-18 216.5l398 1384q40 141 115 206.5t198 65.5h154l-64 -225h-98q-27 0 -41.5 -15t-22.5 -46l-397 -1385q-8 -31 2 -45t41 -14h86l-63 -225h-105z" />
    <glyph glyph-name="parenright" unicode=")" horiz-adv-x="614" 
d="M-170 -317l64 225h98q27 0 41 15t22 46l398 1385q8 31 -2 45t-41 14h-86l63 225h105q130 0 184.5 -82.5t17.5 -216.5l-397 -1384q-40 -141 -115 -206.5t-198 -65.5h-154z" />
    <glyph glyph-name="asterisk" unicode="*" horiz-adv-x="620" 
d="M330 911l59 154l-139 -70l-43 142l155 41l-118 71l108 137l101 -96l26 144h164l-61 -152l141 70l43 -142l-158 -41l121 -69l-108 -135l-105 92l-24 -146h-162z" />
    <glyph glyph-name="plus" unicode="+" 
d="M260 266l70 246h-242l72 246h241l70 246h254l-70 -246h242l-72 -246h-241l-70 -246h-254z" />
    <glyph glyph-name="comma" unicode="," horiz-adv-x="471" 
d="M-111 -184l152 526h297l-219 -526h-230z" />
    <glyph glyph-name="hyphen" unicode="-" horiz-adv-x="655" 
d="M66 502l75 266h492l-76 -266h-491z" />
    <glyph glyph-name="period" unicode="." horiz-adv-x="522" 
d="M-57 0l98 342h317l-98 -342h-317z" />
    <glyph glyph-name="slash" unicode="/" horiz-adv-x="573" 
d="M-223 -317l844 1955h274l-844 -1955h-274z" />
    <glyph glyph-name="zero" unicode="0" 
d="M289 -10q-81 0 -139 28t-84.5 76t-32 112t17.5 136l223 784q49 171 135 244.5t228 73.5h147q81 0 139 -28t84.5 -76t32 -112t-17.5 -136l-223 -785q-49 -170 -135 -243.5t-228 -73.5h-147zM399 256h29q35 0 53 19.5t29 60.5l219 766q21 76 -55 76h-29q-35 0 -53 -19.5
t-29 -60.5l-219 -766q-21 -76 55 -76z" />
    <glyph glyph-name="one" unicode="1" horiz-adv-x="630" 
d="M66 0l329 1151h-172l80 283h469l-410 -1434h-296z" />
    <glyph glyph-name="two" unicode="2" horiz-adv-x="862" 
d="M-76 0l68 238q46 157 166 274l463 446q41 41 55 89l18 63q21 76 -55 76h-35q-35 0 -53 -19.5t-29 -60.5l-47 -164h-282l53 184q49 171 134.5 244.5t227.5 73.5h135q81 0 139 -28t84.5 -76t32 -112t-17.5 -136l-16 -62q-34 -118 -136 -217l-456 -444q-46 -46 -54 -78
l-2 -8h433l-80 -283h-746z" />
    <glyph glyph-name="three" unicode="3" horiz-adv-x="901" 
d="M266 -10q-81 0 -138.5 28t-84 76t-32 112t17.5 136l45 160h270l-51 -178q-21 -76 55 -76h45q35 0 53 19.5t29 60.5l49 174q11 39 -1.5 57.5t-51.5 18.5h-104l79 282h111q35 0 53 19.5t29 60.5l49 170q21 76 -55 76h-35q-35 0 -53 -19.5t-29 -60.5l-39 -141h-270l45 161
q49 171 134.5 244.5t227.5 73.5h123q160 0 220 -99.5t18 -252.5l-43 -162q-42 -152 -170 -213q97 -72 55 -217l-55 -193q-49 -170 -135 -243.5t-228 -73.5h-133z" />
    <glyph glyph-name="four" unicode="4" horiz-adv-x="905" 
d="M336 0l74 256h-449l70 248l665 930h324l-262 -918h135l-74 -260h-135l-74 -256h-274zM319 516h164l68 240l84 243h-10z" />
    <glyph glyph-name="five" unicode="5" horiz-adv-x="903" 
d="M268 -10q-81 0 -138.5 28t-84 76t-32 112t17.5 136l51 180h289l-58 -200q-21 -76 54 -76h28q35 0 53 19.5t29 60.5l103 354q21 76 -56 76h-18q-18 0 -30.5 -4.5t-23.5 -17.5t-17 -23t-19 -35h-283l244 758h672l-80 -283h-414l-72 -217q107 78 199 78h27q114 0 164 -83.5
t12 -215.5l-115 -406q-49 -171 -134.5 -244t-227.5 -73h-140z" />
    <glyph glyph-name="six" unicode="6" horiz-adv-x="917" 
d="M295 -10q-81 0 -139 28t-84.5 76t-32 112t17.5 136l224 784q49 171 134.5 244.5t227.5 73.5h129q81 0 139 -28t84.5 -76t32 -112t-17.5 -136l-25 -86h-266l26 92q11 39 -1.5 57.5t-51.5 18.5h-59q-35 0 -53 -19.5t-29 -60.5l-74 -256q86 77 176 77h54q114 0 162 -83
t10 -216l-88 -309q-49 -170 -135 -243.5t-228 -73.5h-133zM393 260h27q35 0 53 19.5t29 60.5l76 262q21 76 -56 76h-30q-35 0 -53 -19t-31 -61l-74 -262q-11 -39 2.5 -57.5t56.5 -18.5z" />
    <glyph glyph-name="seven" unicode="7" horiz-adv-x="821" 
d="M-51 0l690 1151h-426l80 283h731l-61 -226l-693 -1208h-321z" />
    <glyph glyph-name="eight" unicode="8" 
d="M268 -10q-161 0 -220.5 99.5t-16.5 252.5l45 160q28 100 67.5 148.5t106.5 74.5q-79 76 -41 207l55 194q50 172 135.5 245t227.5 73h127q81 0 138.5 -28t84 -76t32 -112t-17.5 -136l-45 -160q-27 -95 -63.5 -143.5t-96.5 -73.5q88 -82 48 -213l-56 -195
q-49 -171 -134.5 -244t-227.5 -73h-148zM543 842h32q35 0 53 19t31 61l54 188q21 76 -56 76h-32q-35 0 -53 -19.5t-29 -60.5l-54 -188q-21 -76 54 -76zM377 248h29q35 0 52.5 19t28.5 61l54 188q21 76 -54 76h-28q-35 0 -53 -19t-31 -61l-53 -188q-21 -76 55 -76z" />
    <glyph glyph-name="nine" unicode="9" horiz-adv-x="917" 
d="M236 -10q-81 0 -139 28t-84.5 76t-32 112t17.5 136l25 86h266l-27 -92q-11 -39 1.5 -57.5t51.5 -18.5h60q35 0 53 19.5t29 60.5l73 256q-87 -78 -176 -78h-53q-114 0 -162 83t-10 216l88 309q49 171 135 244.5t228 73.5h133q81 0 138.5 -28t84 -76t32 -112t-17.5 -136
l-223 -785q-49 -171 -134.5 -244t-227.5 -73h-129zM485 756h31q35 0 53 19t31 61l74 262q11 39 -3 57.5t-57 18.5h-26q-35 0 -53 -19.5t-29 -60.5l-76 -263q-21 -75 55 -75z" />
    <glyph glyph-name="colon" unicode=":" horiz-adv-x="471" 
d="M166 784l98 342h318l-99 -342h-317zM-57 0l98 342h317l-98 -342h-317z" />
    <glyph glyph-name="semicolon" unicode=";" horiz-adv-x="471" 
d="M166 784l98 342h318l-99 -342h-317zM-111 -184l152 526h297l-219 -526h-230z" />
    <glyph glyph-name="less" unicode="&#x3c;" 
d="M727 238l-614 282l65 234l778 282l-82 -284l-368 -131l295 -132z" />
    <glyph glyph-name="equal" unicode="=" 
d="M188 717l70 246h737l-69 -246h-738zM72 307l69 246h738l-70 -246h-737z" />
    <glyph glyph-name="greater" unicode="&#x3e;" 
d="M31 238l82 284l368 131l-295 131l74 252l614 -282l-65 -234z" />
    <glyph glyph-name="question" unicode="?" horiz-adv-x="888" 
d="M258 451l16 55q21 77 55.5 134t96.5 124l156 168q53 53 71 115l19 63q21 76 -56 76h-14q-35 0 -53 -19.5t-29 -60.5l-47 -164h-283l54 184q49 171 134.5 244.5t227.5 73.5h115q81 0 138.5 -28t84 -76t32 -112t-17.5 -136l-16 -62q-18 -61 -46.5 -105t-82.5 -102
l-176 -186q-2 -2 -14 -14.5t-15.5 -16.5t-13.5 -16t-15 -20.5t-13 -22.5t-14.5 -29t-12.5 -33l-13 -34h-268zM115 0l98 342h317l-98 -342h-317z" />
    <glyph glyph-name="at" unicode="@" horiz-adv-x="1372" 
d="M231 -174q-81 0 -138.5 28t-84 76t-32 112t17.5 136l223 785q49 170 135 243.5t228 73.5h557q81 0 138.5 -28t84 -76t32 -112t-17.5 -136l-157 -551q-49 -171 -135 -244.5t-226 -73.5h-190v84q-99 -92 -181 -92h-16q-109 0 -151 77.5t-9 193.5l13 45q14 46 35 83
t42.5 60.5t54.5 44.5t58 32t66 27l165 62q35 14 43 45l21 65q12 45 -37 45h-35q-21 0 -32 -11.5t-17 -37.5l-24 -84h-232l21 74q42 150 116.5 213.5t198.5 63.5h80q140 0 192 -87.5t15 -220.5l-158 -548h4q53 3 97.5 54t66.5 130l158 551q31 106 -0.5 162.5t-120.5 56.5
h-557q-118 0 -172 -184l-224 -785q-31 -106 0.5 -162.5t120.5 -56.5h482l-37 -133h-482zM575 270h56q38 0 51 47l49 177l-106 -45q-19 -8 -29.5 -19.5t-17.5 -34.5l-21 -78q-7 -23 -1.5 -35t19.5 -12z" />
    <glyph glyph-name="A" unicode="A" horiz-adv-x="948" 
d="M-109 0l553 1434h557l-258 -1434h-294l51 250h-228l-88 -250h-293zM371 528h184l125 623h-90z" />
    <glyph glyph-name="B" unicode="B" horiz-adv-x="985" 
d="M-37 0l410 1434h430q81 0 138.5 -28t84 -76t32 -112.5t-17.5 -136.5l-24 -84q-55 -196 -166 -276q76 -91 27 -254l-43 -150q-49 -170 -135 -243.5t-228 -73.5h-508zM508 854h135q24 0 36.5 13t20.5 42l54 189q15 55 -37 55h-123zM342 272h135q24 0 37 13.5t21 42.5
l55 196q15 56 -37 56h-123z" />
    <glyph glyph-name="C" unicode="C" horiz-adv-x="989" 
d="M279 -10q-81 0 -139 28t-84.5 76t-32 112t17.5 136l223 784q49 171 135 244.5t228 73.5h184q81 0 139 -28t84.5 -76t32 -112t-17.5 -136l-78 -277h-301l84 295q15 55 -37 55h-92q-45 0 -58 -55l-225 -791q-8 -27 1 -39t38 -12h90q24 0 36.5 13.5t20.5 42.5l78 272h301
l-82 -289q-49 -172 -132 -244.5t-224 -72.5h-190z" />
    <glyph glyph-name="D" unicode="D" horiz-adv-x="1024" 
d="M-47 0l409 1434h472q81 0 138.5 -28t84 -76t32 -112.5t-17.5 -136.5l-219 -764q-49 -170 -135 -243.5t-228 -73.5h-536zM342 287h154q24 0 36.5 13t20.5 42l213 750q15 55 -37 55h-141z" />
    <glyph glyph-name="E" unicode="E" horiz-adv-x="821" 
d="M-47 0l409 1434h617l-82 -287h-313l-82 -287h291l-82 -287h-291l-82 -286h313l-82 -287h-616z" />
    <glyph glyph-name="F" unicode="F" horiz-adv-x="790" 
d="M-47 0l409 1434h627l-82 -287h-319l-82 -287h256l-82 -287h-256l-164 -573h-307z" />
    <glyph glyph-name="G" unicode="G" horiz-adv-x="1021" 
d="M279 -10q-81 0 -139 28t-84.5 76t-32 112t17.5 136l223 784q49 171 135 244.5t228 73.5h184q81 0 139 -28t84.5 -76t32 -112t-17.5 -136l-56 -195h-301l62 213q15 55 -37 55h-92q-45 0 -58 -55l-231 -811q-15 -51 41 -51h112q24 0 36 13t20 42l51 178h-123l80 281h414
l-217 -762h-205l-4 90q-95 -100 -226 -100h-36z" />
    <glyph glyph-name="H" unicode="H" horiz-adv-x="1036" 
d="M-47 0l409 1434h308l-164 -574h196l164 574h308l-410 -1434h-307l164 573h-197l-164 -573h-307z" />
    <glyph glyph-name="I" unicode="I" horiz-adv-x="532" 
d="M-47 0l409 1434h308l-410 -1434h-307z" />
    <glyph glyph-name="J" unicode="J" horiz-adv-x="911" 
d="M217 -10q-76 0 -132.5 28t-85 76t-35.5 112t16 136l83 293h289l-82 -283q-21 -76 64 -76h18q35 0 53 19.5t29 60.5l307 1078h308l-322 -1127q-49 -171 -134.5 -244t-227.5 -73h-148z" />
    <glyph glyph-name="K" unicode="K" horiz-adv-x="983" 
d="M-47 0l409 1434h308l-164 -574h39l319 574h307l-401 -719l10 -715h-301v573h-55l-164 -573h-307z" />
    <glyph glyph-name="L" unicode="L" horiz-adv-x="790" 
d="M-47 0l409 1434h308l-328 -1147h330l-82 -287h-637z" />
    <glyph glyph-name="M" unicode="M" horiz-adv-x="1314" 
d="M-37 0l410 1434h293l43 -664l403 664h330l-410 -1434h-297l111 385l110 342h-10l-295 -489h-172l-16 489h-10l-82 -342l-111 -385h-297z" />
    <glyph glyph-name="N" unicode="N" horiz-adv-x="1064" 
d="M-37 0l410 1434h286l46 -697h10l80 328l104 369h293l-410 -1434h-286l-45 696h-11l-80 -327l-104 -369h-293z" />
    <glyph glyph-name="O" unicode="O" horiz-adv-x="1015" 
d="M279 -10q-81 0 -139 28t-84.5 76t-32 112t17.5 136l223 784q49 171 135 244.5t228 73.5h200q81 0 139 -28t84.5 -76t32 -112t-17.5 -136l-223 -785q-49 -170 -135 -243.5t-228 -73.5h-200zM381 268h100q24 0 37 13.5t21 42.5l225 786q15 55 -37 55h-102q-45 0 -58 -55
l-225 -791q-8 -27 1 -39t38 -12z" />
    <glyph glyph-name="P" unicode="P" horiz-adv-x="983" 
d="M-47 0l409 1434h451q81 0 139 -28t84.5 -76t32 -112.5t-17.5 -136.5l-66 -231q-50 -171 -136 -244.5t-228 -73.5h-209l-152 -532h-307zM489 805h134q24 0 36.5 13t20.5 42l68 238q15 55 -37 55h-121z" />
    <glyph glyph-name="Q" unicode="Q" horiz-adv-x="1015" 
d="M248 -205v197q-144 9 -196.5 107.5t-10.5 242.5l223 784q49 171 135 244.5t228 73.5h200q81 0 139 -28t84.5 -76t32 -112t-17.5 -136l-223 -785q-44 -154 -118.5 -228.5t-191.5 -86.5v-197h-284zM381 268h100q24 0 37 13.5t21 42.5l225 786q15 55 -37 55h-102
q-45 0 -58 -55l-225 -791q-8 -27 1 -39t38 -12z" />
    <glyph glyph-name="R" unicode="R" horiz-adv-x="980" 
d="M-47 0l409 1434h441q81 0 138.5 -28t84 -76t32 -112.5t-17.5 -136.5l-59 -207q-65 -230 -209 -290l8 -584h-301v557h-59l-160 -557h-307zM494 817h122q24 0 37 13t21 42l63 226q15 55 -37 55h-110z" />
    <glyph glyph-name="S" unicode="S" horiz-adv-x="866" 
d="M213 -10q-81 0 -139 28t-84.5 76t-32 112t17.5 136l52 184h292l-61 -221q-8 -27 1 -39t38 -12h104q24 0 37 12.5t21 42.5l20 70q26 90 -18 143l-197 238q-121 151 -78 299l19 67q50 174 135 246t227 72h166q81 0 139 -28t84.5 -76t32 -112t-17.5 -136l-51 -183h-302
l62 217q15 56 -37 56h-76q-40 0 -57 -56l-18 -67q-18 -54 -15.5 -81t35.5 -67l193 -239q118 -151 71 -316l-14 -49q-49 -170 -135 -243.5t-228 -73.5h-186z" />
    <glyph glyph-name="T" unicode="T" horiz-adv-x="880" 
d="M127 0l328 1147h-246l82 287h799l-82 -287h-246l-328 -1147h-307z" />
    <glyph glyph-name="U" unicode="U" horiz-adv-x="1036" 
d="M289 -10q-81 0 -139 28t-84.5 76t-32 112t17.5 136l311 1092h308l-312 -1090q-21 -76 54 -76h61q35 0 53 19t31 61l309 1086h308l-322 -1127q-49 -170 -135 -243.5t-228 -73.5h-200z" />
    <glyph glyph-name="V" unicode="V" horiz-adv-x="905" 
d="M45 0l221 1434h307l-116 -719l-101 -445h17l440 1164h326l-604 -1434h-490z" />
    <glyph glyph-name="W" unicode="W" horiz-adv-x="1331" 
d="M70 0l200 1434h297l-73 -514l-72 -367h8l313 719h222l-80 -719h8l147 381l209 500h312l-623 -1434h-326l62 594h-8l-271 -594h-325z" />
    <glyph glyph-name="X" unicode="X" horiz-adv-x="987" 
d="M-129 0l498 756l-76 678h295l28 -414h9l235 414h326l-463 -711l74 -723h-303l-25 418h-8l-246 -418h-344z" />
    <glyph glyph-name="Y" unicode="Y" horiz-adv-x="946" 
d="M162 0l141 492l-33 942h316l-15 -320l-26 -274h10l285 594h336l-566 -938l-141 -496h-307z" />
    <glyph glyph-name="Z" unicode="Z" horiz-adv-x="901" 
d="M-98 0l67 238l658 909h-381l82 287h729l-68 -238l-655 -909h418l-82 -287h-768z" />
    <glyph glyph-name="bracketleft" unicode="[" horiz-adv-x="614" 
d="M-106 -317l557 1955h368l-63 -225h-123l-430 -1505h123l-64 -225h-368z" />
    <glyph glyph-name="backslash" unicode="\" horiz-adv-x="573" 
d="M70 -317l270 1955h264l-270 -1955h-264z" />
    <glyph glyph-name="bracketright" unicode="]" horiz-adv-x="614" 
d="M-147 -317l63 225h123l430 1505h-123l64 225h368l-557 -1955h-368z" />
    <glyph glyph-name="asciicircum" unicode="^" 
d="M125 748l481 696h234l84 -696h-260l-35 331l-223 -331h-281z" />
    <glyph glyph-name="underscore" unicode="_" horiz-adv-x="696" 
d="M-250 -317l76 266h696l-76 -266h-696z" />
    <glyph glyph-name="grave" unicode="`" horiz-adv-x="860" 
d="M-190 1198l-166 246h293l118 -246h-245z" />
    <glyph glyph-name="a" unicode="a" horiz-adv-x="862" 
d="M166 -10q-125 0 -173.5 89t-10.5 222l14 51q19 66 48.5 114t72.5 80t79 50.5t95 40.5l190 72q38 14 49 51l23 76q6 27 -3 39t-38 12h-41q-24 0 -36.5 -13.5t-20.5 -42.5l-27 -96h-266l22 84q50 171 136.5 244.5t228.5 73.5h90q81 0 138.5 -28t83.5 -76t31.5 -112.5
t-17.5 -136.5l-224 -784h-219v96q-114 -106 -207 -106h-18zM287 242h65q43 0 56 55l57 201l-123 -52q-21 -8 -32.5 -21t-18.5 -40l-27 -88q-7 -26 0 -40.5t23 -14.5z" />
    <glyph glyph-name="b" unicode="b" 
d="M428 -10q-135 0 -201 112l-59 -102h-225l411 1444h297l-116 -412q102 105 192 105h12q86 0 136.5 -48t57 -126.5t-19.5 -178.5l-135 -477q-91 -317 -344 -317h-6zM369 260h57q24 0 36.5 13t20.5 42l142 496q15 55 -35 55h-62q-23 0 -36 -14t-21 -41l-143 -500
q-6 -27 3 -39t38 -12z" />
    <glyph glyph-name="c" unicode="c" horiz-adv-x="931" 
d="M268 -10q-81 0 -138.5 28t-84 76t-32 112t17.5 136l135 477q50 171 136 244.5t228 73.5h138q160 0 219 -100t16 -253l-41 -149h-297l49 176q15 55 -34 55h-62q-23 0 -36 -14t-21 -41l-144 -500q-6 -27 3 -39t38 -12h58q24 0 36.5 13t20.5 42l45 156h297l-47 -164
q-49 -171 -134.5 -244t-227.5 -73h-138z" />
    <glyph glyph-name="d" unicode="d" 
d="M221 -10q-135 0 -184 100t-6 252l135 477q94 318 346 318h6q103 0 164 -93l113 400h297l-412 -1444h-225v96q-52 -49 -111.5 -77.5t-110.5 -28.5h-12zM354 260h62q23 0 36 14t21 41l143 500q15 51 -41 51h-57q-24 0 -36.5 -13t-20.5 -42l-142 -496q-15 -55 35 -55z" />
    <glyph glyph-name="e" unicode="e" horiz-adv-x="899" 
d="M268 -10q-81 0 -138.5 28t-84 76t-32 112t17.5 136l135 477q50 171 136 244.5t228 73.5h105q160 0 219 -100t16 -253l-86 -307h-424l-49 -170q-15 -51 41 -51h45q24 0 36 13t20 42l20 70h283l-21 -74q-49 -171 -134.5 -244t-227.5 -73h-105zM422 690h141l35 125
q15 55 -37 55h-49q-42 0 -55 -55z" />
    <glyph glyph-name="f" unicode="f" horiz-adv-x="686" 
d="M4 0l244 856h-144l78 270h144l2 7q49 167 134 239t226 72h230l-70 -248h-164q-24 0 -36.5 -13t-20.5 -42l-4 -15h204l-77 -270h-205l-244 -856h-297z" />
    <glyph glyph-name="g" unicode="g" 
d="M180 -317q-81 0 -138.5 28t-84 76t-32 112t17.5 136l4 14h297l-13 -45q-8 -27 1 -39t38 -12h58q24 0 36.5 13t20.5 42l53 187q-47 -47 -97.5 -75t-92.5 -28h-12q-129 0 -174.5 100t-2.5 252l107 375q94 318 346 318h6q132 0 199 -113l59 102h225l-321 -1126
q-49 -170 -135 -243.5t-228 -73.5h-137zM385 362h61q42 0 56 56l114 397q15 51 -41 51h-57q-24 0 -36.5 -13t-20.5 -42l-113 -393q-15 -56 37 -56z" />
    <glyph glyph-name="h" unicode="h" 
d="M-57 0l411 1444h297l-116 -412q102 105 192 105h12q86 0 136.5 -48t57 -126.5t-19.5 -178.5l-223 -784h-297l232 811q15 55 -35 55h-62q-23 0 -36 -14t-21 -41l-231 -811h-297z" />
    <glyph glyph-name="i" unicode="i" horiz-adv-x="501" 
d="M285 1198l69 246h299l-69 -246h-299zM-57 0l321 1126h297l-321 -1126h-297z" />
    <glyph glyph-name="j" unicode="j" horiz-adv-x="507" 
d="M285 1198l69 246h299l-69 -246h-299zM-276 -317l73 260h94q24 0 37 13t21 42l321 1128h297l-321 -1126q-49 -170 -135 -243.5t-228 -73.5h-159z" />
    <glyph glyph-name="k" unicode="k" horiz-adv-x="884" 
d="M-57 0l411 1444h297l-211 -744h33l252 426h301l-344 -571l14 -555h-297l2 426h-41l-120 -426h-297z" />
    <glyph glyph-name="l" unicode="l" horiz-adv-x="501" 
d="M-57 0l411 1444h297l-411 -1444h-297z" />
    <glyph glyph-name="m" unicode="m" horiz-adv-x="1363" 
d="M-57 0l321 1126h225v-96q54 50 112.5 78.5t105.5 28.5h12q129 0 166 -121q60 55 129 88t129 33h12q132 0 178 -100.5t2 -252.5l-223 -784h-297l232 811q15 55 -35 55h-47q-41 0 -58 -55l-231 -811h-297l231 811q15 55 -35 55h-47q-23 0 -36 -14t-21 -41l-231 -811h-297z
" />
    <glyph glyph-name="n" unicode="n" 
d="M-57 0l321 1126h225v-96q122 107 224 107h12q135 0 183.5 -100.5t4.5 -252.5l-223 -784h-297l232 811q15 55 -35 55h-62q-23 0 -36 -14t-21 -41l-231 -811h-297z" />
    <glyph glyph-name="o" unicode="o" horiz-adv-x="931" 
d="M268 -10q-81 0 -138.5 28t-84 76t-32 112t17.5 136l135 477q50 171 136 244.5t228 73.5h138q160 0 219 -100t16 -253l-135 -477q-49 -171 -134.5 -244t-227.5 -73h-138zM358 260h58q24 0 36.5 13t20.5 42l141 496q15 55 -34 55h-62q-23 0 -36 -14t-21 -41l-144 -500
q-6 -27 3 -39t38 -12z" />
    <glyph glyph-name="p" unicode="p" 
d="M-147 -317l411 1443h225v-96q122 107 224 107h12q135 0 183.5 -100.5t4.5 -252.5l-135 -477q-91 -317 -344 -317h-6q-108 0 -164 94l-114 -401h-297zM369 260h57q24 0 36.5 13t20.5 42l142 496q15 55 -35 55h-62q-23 0 -36 -14t-21 -41l-143 -500q-6 -27 3 -39t38 -12z
" />
    <glyph glyph-name="q" unicode="q" 
d="M293 -317l117 409q-47 -47 -98 -74.5t-93 -27.5h-12q-129 0 -174 100t-2 252l135 477q94 318 346 318h6q132 0 199 -113l59 102h225l-411 -1443h-297zM354 260h62q23 0 36 14t21 41l143 500q15 51 -41 51h-57q-24 0 -36.5 -13t-20.5 -42l-142 -496q-15 -55 35 -55z" />
    <glyph glyph-name="r" unicode="r" horiz-adv-x="843" 
d="M-57 0l321 1126h225v-92q106 103 216 103h12q117 0 158.5 -89t3.5 -223l-66 -231h-270l61 217q15 55 -35 55h-41q-23 0 -36 -14t-21 -41l-231 -811h-297z" />
    <glyph glyph-name="s" unicode="s" horiz-adv-x="802" 
d="M240 -10q-81 0 -139 28t-84.5 76t-32 112t17.5 136l23 84h260l-37 -131q-15 -55 35 -55h49q44 0 57 55l6 20q11 31 8 50.5t-26 44.5l-160 176q-61 67 -79 129.5t3 136.5l6 22q39 136 127.5 199.5t210.5 63.5h84q159 0 212.5 -99.5t9.5 -253.5l-19 -67h-258l33 114
q15 56 -35 56h-41q-40 0 -57 -56l-6 -24q-8 -23 -0.5 -43t34.5 -49l152 -166q52 -56 70 -133.5t-2 -132.5l-11 -41q-73 -252 -325 -252h-86z" />
    <glyph glyph-name="t" unicode="t" horiz-adv-x="681" 
d="M348 0q-81 0 -138.5 28t-84 76t-32 112t17.5 136l143 504h-150l78 270h164l115 195h223l-55 -195h184l-78 -270h-184l-152 -534q-15 -52 41 -52h129l-77 -270h-144z" />
    <glyph glyph-name="u" unicode="u" 
d="M221 -10q-135 0 -184 100t-6 252l223 784h297l-232 -811q-15 -55 35 -55h62q23 0 36 14t21 41l232 811h296l-321 -1126h-225v96q-52 -49 -111.5 -77.5t-110.5 -28.5h-12z" />
    <glyph glyph-name="v" unicode="v" horiz-adv-x="856" 
d="M49 0l144 1126h282l-72 -469l-69 -387h8l348 856h297l-504 -1126h-434z" />
    <glyph glyph-name="w" unicode="w" horiz-adv-x="1228" 
d="M43 0l150 1126h286l-80 -469l-45 -217h11l268 559h211l-43 -559h10l70 203l188 483h291l-490 -1126h-297l17 432h-10l-220 -432h-317z" />
    <glyph glyph-name="x" unicode="x" horiz-adv-x="890" 
d="M-129 0l426 608l-88 518h280l33 -290h8l177 290h299l-394 -565l88 -561h-282l-33 299h-10l-182 -299h-322z" />
    <glyph glyph-name="y" unicode="y" horiz-adv-x="858" 
d="M-92 -317l74 262h92q27 0 40 7.5t21 24.5l62 1149h295l-64 -497l-45 -301h8l303 798h299l-512 -1151q-58 -128 -155 -210t-207 -82h-211z" />
    <glyph glyph-name="z" unicode="z" horiz-adv-x="776" 
d="M-117 0l64 231l512 625h-318l78 270h660l-66 -233l-508 -623h348l-78 -270h-692z" />
    <glyph glyph-name="braceleft" unicode="{" horiz-adv-x="614" 
d="M219 -317q-130 0 -185 82.5t-18 216.5l150 522q17 59 -43 59h-37l64 225h53q26 0 39.5 15t23.5 47l148 516q40 141 115 206.5t198 65.5h119l-64 -225h-63q-27 0 -41.5 -15t-22.5 -46l-131 -459q-42 -149 -162 -225q74 -84 39 -199l-143 -502q-8 -31 2 -45t41 -14h51
l-63 -225h-70z" />
    <glyph glyph-name="bar" unicode="|" horiz-adv-x="614" 
d="M229 -317v1955h215v-1955h-215z" />
    <glyph glyph-name="braceright" unicode="}" horiz-adv-x="614" 
d="M-174 -317l63 225h64q26 0 40.5 15t24.5 46l140 490q43 152 159 225q-70 84 -38 199l135 471q17 59 -43 59h-52l64 225h70q130 0 185 -82.5t17 -216.5l-141 -491q-15 -60 45 -60h37l-64 -225h-53q-27 0 -41 -15t-22 -46l-156 -547q-41 -141 -116.5 -206.5t-198.5 -65.5
h-119z" />
    <glyph glyph-name="asciitilde" unicode="~" 
d="M72 449l63 227q35 122 87.5 174.5t139.5 52.5q54 0 86 -16.5t74 -57.5l72 -73q3 -2 13 -12.5t19 -19.5t11 -9q3 0 6 12l51 176h244l-66 -227q-34 -122 -86 -174.5t-139 -52.5q-54 0 -87.5 17t-72.5 56l-73 74l-6 8q-6 7 -13 14.5t-13.5 14t-8.5 6.5l-6 -6l-52 -184h-243z
" />
    <glyph glyph-name="uni00A0" unicode="&#xa0;" horiz-adv-x="286" 
 />
    <glyph glyph-name="exclamdown" unicode="&#xa1;" horiz-adv-x="593" 
d="M197 784l98 342h317l-98 -342h-317zM-150 -307l377 983h236l-281 -983h-332z" />
    <glyph glyph-name="cent" unicode="&#xa2;" horiz-adv-x="901" 
d="M291 -10l37 133q-96 7 -153.5 56.5t-67.5 125.5t14 170l137 477q49 171 135 244.5t228 73.5h14l49 174h172l-49 -176q133 -17 180.5 -114t7.5 -236l-43 -150h-297l52 176q15 55 -37 55h-62q-42 0 -55 -55l-143 -500q-15 -51 41 -51h57q23 0 35 13t22 43l43 155h297
l-47 -164q-49 -169 -133 -242t-223 -75h-2l-37 -133h-172z" />
    <glyph glyph-name="sterling" unicode="&#xa3;" horiz-adv-x="901" 
d="M-66 0l64 225q59 8 83 47t54 146l60 207h-121l53 184h121l90 317q49 171 134.5 244.5t227.5 73.5h88q149 0 211.5 -90t12.5 -262l-43 -150h-269l56 188q21 76 -56 76h-18q-35 0 -53 -19.5t-29 -60.5l-90 -317h281l-54 -184h-280l-60 -207q-11 -38 -18.5 -60.5t-32 -63
t-57.5 -69.5h225l125 185h178l-115 -410h-768z" />
    <glyph glyph-name="yen" unicode="&#xa5;" horiz-adv-x="901" 
d="M160 0l43 147h-187l52 185h186l29 102h-185l52 184h145l-27 816h316l-15 -320l-26 -274h10l285 594h336l-492 -816h154l-52 -184h-194l-29 -102h193l-52 -185h-192l-43 -147h-307z" />
    <glyph glyph-name="brokenbar" unicode="&#xa6;" horiz-adv-x="614" 
d="M229 754v884h215v-884h-215zM229 -317v833h215v-833h-215z" />
    <glyph glyph-name="section" unicode="&#xa7;" horiz-adv-x="970" 
d="M266 -10q-141 0 -204 86.5t-23 226.5l18 62h283l-27 -95q-6 -19 0 -25.5t31 -6.5h113q21 0 29 6.5t14 27.5l10 39q5 12 -6.5 29t-32.5 27l-262 110q-45 19 -68.5 48t-26 70t3 76.5t21.5 90.5l13 39q15 58 57.5 99.5t105.5 62.5q-60 67 -32 180l8 28q37 129 126 201
t212 72h149q140 0 203 -87.5t23 -226.5l-19 -61h-280l26 94q6 19 -1 26t-30 7h-88q-20 0 -28.5 -6.5t-14.5 -28.5l-10 -39q-5 -12 6.5 -28.5t32.5 -26.5l254 -111q45 -20 68.5 -49t26 -69.5t-3 -75.5t-21.5 -90l-13 -39q-38 -128 -149 -172q54 -67 26 -170l-8 -29
q-37 -129 -126 -200.5t-212 -71.5h-174zM453 614h131q15 0 21 6t13 29l17 58q20 73 17 85q-4 11 -29 21l-17 8h-127q-16 0 -22.5 -6.5t-12.5 -28.5l-18 -59q-17 -62 -15 -80t27 -26z" />
    <glyph glyph-name="dieresis" unicode="&#xa8;" horiz-adv-x="860" 
d="M311 1198l72 246h268l-69 -246h-271zM643 1198l72 246h268l-70 -246h-270z" />
    <glyph glyph-name="copyright" unicode="&#xa9;" horiz-adv-x="1372" 
d="M279 -10q-81 0 -139 28t-84.5 76t-32 112t17.5 136l223 784q49 171 135 244.5t228 73.5h557q81 0 138.5 -28t84 -76t32 -112t-17.5 -136l-223 -785q-49 -171 -134.5 -244t-227.5 -73h-557zM315 123h557q56 0 102 51t70 133l224 785q31 106 -0.5 162.5t-120.5 56.5h-557
q-117 0 -172 -185l-223 -784q-31 -106 0 -162.5t120 -56.5zM573 215q-140 0 -192.5 87t-13.5 218l118 416q42 149 117 212.5t199 63.5h119q94 0 151 -42.5t67 -110.5t-12 -154l-36 -129h-259l43 154q15 47 -30 47h-53q-37 0 -50 -47l-125 -436q-12 -43 37 -43h49q39 0 50 47
l39 135h258l-41 -141q-42 -149 -117 -213t-199 -64h-119z" />
    <glyph glyph-name="guillemotleft" unicode="&#xab;" horiz-adv-x="954" 
d="M180 299l-74 274l39 134l203 264h252l-260 -346l70 -326h-230zM549 299l-74 274l39 134l203 264h252l-260 -346l69 -326h-229z" />
    <glyph glyph-name="logicalnot" unicode="&#xac;" 
d="M473 217l84 295h-469l72 246h737l-156 -541h-268z" />
    <glyph glyph-name="registered" unicode="&#xae;" horiz-adv-x="790" 
d="M307 645q-91 0 -130 57t-11 152l115 401q28 99 79.5 144t137.5 45h239q91 0 130.5 -57t11.5 -152l-115 -401q-28 -99 -79.5 -144t-137.5 -45h-240zM336 743h239q25 0 45.5 24t32.5 67l115 401q31 111 -57 111h-240q-53 0 -80 -91l-115 -401q-31 -111 60 -111zM319 791
l148 512h149q57 0 81.5 -36.5t7.5 -95.5l-21 -77q-24 -78 -74 -105l4 -198h-118v182h-7l-53 -182h-117zM520 1085h35q9 0 12 15l23 78q5 12 -10 12h-29z" />
    <glyph glyph-name="macron" unicode="&#xaf;" horiz-adv-x="860" 
d="M379 1219l57 204h479l-57 -204h-479z" />
    <glyph glyph-name="degree" unicode="&#xb0;" horiz-adv-x="634" 
d="M508 911q-114 0 -191 77.5t-77 191.5q0 112 77 188t191 76q112 0 188 -76t76 -188q0 -114 -76 -191.5t-188 -77.5zM508 1065q48 0 79 32t31 83q0 50 -30 80t-80 30q-51 0 -83 -31t-32 -79q0 -51 32 -83t83 -32z" />
    <glyph glyph-name="plusminus" unicode="&#xb1;" 
d="M332 512l53 184h-244l70 246h244l53 184h250l-53 -184h243l-69 -246h-244l-53 -184h-250zM-10 164l69 246h738l-70 -246h-737z" />
    <glyph glyph-name="acute" unicode="&#xb4;" horiz-adv-x="860" 
d="M487 1198l156 246h289l-215 -246h-230z" />
    <glyph glyph-name="paragraph" unicode="&#xb6;" horiz-adv-x="962" 
d="M137 0l172 600q-109 14 -153 94t-9 203l76 264q40 141 116.5 207t199.5 66h725l-410 -1434h-297l342 1196h-123l-342 -1196h-297z" />
    <glyph glyph-name="periodcentered" unicode="&#xb7;" horiz-adv-x="522" 
d="M76 463l96 342h317l-96 -342h-317z" />
    <glyph glyph-name="cedilla" unicode="&#xb8;" horiz-adv-x="860" 
d="M88 -317l74 245h180v-245h-254z" />
    <glyph glyph-name="guillemotright" unicode="&#xbb;" horiz-adv-x="954" 
d="M29 299l260 346l-70 326h230l73 -275l-37 -133l-204 -264h-252zM397 299l260 346l-69 326h229l74 -275l-37 -133l-205 -264h-252z" />
    <glyph glyph-name="questiondown" unicode="&#xbf;" horiz-adv-x="888" 
d="M360 784l99 342h317l-98 -342h-318zM170 -317q-81 0 -139 28t-84.5 76t-32 112t17.5 136l17 61q18 61 46.5 105t82.5 102l176 186q2 2 14 14.5t15.5 16.5t13.5 16t15 20.5t13 22.5t14.5 29t12.5 33l13 35h268l-17 -55q-21 -78 -55 -135.5t-96 -123.5l-156 -167
q-53 -53 -71 -115l-19 -64q-21 -75 55 -75h15q35 0 53 19t29 60l47 164h282l-53 -184q-49 -171 -134.5 -244t-227.5 -73h-115z" />
    <glyph glyph-name="Agrave" unicode="&#xc0;" horiz-adv-x="933" 
d="M578 1505l-166 246h293l118 -246h-245zM-109 0l560 1434h524l-252 -1434h-311l53 250h-180l-86 -250h-308zM383 528h141l131 623h-57z" />
    <glyph glyph-name="Aacute" unicode="&#xc1;" horiz-adv-x="933" 
d="M612 1505l156 246h289l-215 -246h-230zM-109 0l560 1434h524l-252 -1434h-311l53 250h-180l-86 -250h-308zM383 528h141l131 623h-57z" />
    <glyph glyph-name="Acircumflex" unicode="&#xc2;" horiz-adv-x="933" 
d="M430 1505l272 246h211l134 -246h-232l-39 97l-92 -97h-254zM-109 0l560 1434h524l-252 -1434h-311l53 250h-180l-86 -250h-308zM383 528h141l131 623h-57z" />
    <glyph glyph-name="Atilde" unicode="&#xc3;" horiz-adv-x="933" 
d="M467 1536l37 123q35 123 121 123q8 0 17 -1.5t21.5 -5t22 -7t29.5 -11t35 -12.5l61 -21q24 -8 31 -8t12 10l16 56h181l-35 -123q-38 -123 -123 -123q-23 0 -125 37l-43 16q-9 3 -20 7.5t-17 7t-8 2.5q-11 0 -16 -15l-17 -55h-180zM-109 0l560 1434h524l-252 -1434h-311
l53 250h-180l-86 -250h-308zM383 528h141l131 623h-57z" />
    <glyph glyph-name="Adieresis" unicode="&#xc4;" horiz-adv-x="933" 
d="M436 1505l72 246h268l-69 -246h-271zM768 1505l72 246h268l-70 -246h-270zM-109 0l560 1434h524l-252 -1434h-311l53 250h-180l-86 -250h-308zM383 528h141l131 623h-57z" />
    <glyph glyph-name="Aring" unicode="&#xc5;" horiz-adv-x="933" 
d="M731 1487q-75 0 -125.5 50.5t-50.5 125.5q0 74 50.5 124t125.5 50q72 0 122 -50.5t50 -123.5q0 -75 -50 -125.5t-122 -50.5zM731 1616q19 0 32 13.5t13 33.5t-13 33.5t-32 13.5q-22 0 -35.5 -13.5t-13.5 -33.5t13.5 -33.5t35.5 -13.5zM-109 0l560 1434h524l-252 -1434
h-311l53 250h-180l-86 -250h-308zM383 528h141l131 623h-57z" />
    <glyph glyph-name="AE" unicode="&#xc6;" horiz-adv-x="1198" 
d="M-109 0l560 1434h905l-82 -287h-293l-82 -287h270l-82 -287h-270l-82 -286h293l-82 -287h-596l72 250h-137l-86 -250h-308zM383 528h119l178 623h-82z" />
    <glyph glyph-name="Ccedilla" unicode="&#xc7;" horiz-adv-x="989" 
d="M279 -10q-81 0 -139 28t-84.5 76t-32 112t17.5 136l223 784q49 171 135 244.5t228 73.5h184q81 0 139 -28t84.5 -76t32 -112t-17.5 -136l-78 -277h-301l84 295q15 55 -37 55h-92q-45 0 -58 -55l-225 -791q-8 -27 1 -39t38 -12h90q24 0 36.5 13.5t20.5 42.5l78 272h301
l-82 -289q-49 -172 -132 -244.5t-224 -72.5h-190zM168 -317l74 245h180v-245h-254z" />
    <glyph glyph-name="Egrave" unicode="&#xc8;" horiz-adv-x="821" 
d="M516 1505l-166 246h293l119 -246h-246zM-47 0l409 1434h617l-82 -287h-313l-82 -287h291l-82 -287h-291l-82 -286h313l-82 -287h-616z" />
    <glyph glyph-name="Eacute" unicode="&#xc9;" horiz-adv-x="821" 
d="M551 1505l156 246h288l-215 -246h-229zM-47 0l409 1434h617l-82 -287h-313l-82 -287h291l-82 -287h-291l-82 -286h313l-82 -287h-616z" />
    <glyph glyph-name="Ecircumflex" unicode="&#xca;" horiz-adv-x="821" 
d="M369 1505l272 246h211l133 -246h-231l-39 97l-92 -97h-254zM-47 0l409 1434h617l-82 -287h-313l-82 -287h291l-82 -287h-291l-82 -286h313l-82 -287h-616z" />
    <glyph glyph-name="Edieresis" unicode="&#xcb;" horiz-adv-x="821" 
d="M375 1505l71 246h269l-70 -246h-270zM707 1505l71 246h269l-70 -246h-270zM-47 0l409 1434h617l-82 -287h-313l-82 -287h291l-82 -287h-291l-82 -286h313l-82 -287h-616z" />
    <glyph glyph-name="Igrave" unicode="&#xcc;" horiz-adv-x="532" 
d="M377 1505l-166 246h293l119 -246h-246zM-47 0l409 1434h308l-410 -1434h-307z" />
    <glyph glyph-name="Iacute" unicode="&#xcd;" horiz-adv-x="532" 
d="M412 1505l155 246h289l-215 -246h-229zM-47 0l409 1434h308l-410 -1434h-307z" />
    <glyph glyph-name="Icircumflex" unicode="&#xce;" horiz-adv-x="532" 
d="M229 1505l273 246h211l133 -246h-232l-39 97l-92 -97h-254zM-47 0l409 1434h308l-410 -1434h-307z" />
    <glyph glyph-name="Idieresis" unicode="&#xcf;" horiz-adv-x="532" 
d="M236 1505l71 246h268l-69 -246h-270zM567 1505l72 246h268l-69 -246h-271zM-47 0l409 1434h308l-410 -1434h-307z" />
    <glyph glyph-name="Eth" unicode="&#xd0;" horiz-adv-x="980" 
d="M-27 0l174 610h-112l61 213h113l174 611h471q81 0 139 -28t84.5 -76t32 -112.5t-17.5 -136.5l-220 -764q-49 -171 -134.5 -244t-227.5 -73h-537zM362 287h154q24 0 36.5 13t20.5 42l213 750q15 55 -36 55h-142l-92 -324h98l-61 -213h-98z" />
    <glyph glyph-name="Ntilde" unicode="&#xd1;" horiz-adv-x="1064" 
d="M532 1536l37 123q35 123 121 123q8 0 17 -1.5t21.5 -5t22 -7t29.5 -11t35 -12.5l62 -21q24 -8 30 -8q8 0 13 10l16 56h180l-35 -123q-38 -123 -123 -123q-22 0 -124 37l-43 16q-9 3 -20.5 7.5t-17.5 7t-8 2.5q-11 0 -16 -15l-16 -55h-181zM-37 0l410 1434h286l46 -697h10
l80 328l104 369h293l-410 -1434h-286l-45 696h-11l-80 -327l-104 -369h-293z" />
    <glyph glyph-name="Ograve" unicode="&#xd2;" horiz-adv-x="1015" 
d="M618 1505l-165 246h292l119 -246h-246zM279 -10q-81 0 -139 28t-84.5 76t-32 112t17.5 136l223 784q49 171 135 244.5t228 73.5h200q81 0 139 -28t84.5 -76t32 -112t-17.5 -136l-223 -785q-49 -170 -135 -243.5t-228 -73.5h-200zM381 268h100q24 0 37 13.5t21 42.5
l225 786q15 55 -37 55h-102q-45 0 -58 -55l-225 -791q-8 -27 1 -39t38 -12z" />
    <glyph glyph-name="Oacute" unicode="&#xd3;" horiz-adv-x="1015" 
d="M653 1505l156 246h289l-215 -246h-230zM279 -10q-81 0 -139 28t-84.5 76t-32 112t17.5 136l223 784q49 171 135 244.5t228 73.5h200q81 0 139 -28t84.5 -76t32 -112t-17.5 -136l-223 -785q-49 -170 -135 -243.5t-228 -73.5h-200zM381 268h100q24 0 37 13.5t21 42.5
l225 786q15 55 -37 55h-102q-45 0 -58 -55l-225 -791q-8 -27 1 -39t38 -12z" />
    <glyph glyph-name="Ocircumflex" unicode="&#xd4;" horiz-adv-x="1015" 
d="M471 1505l272 246h211l133 -246h-231l-39 97l-92 -97h-254zM279 -10q-81 0 -139 28t-84.5 76t-32 112t17.5 136l223 784q49 171 135 244.5t228 73.5h200q81 0 139 -28t84.5 -76t32 -112t-17.5 -136l-223 -785q-49 -170 -135 -243.5t-228 -73.5h-200zM381 268h100
q24 0 37 13.5t21 42.5l225 786q15 55 -37 55h-102q-45 0 -58 -55l-225 -791q-8 -27 1 -39t38 -12z" />
    <glyph glyph-name="Otilde" unicode="&#xd5;" horiz-adv-x="1015" 
d="M508 1536l37 123q35 123 121 123q8 0 17 -1.5t21.5 -5t22 -7t29.5 -11t35 -12.5l61 -21q24 -8 31 -8t12 10l16 56h181l-35 -123q-38 -123 -123 -123q-23 0 -125 37l-43 16q-9 3 -20 7.5t-17 7t-8 2.5q-11 0 -16 -15l-17 -55h-180zM279 -10q-81 0 -139 28t-84.5 76
t-32 112t17.5 136l223 784q49 171 135 244.5t228 73.5h200q81 0 139 -28t84.5 -76t32 -112t-17.5 -136l-223 -785q-49 -170 -135 -243.5t-228 -73.5h-200zM381 268h100q24 0 37 13.5t21 42.5l225 786q15 55 -37 55h-102q-45 0 -58 -55l-225 -791q-8 -27 1 -39t38 -12z" />
    <glyph glyph-name="Odieresis" unicode="&#xd6;" horiz-adv-x="1015" 
d="M477 1505l72 246h268l-69 -246h-271zM809 1505l72 246h268l-70 -246h-270zM279 -10q-81 0 -139 28t-84.5 76t-32 112t17.5 136l223 784q49 171 135 244.5t228 73.5h200q81 0 139 -28t84.5 -76t32 -112t-17.5 -136l-223 -785q-49 -170 -135 -243.5t-228 -73.5h-200z
M381 268h100q24 0 37 13.5t21 42.5l225 786q15 55 -37 55h-102q-45 0 -58 -55l-225 -791q-8 -27 1 -39t38 -12z" />
    <glyph glyph-name="multiply" unicode="&#xd7;" 
d="M598 266l-141 199l-252 -197l-131 185l252 194l-142 199l203 158l141 -199l252 196l131 -184l-252 -194l142 -199z" />
    <glyph glyph-name="Oslash" unicode="&#xd8;" horiz-adv-x="1015" 
d="M1225 1438l-146 -176q13 -80 -14 -170l-223 -785q-49 -170 -135 -243.5t-228 -73.5h-200q-131 0 -195 67l-47 -57h-217l205 248q4 53 16 94l223 784q49 171 135 244.5t228 73.5h200q95 0 156 -37l25 31h217zM477 797l289 348q-6 20 -39 20h-102q-45 0 -58 -55zM664 758
l-299 -363q-26 -75 -25 -101t41 -26h100q24 0 37 13.5t21 42.5z" />
    <glyph glyph-name="Ugrave" unicode="&#xd9;" horiz-adv-x="1036" 
d="M629 1505l-166 246h293l118 -246h-245zM289 -10q-81 0 -139 28t-84.5 76t-32 112t17.5 136l311 1092h308l-312 -1090q-21 -76 54 -76h61q35 0 53 19t31 61l309 1086h308l-322 -1127q-49 -170 -135 -243.5t-228 -73.5h-200z" />
    <glyph glyph-name="Uacute" unicode="&#xda;" horiz-adv-x="1036" 
d="M664 1505l155 246h289l-215 -246h-229zM289 -10q-81 0 -139 28t-84.5 76t-32 112t17.5 136l311 1092h308l-312 -1090q-21 -76 54 -76h61q35 0 53 19t31 61l309 1086h308l-322 -1127q-49 -170 -135 -243.5t-228 -73.5h-200z" />
    <glyph glyph-name="Ucircumflex" unicode="&#xdb;" horiz-adv-x="1036" 
d="M481 1505l273 246h211l133 -246h-232l-39 97l-92 -97h-254zM289 -10q-81 0 -139 28t-84.5 76t-32 112t17.5 136l311 1092h308l-312 -1090q-21 -76 54 -76h61q35 0 53 19t31 61l309 1086h308l-322 -1127q-49 -170 -135 -243.5t-228 -73.5h-200z" />
    <glyph glyph-name="Udieresis" unicode="&#xdc;" horiz-adv-x="1036" 
d="M487 1505l72 246h268l-69 -246h-271zM819 1505l72 246h268l-69 -246h-271zM289 -10q-81 0 -139 28t-84.5 76t-32 112t17.5 136l311 1092h308l-312 -1090q-21 -76 54 -76h61q35 0 53 19t31 61l309 1086h308l-322 -1127q-49 -170 -135 -243.5t-228 -73.5h-200z" />
    <glyph glyph-name="Yacute" unicode="&#xdd;" horiz-adv-x="946" 
d="M618 1505l156 246h289l-215 -246h-230zM162 0l141 492l-33 942h316l-15 -320l-26 -274h10l285 594h336l-566 -938l-141 -496h-307z" />
    <glyph glyph-name="Thorn" unicode="&#xde;" horiz-adv-x="911" 
d="M-47 0l409 1434h308l-76 -267h143q81 0 139 -28t84.5 -76t32 -112t-17.5 -136l-68 -231q-49 -171 -134.5 -244.5t-227.5 -73.5h-209l-76 -266h-307zM416 543h133q24 0 35.5 13t19.5 42l70 238q15 55 -39 55h-121z" />
    <glyph glyph-name="germandbls" unicode="&#xdf;" horiz-adv-x="1150" 
d="M653 -10q-81 0 -138.5 28t-84 76t-32 112t17.5 136l12 43h236l-27 -90q-15 -55 35 -55h39q44 0 57 55l4 12q11 31 8 50t-26 44l-131 136q-62 64 -80 128.5t4 137.5l2 6q36 129 115.5 195.5t185.5 66.5h16q31 0 37 27l8 30q13 46 -26 46h-279q-24 0 -36.5 -13.5
t-20.5 -42.5l-320 -1118h-286l321 1126q49 171 135 244.5t228 73.5h370q155 0 198.5 -72.5t-15.5 -245.5l-21 -75q-32 -109 -98 -161t-131 -52h-23q-71 0 -88 -56l-6 -24q-8 -23 0 -44t35 -48l121 -125q54 -54 71.5 -133.5t-2.5 -133.5l-8 -32q-73 -252 -325 -252h-52z" />
    <glyph glyph-name="agrave" unicode="&#xe0;" horiz-adv-x="862" 
d="M434 1198l-166 246h293l119 -246h-246zM166 -10q-125 0 -173.5 89t-10.5 222l14 51q19 66 48.5 114t72.5 80t79 50.5t95 40.5l190 72q38 14 49 51l23 76q6 27 -3 39t-38 12h-41q-24 0 -36.5 -13.5t-20.5 -42.5l-27 -96h-266l22 84q50 171 136.5 244.5t228.5 73.5h90
q81 0 138.5 -28t83.5 -76t31.5 -112.5t-17.5 -136.5l-224 -784h-219v96q-114 -106 -207 -106h-18zM287 242h65q43 0 56 55l57 201l-123 -52q-21 -8 -32.5 -21t-18.5 -40l-27 -88q-7 -26 0 -40.5t23 -14.5z" />
    <glyph glyph-name="aacute" unicode="&#xe1;" horiz-adv-x="862" 
d="M469 1198l156 246h288l-215 -246h-229zM166 -10q-125 0 -173.5 89t-10.5 222l14 51q19 66 48.5 114t72.5 80t79 50.5t95 40.5l190 72q38 14 49 51l23 76q6 27 -3 39t-38 12h-41q-24 0 -36.5 -13.5t-20.5 -42.5l-27 -96h-266l22 84q50 171 136.5 244.5t228.5 73.5h90
q81 0 138.5 -28t83.5 -76t31.5 -112.5t-17.5 -136.5l-224 -784h-219v96q-114 -106 -207 -106h-18zM287 242h65q43 0 56 55l57 201l-123 -52q-21 -8 -32.5 -21t-18.5 -40l-27 -88q-7 -26 0 -40.5t23 -14.5z" />
    <glyph glyph-name="acircumflex" unicode="&#xe2;" horiz-adv-x="862" 
d="M287 1198l272 246h211l133 -246h-231l-39 96l-92 -96h-254zM166 -10q-125 0 -173.5 89t-10.5 222l14 51q19 66 48.5 114t72.5 80t79 50.5t95 40.5l190 72q38 14 49 51l23 76q6 27 -3 39t-38 12h-41q-24 0 -36.5 -13.5t-20.5 -42.5l-27 -96h-266l22 84q50 171 136.5 244.5
t228.5 73.5h90q81 0 138.5 -28t83.5 -76t31.5 -112.5t-17.5 -136.5l-224 -784h-219v96q-114 -106 -207 -106h-18zM287 242h65q43 0 56 55l57 201l-123 -52q-21 -8 -32.5 -21t-18.5 -40l-27 -88q-7 -26 0 -40.5t23 -14.5z" />
    <glyph glyph-name="atilde" unicode="&#xe3;" horiz-adv-x="862" 
d="M324 1229l36 123q35 123 121 123q8 0 17 -1.5t21.5 -5t22 -7t29.5 -11t35 -12.5l62 -21q24 -8 30 -8q8 0 13 10l16 56h180l-35 -123q-38 -123 -122 -123q-23 0 -125 37l-43 16q-9 3 -20.5 7.5t-17 6.5t-7.5 2q-12 0 -17 -14l-16 -55h-180zM166 -10q-125 0 -173.5 89
t-10.5 222l14 51q19 66 48.5 114t72.5 80t79 50.5t95 40.5l190 72q38 14 49 51l23 76q6 27 -3 39t-38 12h-41q-24 0 -36.5 -13.5t-20.5 -42.5l-27 -96h-266l22 84q50 171 136.5 244.5t228.5 73.5h90q81 0 138.5 -28t83.5 -76t31.5 -112.5t-17.5 -136.5l-224 -784h-219v96
q-114 -106 -207 -106h-18zM287 242h65q43 0 56 55l57 201l-123 -52q-21 -8 -32.5 -21t-18.5 -40l-27 -88q-7 -26 0 -40.5t23 -14.5z" />
    <glyph glyph-name="adieresis" unicode="&#xe4;" horiz-adv-x="862" 
d="M293 1198l72 246h268l-70 -246h-270zM625 1198l71 246h269l-70 -246h-270zM166 -10q-125 0 -173.5 89t-10.5 222l14 51q19 66 48.5 114t72.5 80t79 50.5t95 40.5l190 72q38 14 49 51l23 76q6 27 -3 39t-38 12h-41q-24 0 -36.5 -13.5t-20.5 -42.5l-27 -96h-266l22 84
q50 171 136.5 244.5t228.5 73.5h90q81 0 138.5 -28t83.5 -76t31.5 -112.5t-17.5 -136.5l-224 -784h-219v96q-114 -106 -207 -106h-18zM287 242h65q43 0 56 55l57 201l-123 -52q-21 -8 -32.5 -21t-18.5 -40l-27 -88q-7 -26 0 -40.5t23 -14.5z" />
    <glyph glyph-name="aring" unicode="&#xe5;" horiz-adv-x="862" 
d="M588 1180q-75 0 -125.5 50.5t-50.5 125.5q0 74 50.5 124t125.5 50q72 0 122 -50.5t50 -123.5q0 -75 -50 -125.5t-122 -50.5zM588 1309q19 0 32 13.5t13 33.5t-13 33.5t-32 13.5q-22 0 -35.5 -13.5t-13.5 -33.5t13.5 -33.5t35.5 -13.5zM166 -10q-125 0 -173.5 89
t-10.5 222l14 51q19 66 48.5 114t72.5 80t79 50.5t95 40.5l190 72q38 14 49 51l23 76q6 27 -3 39t-38 12h-41q-24 0 -36.5 -13.5t-20.5 -42.5l-27 -96h-266l22 84q50 171 136.5 244.5t228.5 73.5h90q81 0 138.5 -28t83.5 -76t31.5 -112.5t-17.5 -136.5l-224 -784h-219v96
q-114 -106 -207 -106h-18zM287 242h65q43 0 56 55l57 201l-123 -52q-21 -8 -32.5 -21t-18.5 -40l-27 -88q-7 -26 0 -40.5t23 -14.5z" />
    <glyph glyph-name="ae" unicode="&#xe6;" horiz-adv-x="1220" 
d="M166 -10q-125 0 -173.5 89t-10.5 222l14 51q19 66 48.5 114t72.5 80t79 50.5t95 40.5l190 72q38 14 49 51l23 76q6 27 -3 39t-38 12h-41q-24 0 -36.5 -13.5t-20.5 -42.5l-27 -96h-266l22 84q50 171 136.5 244.5t228.5 73.5h74q62 0 101 -29t50 -100q95 129 225 129h60
q160 0 219 -100t16 -253l-86 -307h-424l-49 -170q-15 -51 41 -51h45q24 0 36 13t20 42l20 70h283l-21 -74q-49 -171 -134.5 -244t-227.5 -73h-60q-106 0 -155.5 38t-65.5 113q-59 -67 -134.5 -109t-131.5 -42h-43zM803 690h141l37 125q15 55 -37 55h-49q-42 0 -55 -55z
M287 242h65q43 0 56 55l57 201l-123 -52q-21 -8 -32.5 -21t-18.5 -40l-27 -88q-7 -26 0 -40.5t23 -14.5z" />
    <glyph glyph-name="ccedilla" unicode="&#xe7;" horiz-adv-x="931" 
d="M268 -10q-81 0 -138.5 28t-84 76t-32 112t17.5 136l135 477q50 171 136 244.5t228 73.5h138q160 0 219 -100t16 -253l-41 -149h-297l49 176q15 55 -34 55h-62q-23 0 -36 -14t-21 -41l-144 -500q-6 -27 3 -39t38 -12h58q24 0 36.5 13t20.5 42l45 156h297l-47 -164
q-49 -171 -134.5 -244t-227.5 -73h-138zM145 -317l74 245h180v-245h-254z" />
    <glyph glyph-name="egrave" unicode="&#xe8;" horiz-adv-x="899" 
d="M469 1198l-166 246h293l119 -246h-246zM268 -10q-81 0 -138.5 28t-84 76t-32 112t17.5 136l135 477q50 171 136 244.5t228 73.5h105q160 0 219 -100t16 -253l-86 -307h-424l-49 -170q-15 -51 41 -51h45q24 0 36 13t20 42l20 70h283l-21 -74q-49 -171 -134.5 -244
t-227.5 -73h-105zM422 690h141l35 125q15 55 -37 55h-49q-42 0 -55 -55z" />
    <glyph glyph-name="eacute" unicode="&#xe9;" horiz-adv-x="899" 
d="M504 1198l155 246h289l-215 -246h-229zM268 -10q-81 0 -138.5 28t-84 76t-32 112t17.5 136l135 477q50 171 136 244.5t228 73.5h105q160 0 219 -100t16 -253l-86 -307h-424l-49 -170q-15 -51 41 -51h45q24 0 36 13t20 42l20 70h283l-21 -74q-49 -171 -134.5 -244
t-227.5 -73h-105zM422 690h141l35 125q15 55 -37 55h-49q-42 0 -55 -55z" />
    <glyph glyph-name="ecircumflex" unicode="&#xea;" horiz-adv-x="899" 
d="M322 1198l272 246h211l133 -246h-231l-39 96l-93 -96h-253zM268 -10q-81 0 -138.5 28t-84 76t-32 112t17.5 136l135 477q50 171 136 244.5t228 73.5h105q160 0 219 -100t16 -253l-86 -307h-424l-49 -170q-15 -51 41 -51h45q24 0 36 13t20 42l20 70h283l-21 -74
q-49 -171 -134.5 -244t-227.5 -73h-105zM422 690h141l35 125q15 55 -37 55h-49q-42 0 -55 -55z" />
    <glyph glyph-name="edieresis" unicode="&#xeb;" horiz-adv-x="899" 
d="M328 1198l71 246h269l-70 -246h-270zM659 1198l72 246h268l-69 -246h-271zM268 -10q-81 0 -138.5 28t-84 76t-32 112t17.5 136l135 477q50 171 136 244.5t228 73.5h105q160 0 219 -100t16 -253l-86 -307h-424l-49 -170q-15 -51 41 -51h45q24 0 36 13t20 42l20 70h283
l-21 -74q-49 -171 -134.5 -244t-227.5 -73h-105zM422 690h141l35 125q15 55 -37 55h-49q-42 0 -55 -55z" />
    <glyph glyph-name="igrave" unicode="&#xec;" horiz-adv-x="450" 
d="M274 1198l-165 246h292l119 -246h-246zM-57 0l321 1126h297l-321 -1126h-297z" />
    <glyph glyph-name="iacute" unicode="&#xed;" horiz-adv-x="450" 
d="M309 1198l156 246h289l-215 -246h-230zM-57 0l321 1126h297l-321 -1126h-297z" />
    <glyph glyph-name="icircumflex" unicode="&#xee;" horiz-adv-x="450" 
d="M127 1198l272 246h211l133 -246h-231l-39 96l-92 -96h-254zM-57 0l321 1126h297l-321 -1126h-297z" />
    <glyph glyph-name="idieresis" unicode="&#xef;" horiz-adv-x="450" 
d="M133 1198l72 246h268l-70 -246h-270zM465 1198l72 246h268l-70 -246h-270zM-57 0l321 1126h297l-321 -1126h-297z" />
    <glyph glyph-name="eth" unicode="&#xf0;" horiz-adv-x="860" 
d="M268 -10q-81 0 -138.5 28t-84 76t-32 112t17.5 136l112 395q91 318 344 318h7q48 0 95.5 -26t76.5 -77l6 6l-72 195l-227 -72l61 217l101 31l-41 115h280l12 -35l209 66l-63 -218l-84 -26l49 -144q26 -69 25 -156t-35 -208l-119 -416q-49 -171 -134.5 -244t-227.5 -73
h-138zM358 260h58q24 0 36.5 13t20.5 42l119 414q15 55 -37 55h-61q-43 0 -56 -55l-121 -418q-6 -27 3 -39t38 -12z" />
    <glyph glyph-name="ntilde" unicode="&#xf1;" 
d="M383 1229l37 123q35 123 121 123q8 0 17 -1.5t21.5 -5t22 -7t29.5 -11t35 -12.5l61 -21q24 -8 31 -8t12 10l16 56h181l-35 -123q-38 -123 -123 -123q-23 0 -125 37l-43 16q-9 3 -20.5 7.5t-17 6.5t-7.5 2q-11 0 -16 -14l-17 -55h-180zM-57 0l321 1126h225v-96
q122 107 224 107h12q135 0 183.5 -100.5t4.5 -252.5l-223 -784h-297l232 811q15 55 -35 55h-62q-23 0 -36 -14t-21 -41l-231 -811h-297z" />
    <glyph glyph-name="ograve" unicode="&#xf2;" horiz-adv-x="931" 
d="M489 1198l-165 246h292l119 -246h-246zM268 -10q-81 0 -138.5 28t-84 76t-32 112t17.5 136l135 477q50 171 136 244.5t228 73.5h138q160 0 219 -100t16 -253l-135 -477q-49 -171 -134.5 -244t-227.5 -73h-138zM358 260h58q24 0 36.5 13t20.5 42l141 496q15 55 -34 55h-62
q-23 0 -36 -14t-21 -41l-144 -500q-6 -27 3 -39t38 -12z" />
    <glyph glyph-name="oacute" unicode="&#xf3;" horiz-adv-x="931" 
d="M524 1198l156 246h289l-215 -246h-230zM268 -10q-81 0 -138.5 28t-84 76t-32 112t17.5 136l135 477q50 171 136 244.5t228 73.5h138q160 0 219 -100t16 -253l-135 -477q-49 -171 -134.5 -244t-227.5 -73h-138zM358 260h58q24 0 36.5 13t20.5 42l141 496q15 55 -34 55h-62
q-23 0 -36 -14t-21 -41l-144 -500q-6 -27 3 -39t38 -12z" />
    <glyph glyph-name="ocircumflex" unicode="&#xf4;" horiz-adv-x="931" 
d="M342 1198l272 246h211l133 -246h-231l-39 96l-92 -96h-254zM268 -10q-81 0 -138.5 28t-84 76t-32 112t17.5 136l135 477q50 171 136 244.5t228 73.5h138q160 0 219 -100t16 -253l-135 -477q-49 -171 -134.5 -244t-227.5 -73h-138zM358 260h58q24 0 36.5 13t20.5 42
l141 496q15 55 -34 55h-62q-23 0 -36 -14t-21 -41l-144 -500q-6 -27 3 -39t38 -12z" />
    <glyph glyph-name="otilde" unicode="&#xf5;" horiz-adv-x="931" 
d="M379 1229l37 123q35 123 121 123q8 0 17 -1.5t21.5 -5t22 -7t29.5 -11t35 -12.5l61 -21q24 -8 31 -8t12 10l16 56h181l-35 -123q-38 -123 -123 -123q-23 0 -125 37l-43 16q-9 3 -20.5 7.5t-17 6.5t-7.5 2q-12 0 -17 -14l-16 -55h-180zM268 -10q-81 0 -138.5 28t-84 76
t-32 112t17.5 136l135 477q50 171 136 244.5t228 73.5h138q160 0 219 -100t16 -253l-135 -477q-49 -171 -134.5 -244t-227.5 -73h-138zM358 260h58q24 0 36.5 13t20.5 42l141 496q15 55 -34 55h-62q-23 0 -36 -14t-21 -41l-144 -500q-6 -27 3 -39t38 -12z" />
    <glyph glyph-name="odieresis" unicode="&#xf6;" horiz-adv-x="931" 
d="M348 1198l72 246h268l-70 -246h-270zM680 1198l72 246h268l-70 -246h-270zM268 -10q-81 0 -138.5 28t-84 76t-32 112t17.5 136l135 477q50 171 136 244.5t228 73.5h138q160 0 219 -100t16 -253l-135 -477q-49 -171 -134.5 -244t-227.5 -73h-138zM358 260h58q24 0 36.5 13
t20.5 42l141 496q15 55 -34 55h-62q-23 0 -36 -14t-21 -41l-144 -500q-6 -27 3 -39t38 -12z" />
    <glyph glyph-name="divide" unicode="&#xf7;" 
d="M406 827l86 299h282l-86 -299h-282zM78 512l72 246h757l-71 -246h-758zM211 143l86 299h283l-86 -299h-283z" />
    <glyph glyph-name="oslash" unicode="&#xf8;" horiz-adv-x="860" 
d="M268 -10q-114 0 -180 53l-41 -43h-207l174 188q-7 73 17 154l135 477q50 171 136 244.5t228 73.5h138q111 0 178 -54l41 43h207l-174 -186q9 -68 -17 -156l-135 -477q-49 -171 -134.5 -244t-227.5 -73h-138zM401 604l217 234q-3 28 -38 28h-62q-23 0 -36 -14t-21 -41z
M358 260h58q24 0 36.5 13t20.5 42l59 207l-217 -233q0 -29 43 -29z" />
    <glyph glyph-name="ugrave" unicode="&#xf9;" horiz-adv-x="968" 
d="M510 1198l-166 246h293l119 -246h-246zM248 -10q-135 0 -184.5 100t-6.5 252l224 784h297l-232 -811q-15 -55 35 -55h61q41 0 58 55l231 811h297l-321 -1126h-226v96q-53 -50 -111.5 -78t-109.5 -28h-12z" />
    <glyph glyph-name="uacute" unicode="&#xfa;" 
d="M518 1198l156 246h289l-215 -246h-230zM221 -10q-135 0 -184 100t-6 252l223 784h297l-232 -811q-15 -55 35 -55h62q23 0 36 14t21 41l232 811h296l-321 -1126h-225v96q-52 -49 -111.5 -77.5t-110.5 -28.5h-12z" />
    <glyph glyph-name="ucircumflex" unicode="&#xfb;" 
d="M336 1198l272 246h211l133 -246h-231l-39 96l-92 -96h-254zM221 -10q-135 0 -184 100t-6 252l223 784h297l-232 -811q-15 -55 35 -55h62q23 0 36 14t21 41l232 811h296l-321 -1126h-225v96q-52 -49 -111.5 -77.5t-110.5 -28.5h-12z" />
    <glyph glyph-name="udieresis" unicode="&#xfc;" 
d="M342 1198l72 246h268l-70 -246h-270zM674 1198l71 246h269l-70 -246h-270zM221 -10q-135 0 -184 100t-6 252l223 784h297l-232 -811q-15 -55 35 -55h62q23 0 36 14t21 41l232 811h296l-321 -1126h-225v96q-52 -49 -111.5 -77.5t-110.5 -28.5h-12z" />
    <glyph glyph-name="yacute" unicode="&#xfd;" horiz-adv-x="858" 
d="M489 1198l156 246h289l-215 -246h-230zM-92 -317l74 262h92q27 0 40 7.5t21 24.5l62 1149h295l-64 -497l-45 -301h8l303 798h299l-512 -1151q-58 -128 -155 -210t-207 -82h-211z" />
    <glyph glyph-name="thorn" unicode="&#xfe;" 
d="M-147 -317l501 1761h297l-116 -412q102 105 192 105h12q86 0 136.5 -48t57 -126.5t-19.5 -178.5l-135 -477q-91 -317 -344 -317h-6q-108 0 -164 94l-114 -401h-297zM369 260h57q24 0 36.5 13t20.5 42l142 496q15 55 -35 55h-62q-23 0 -36 -14t-21 -41l-143 -500
q-6 -27 3 -39t38 -12z" />
    <glyph glyph-name="ydieresis" unicode="&#xff;" horiz-adv-x="858" 
d="M313 1198l72 246h268l-69 -246h-271zM645 1198l72 246h268l-70 -246h-270zM-92 -317l74 262h92q27 0 40 7.5t21 24.5l62 1149h295l-64 -497l-45 -301h8l303 798h299l-512 -1151q-58 -128 -155 -210t-207 -82h-211z" />
    <glyph glyph-name="Amacron" unicode="&#x100;" horiz-adv-x="933" 
d="M504 1526l57 205h479l-57 -205h-479zM-109 0l560 1434h524l-252 -1434h-311l53 250h-180l-86 -250h-308zM383 528h141l131 623h-57z" />
    <glyph glyph-name="amacron" unicode="&#x101;" horiz-adv-x="862" 
d="M360 1219l58 204h479l-57 -204h-480zM166 -10q-125 0 -173.5 89t-10.5 222l14 51q19 66 48.5 114t72.5 80t79 50.5t95 40.5l190 72q38 14 49 51l23 76q6 27 -3 39t-38 12h-41q-24 0 -36.5 -13.5t-20.5 -42.5l-27 -96h-266l22 84q50 171 136.5 244.5t228.5 73.5h90
q81 0 138.5 -28t83.5 -76t31.5 -112.5t-17.5 -136.5l-224 -784h-219v96q-114 -106 -207 -106h-18zM287 242h65q43 0 56 55l57 201l-123 -52q-21 -8 -32.5 -21t-18.5 -40l-27 -88q-7 -26 0 -40.5t23 -14.5z" />
    <glyph glyph-name="Abreve" unicode="&#x102;" horiz-adv-x="933" 
d="M635 1505q-94 0 -128.5 59t-8.5 148l10 39h205l-6 -20q-6 -26 1 -35.5t31 -9.5h52q21 0 31 11t16 36l4 18h205l-17 -59q-29 -100 -79 -143.5t-134 -43.5h-182zM-109 0l560 1434h524l-252 -1434h-311l53 250h-180l-86 -250h-308zM383 528h141l131 623h-57z" />
    <glyph glyph-name="abreve" unicode="&#x103;" horiz-adv-x="862" 
d="M492 1198q-94 0 -129 59t-9 148l11 39h204l-6 -21q-6 -26 1.5 -35.5t31.5 -9.5h51q21 0 31 11t16 36l4 19h205l-16 -60q-29 -100 -79 -143t-134 -43h-182zM166 -10q-125 0 -173.5 89t-10.5 222l14 51q19 66 48.5 114t72.5 80t79 50.5t95 40.5l190 72q38 14 49 51l23 76
q6 27 -3 39t-38 12h-41q-24 0 -36.5 -13.5t-20.5 -42.5l-27 -96h-266l22 84q50 171 136.5 244.5t228.5 73.5h90q81 0 138.5 -28t83.5 -76t31.5 -112.5t-17.5 -136.5l-224 -784h-219v96q-114 -106 -207 -106h-18zM287 242h65q43 0 56 55l57 201l-123 -52q-21 -8 -32.5 -21
t-18.5 -40l-27 -88q-7 -26 0 -40.5t23 -14.5z" />
    <glyph glyph-name="Aogonek" unicode="&#x104;" horiz-adv-x="933" 
d="M-109 0l560 1434h524l-252 -1434h-311l53 250h-180l-86 -250h-308zM383 528h141l131 623h-57zM422 -317v245h180l74 -245h-254z" />
    <glyph glyph-name="aogonek" unicode="&#x105;" horiz-adv-x="862" 
d="M166 -10q-125 0 -173.5 89t-10.5 222l14 51q19 66 48.5 114t72.5 80t79 50.5t95 40.5l190 72q38 14 49 51l23 76q6 27 -3 39t-38 12h-41q-24 0 -36.5 -13.5t-20.5 -42.5l-27 -96h-266l22 84q50 171 136.5 244.5t228.5 73.5h90q81 0 138.5 -28t83.5 -76t31.5 -112.5
t-17.5 -136.5l-224 -784h-219v96q-114 -106 -207 -106h-18zM287 242h65q43 0 56 55l57 201l-123 -52q-21 -8 -32.5 -21t-18.5 -40l-27 -88q-7 -26 0 -40.5t23 -14.5zM393 -317v245h180l74 -245h-254z" />
    <glyph glyph-name="Cacute" unicode="&#x106;" horiz-adv-x="989" 
d="M618 1505l156 246h289l-215 -246h-230zM279 -10q-81 0 -139 28t-84.5 76t-32 112t17.5 136l223 784q49 171 135 244.5t228 73.5h184q81 0 139 -28t84.5 -76t32 -112t-17.5 -136l-78 -277h-301l84 295q15 55 -37 55h-92q-45 0 -58 -55l-225 -791q-8 -27 1 -39t38 -12h90
q24 0 36.5 13.5t20.5 42.5l78 272h301l-82 -289q-49 -172 -132 -244.5t-224 -72.5h-190z" />
    <glyph glyph-name="cacute" unicode="&#x107;" horiz-adv-x="931" 
d="M522 1198l156 246h289l-215 -246h-230zM268 -10q-81 0 -138.5 28t-84 76t-32 112t17.5 136l135 477q50 171 136 244.5t228 73.5h138q160 0 219 -100t16 -253l-41 -149h-297l49 176q15 55 -34 55h-62q-23 0 -36 -14t-21 -41l-144 -500q-6 -27 3 -39t38 -12h58
q24 0 36.5 13t20.5 42l45 156h297l-47 -164q-49 -171 -134.5 -244t-227.5 -73h-138z" />
    <glyph glyph-name="Cdotaccent" unicode="&#x10a;" horiz-adv-x="989" 
d="M594 1505l70 246h299l-70 -246h-299zM279 -10q-81 0 -139 28t-84.5 76t-32 112t17.5 136l223 784q49 171 135 244.5t228 73.5h184q81 0 139 -28t84.5 -76t32 -112t-17.5 -136l-78 -277h-301l84 295q15 55 -37 55h-92q-45 0 -58 -55l-225 -791q-8 -27 1 -39t38 -12h90
q24 0 36.5 13.5t20.5 42.5l78 272h301l-82 -289q-49 -172 -132 -244.5t-224 -72.5h-190z" />
    <glyph glyph-name="cdotaccent" unicode="&#x10b;" horiz-adv-x="931" 
d="M498 1198l69 246h299l-69 -246h-299zM268 -10q-81 0 -138.5 28t-84 76t-32 112t17.5 136l135 477q50 171 136 244.5t228 73.5h138q160 0 219 -100t16 -253l-41 -149h-297l49 176q15 55 -34 55h-62q-23 0 -36 -14t-21 -41l-144 -500q-6 -27 3 -39t38 -12h58q24 0 36.5 13
t20.5 42l45 156h297l-47 -164q-49 -171 -134.5 -244t-227.5 -73h-138z" />
    <glyph glyph-name="Ccaron" unicode="&#x10c;" horiz-adv-x="989" 
d="M639 1505l-133 246h231l39 -96l92 96h254l-272 -246h-211zM279 -10q-81 0 -139 28t-84.5 76t-32 112t17.5 136l223 784q49 171 135 244.5t228 73.5h184q81 0 139 -28t84.5 -76t32 -112t-17.5 -136l-78 -277h-301l84 295q15 55 -37 55h-92q-45 0 -58 -55l-225 -791
q-8 -27 1 -39t38 -12h90q24 0 36.5 13.5t20.5 42.5l78 272h301l-82 -289q-49 -172 -132 -244.5t-224 -72.5h-190z" />
    <glyph glyph-name="ccaron" unicode="&#x10d;" horiz-adv-x="931" 
d="M543 1198l-133 246h231l39 -96l92 96h254l-272 -246h-211zM268 -10q-81 0 -138.5 28t-84 76t-32 112t17.5 136l135 477q50 171 136 244.5t228 73.5h138q160 0 219 -100t16 -253l-41 -149h-297l49 176q15 55 -34 55h-62q-23 0 -36 -14t-21 -41l-144 -500q-6 -27 3 -39
t38 -12h58q24 0 36.5 13t20.5 42l45 156h297l-47 -164q-49 -171 -134.5 -244t-227.5 -73h-138z" />
    <glyph glyph-name="Dcaron" unicode="&#x10e;" horiz-adv-x="1024" 
d="M590 1505l-133 246h231l39 -96l92 96h254l-272 -246h-211zM-47 0l409 1434h472q81 0 138.5 -28t84 -76t32 -112.5t-17.5 -136.5l-219 -764q-49 -170 -135 -243.5t-228 -73.5h-536zM342 287h154q24 0 36.5 13t20.5 42l213 750q15 55 -37 55h-141z" />
    <glyph glyph-name="dcaron" unicode="&#x10f;" horiz-adv-x="1198" 
d="M221 -10q-135 0 -184 100t-6 252l135 477q94 318 346 318h6q103 0 164 -93l113 400h297l-412 -1444h-225v96q-52 -49 -111.5 -77.5t-110.5 -28.5h-12zM1102 1116l92 328h276l-172 -328h-196zM354 260h62q23 0 36 14t21 41l143 500q15 51 -41 51h-57q-24 0 -36.5 -13
t-20.5 -42l-142 -496q-15 -55 35 -55z" />
    <glyph glyph-name="Dcroat" unicode="&#x110;" horiz-adv-x="980" 
d="M-27 0l174 610h-112l61 213h113l174 611h471q81 0 139 -28t84.5 -76t32 -112.5t-17.5 -136.5l-220 -764q-49 -171 -134.5 -244t-227.5 -73h-537zM362 287h154q24 0 36.5 13t20.5 42l213 750q15 55 -36 55h-142l-92 -324h98l-61 -213h-98z" />
    <glyph glyph-name="dcroat" unicode="&#x111;" horiz-adv-x="872" 
d="M221 -10q-135 0 -184 100t-6 252l125 436q91 318 344 318h6q103 0 164 -92l39 139h-170l61 213h170l25 88h297l-25 -88h94l-61 -213h-94l-326 -1143h-225v96q-52 -49 -111.5 -77.5t-110.5 -28.5h-12zM354 260h62q23 0 36 14t21 41l131 459q15 51 -41 51h-57
q-23 0 -35 -12.5t-22 -42.5l-130 -455q-15 -55 35 -55z" />
    <glyph glyph-name="Emacron" unicode="&#x112;" horiz-adv-x="821" 
d="M442 1526l58 205h479l-57 -205h-480zM-47 0l409 1434h617l-82 -287h-313l-82 -287h291l-82 -287h-291l-82 -286h313l-82 -287h-616z" />
    <glyph glyph-name="emacron" unicode="&#x113;" horiz-adv-x="899" 
d="M395 1219l58 204h479l-58 -204h-479zM268 -10q-81 0 -138.5 28t-84 76t-32 112t17.5 136l135 477q50 171 136 244.5t228 73.5h105q160 0 219 -100t16 -253l-86 -307h-424l-49 -170q-15 -51 41 -51h45q24 0 36 13t20 42l20 70h283l-21 -74q-49 -171 -134.5 -244
t-227.5 -73h-105zM422 690h141l35 125q15 55 -37 55h-49q-42 0 -55 -55z" />
    <glyph glyph-name="Edotaccent" unicode="&#x116;" horiz-adv-x="821" 
d="M526 1505l70 246h299l-70 -246h-299zM-47 0l409 1434h617l-82 -287h-313l-82 -287h291l-82 -287h-291l-82 -286h313l-82 -287h-616z" />
    <glyph glyph-name="edotaccent" unicode="&#x117;" horiz-adv-x="899" 
d="M479 1198l70 246h299l-70 -246h-299zM268 -10q-81 0 -138.5 28t-84 76t-32 112t17.5 136l135 477q50 171 136 244.5t228 73.5h105q160 0 219 -100t16 -253l-86 -307h-424l-49 -170q-15 -51 41 -51h45q24 0 36 13t20 42l20 70h283l-21 -74q-49 -171 -134.5 -244
t-227.5 -73h-105zM422 690h141l35 125q15 55 -37 55h-49q-42 0 -55 -55z" />
    <glyph glyph-name="Eogonek" unicode="&#x118;" horiz-adv-x="821" 
d="M-47 0l409 1434h617l-82 -287h-313l-82 -287h291l-82 -287h-291l-82 -286h313l-82 -287h-616zM311 -317v245h181l73 -245h-254z" />
    <glyph glyph-name="eogonek" unicode="&#x119;" horiz-adv-x="899" 
d="M268 -10q-81 0 -138.5 28t-84 76t-32 112t17.5 136l135 477q50 171 136 244.5t228 73.5h105q160 0 219 -100t16 -253l-86 -307h-424l-49 -170q-15 -51 41 -51h45q24 0 36 13t20 42l20 70h283l-21 -74q-49 -171 -134.5 -244t-227.5 -73h-105zM422 690h141l35 125
q15 55 -37 55h-49q-42 0 -55 -55zM330 -317v245h180l74 -245h-254z" />
    <glyph glyph-name="Ecaron" unicode="&#x11a;" horiz-adv-x="821" 
d="M571 1505l-133 246h232l39 -96l92 96h254l-273 -246h-211zM-47 0l409 1434h617l-82 -287h-313l-82 -287h291l-82 -287h-291l-82 -286h313l-82 -287h-616z" />
    <glyph glyph-name="ecaron" unicode="&#x11b;" horiz-adv-x="899" 
d="M524 1198l-133 246h232l39 -96l92 96h254l-273 -246h-211zM268 -10q-81 0 -138.5 28t-84 76t-32 112t17.5 136l135 477q50 171 136 244.5t228 73.5h105q160 0 219 -100t16 -253l-86 -307h-424l-49 -170q-15 -51 41 -51h45q24 0 36 13t20 42l20 70h283l-21 -74
q-49 -171 -134.5 -244t-227.5 -73h-105zM422 690h141l35 125q15 55 -37 55h-49q-42 0 -55 -55z" />
    <glyph glyph-name="Gbreve" unicode="&#x11e;" horiz-adv-x="1021" 
d="M666 1505q-94 0 -129 59t-9 148l11 39h204l-6 -20q-6 -26 1.5 -35.5t31.5 -9.5h51q21 0 31 11t16 36l4 18h205l-16 -59q-29 -100 -79 -143.5t-134 -43.5h-182zM279 -10q-81 0 -139 28t-84.5 76t-32 112t17.5 136l223 784q49 171 135 244.5t228 73.5h184q81 0 139 -28
t84.5 -76t32 -112t-17.5 -136l-56 -195h-301l62 213q15 55 -37 55h-92q-45 0 -58 -55l-231 -811q-15 -51 41 -51h112q24 0 36 13t20 42l51 178h-123l80 281h414l-217 -762h-205l-4 90q-95 -100 -226 -100h-36z" />
    <glyph glyph-name="gbreve" unicode="&#x11f;" 
d="M541 1198q-94 0 -129 59t-9 148l11 39h204l-6 -21q-6 -26 1.5 -35.5t31.5 -9.5h51q21 0 31 11t16 36l5 19h204l-16 -60q-29 -100 -79 -143t-134 -43h-182zM180 -317q-81 0 -138.5 28t-84 76t-32 112t17.5 136l4 14h297l-13 -45q-8 -27 1 -39t38 -12h58q24 0 36.5 13
t20.5 42l53 187q-47 -47 -97.5 -75t-92.5 -28h-12q-129 0 -174.5 100t-2.5 252l107 375q94 318 346 318h6q132 0 199 -113l59 102h225l-321 -1126q-49 -170 -135 -243.5t-228 -73.5h-137zM385 362h61q42 0 56 56l114 397q15 51 -41 51h-57q-24 0 -36.5 -13t-20.5 -42
l-113 -393q-15 -56 37 -56z" />
    <glyph glyph-name="Gdotaccent" unicode="&#x120;" horiz-adv-x="1021" 
d="M618 1505l70 246h299l-69 -246h-300zM279 -10q-81 0 -139 28t-84.5 76t-32 112t17.5 136l223 784q49 171 135 244.5t228 73.5h184q81 0 139 -28t84.5 -76t32 -112t-17.5 -136l-56 -195h-301l62 213q15 55 -37 55h-92q-45 0 -58 -55l-231 -811q-15 -51 41 -51h112
q24 0 36 13t20 42l51 178h-123l80 281h414l-217 -762h-205l-4 90q-95 -100 -226 -100h-36z" />
    <glyph glyph-name="gdotaccent" unicode="&#x121;" 
d="M494 1198l69 246h299l-69 -246h-299zM180 -317q-81 0 -138.5 28t-84 76t-32 112t17.5 136l4 14h297l-13 -45q-8 -27 1 -39t38 -12h58q24 0 36.5 13t20.5 42l53 187q-47 -47 -97.5 -75t-92.5 -28h-12q-129 0 -174.5 100t-2.5 252l107 375q94 318 346 318h6q132 0 199 -113
l59 102h225l-321 -1126q-49 -170 -135 -243.5t-228 -73.5h-137zM385 362h61q42 0 56 56l114 397q15 51 -41 51h-57q-24 0 -36.5 -13t-20.5 -42l-113 -393q-15 -56 37 -56z" />
    <glyph glyph-name="uni0122" unicode="&#x122;" horiz-adv-x="1021" 
d="M279 -10q-81 0 -139 28t-84.5 76t-32 112t17.5 136l223 784q49 171 135 244.5t228 73.5h184q81 0 139 -28t84.5 -76t32 -112t-17.5 -136l-56 -195h-301l62 213q15 55 -37 55h-92q-45 0 -58 -55l-231 -811q-15 -51 41 -51h112q24 0 36 13t20 42l51 178h-123l80 281h414
l-217 -762h-205l-4 90q-95 -100 -226 -100h-36zM193 -317v245h253l-73 -245h-180z" />
    <glyph glyph-name="uni0123" unicode="&#x123;" horiz-adv-x="874" 
d="M518 1200l144 246h180l-70 -246h-254zM180 -317q-81 0 -138.5 28t-84 76t-32 112t17.5 136l4 14h297l-13 -45q-8 -27 1 -39t38 -12h58q24 0 36.5 13t20.5 42l53 187q-47 -47 -97.5 -75t-92.5 -28h-12q-129 0 -174.5 100t-2.5 252l107 375q94 318 346 318h6
q132 0 199 -113l59 102h225l-321 -1126q-49 -170 -135 -243.5t-228 -73.5h-137zM385 362h61q42 0 56 56l114 397q15 51 -41 51h-57q-24 0 -36.5 -13t-20.5 -42l-113 -393q-15 -56 37 -56z" />
    <glyph glyph-name="Hbar" unicode="&#x126;" horiz-adv-x="1064" 
d="M-27 0l297 1040h-112l61 213h113l51 181h307l-51 -181h197l51 181h307l-51 -181h100l-61 -213h-101l-297 -1040h-307l164 573h-197l-163 -573h-308zM526 860h197l51 180h-196z" />
    <glyph glyph-name="hbar" unicode="&#x127;" horiz-adv-x="870" 
d="M-57 0l325 1143h-102l61 213h103l24 88h297l-24 -88h161l-61 -213h-162l-43 -152q47 48 98.5 76.5t94.5 28.5h12q129 0 174 -100.5t2 -252.5l-213 -743h-297l219 770q18 55 -34 55h-62q-23 0 -36 -14t-21 -41l-219 -770h-297z" />
    <glyph glyph-name="Imacron" unicode="&#x12a;" horiz-adv-x="532" 
d="M303 1526l57 205h480l-58 -205h-479zM-47 0l409 1434h308l-410 -1434h-307z" />
    <glyph glyph-name="imacron" unicode="&#x12b;" horiz-adv-x="450" 
d="M201 1219l57 204h479l-57 -204h-479zM-57 0l321 1126h297l-321 -1126h-297z" />
    <glyph glyph-name="Iogonek" unicode="&#x12e;" horiz-adv-x="532" 
d="M-47 0l409 1434h308l-410 -1434h-307zM-47 -317v245h180l74 -245h-254z" />
    <glyph glyph-name="iogonek" unicode="&#x12f;" horiz-adv-x="501" 
d="M285 1198l69 246h299l-69 -246h-299zM-57 0l321 1126h297l-321 -1126h-297zM-51 -317v245h180l74 -245h-254z" />
    <glyph glyph-name="Idotaccent" unicode="&#x130;" horiz-adv-x="532" 
d="M387 1505l70 246h299l-70 -246h-299zM-47 0l409 1434h308l-410 -1434h-307z" />
    <glyph glyph-name="dotlessi" unicode="&#x131;" horiz-adv-x="450" 
d="M-57 0l321 1126h297l-321 -1126h-297z" />
    <glyph glyph-name="uni0136" unicode="&#x136;" horiz-adv-x="983" 
d="M-47 0l409 1434h308l-164 -574h39l319 574h307l-401 -719l10 -715h-301v573h-55l-164 -573h-307zM215 -317v245h254l-74 -245h-180z" />
    <glyph glyph-name="uni0137" unicode="&#x137;" horiz-adv-x="884" 
d="M-57 0l411 1444h297l-211 -744h33l252 426h301l-344 -571l14 -555h-297l2 426h-41l-120 -426h-297zM199 -317v245h254l-74 -245h-180z" />
    <glyph glyph-name="Lacute" unicode="&#x139;" horiz-adv-x="790" 
d="M428 1505l156 246h288l-215 -246h-229zM-47 0l409 1434h308l-328 -1147h330l-82 -287h-637z" />
    <glyph glyph-name="lacute" unicode="&#x13a;" horiz-adv-x="501" 
d="M397 1516l156 245h289l-215 -245h-230zM-57 0l411 1444h297l-411 -1444h-297z" />
    <glyph glyph-name="uni013B" unicode="&#x13b;" horiz-adv-x="790" 
d="M-47 0l409 1434h308l-328 -1147h330l-82 -287h-637zM131 -317v245h254l-74 -245h-180z" />
    <glyph glyph-name="uni013C" unicode="&#x13c;" horiz-adv-x="501" 
d="M-57 0l411 1444h297l-411 -1444h-297zM-51 -317v245h254l-74 -245h-180z" />
    <glyph glyph-name="Lcaron" unicode="&#x13d;" horiz-adv-x="790" 
d="M-47 0l409 1434h308l-328 -1147h330l-82 -287h-637zM680 1106l92 328h277l-172 -328h-197z" />
    <glyph glyph-name="lcaron" unicode="&#x13e;" horiz-adv-x="757" 
d="M-57 0l411 1444h297l-411 -1444h-297zM662 1116l92 328h276l-172 -328h-196z" />
    <glyph glyph-name="Lslash" unicode="&#x141;" horiz-adv-x="790" 
d="M-47 0l131 459l-131 -66l67 240l134 65l208 736h308l-158 -555l252 127l-68 -240l-254 -127l-100 -352h330l-82 -287h-637z" />
    <glyph glyph-name="lslash" unicode="&#x142;" horiz-adv-x="573" 
d="M-37 0l187 653l-142 -63l62 213l141 63l164 578h297l-121 -422l178 80l-61 -213l-176 -80l-232 -809h-297z" />
    <glyph glyph-name="Nacute" unicode="&#x143;" horiz-adv-x="1064" 
d="M678 1505l156 246h288l-215 -246h-229zM-37 0l410 1434h286l46 -697h10l80 328l104 369h293l-410 -1434h-286l-45 696h-11l-80 -327l-104 -369h-293z" />
    <glyph glyph-name="nacute" unicode="&#x144;" 
d="M528 1198l156 246h289l-215 -246h-230zM-57 0l321 1126h225v-96q122 107 224 107h12q135 0 183.5 -100.5t4.5 -252.5l-223 -784h-297l232 811q15 55 -35 55h-62q-23 0 -36 -14t-21 -41l-231 -811h-297z" />
    <glyph glyph-name="uni0145" unicode="&#x145;" horiz-adv-x="1064" 
d="M-37 0l410 1434h286l46 -697h10l80 328l104 369h293l-410 -1434h-286l-45 696h-11l-80 -327l-104 -369h-293zM231 -317v245h254l-73 -245h-181z" />
    <glyph glyph-name="uni0146" unicode="&#x146;" 
d="M-57 0l321 1126h225v-96q122 107 224 107h12q135 0 183.5 -100.5t4.5 -252.5l-223 -784h-297l232 811q15 55 -35 55h-62q-23 0 -36 -14t-21 -41l-231 -811h-297zM170 -317v245h254l-74 -245h-180z" />
    <glyph glyph-name="Ncaron" unicode="&#x147;" horiz-adv-x="1064" 
d="M698 1505l-133 246h232l39 -96l92 96h254l-273 -246h-211zM-37 0l410 1434h286l46 -697h10l80 328l104 369h293l-410 -1434h-286l-45 696h-11l-80 -327l-104 -369h-293z" />
    <glyph glyph-name="ncaron" unicode="&#x148;" 
d="M549 1198l-133 246h231l39 -96l92 96h254l-272 -246h-211zM-57 0l321 1126h225v-96q122 107 224 107h12q135 0 183.5 -100.5t4.5 -252.5l-223 -784h-297l232 811q15 55 -35 55h-62q-23 0 -36 -14t-21 -41l-231 -811h-297z" />
    <glyph glyph-name="Eng" unicode="&#x14a;" horiz-adv-x="993" 
d="M260 -317l74 260h102q24 0 37 13t21 42l2 8l-45 690h-11l-80 -327l-104 -369h-293l410 1434h286l46 -697h10l80 328l104 369h293l-410 -1434q-49 -171 -134.5 -244t-227.5 -73h-160z" />
    <glyph glyph-name="eng" unicode="&#x14b;" horiz-adv-x="870" 
d="M201 -317l73 260h62q24 0 36.5 13t20.5 42l232 813q15 55 -35 55h-62q-23 0 -36 -14t-21 -41l-231 -811h-297l321 1126h225v-96q54 50 113.5 78.5t110.5 28.5h12q135 0 183.5 -100.5t4.5 -252.5l-223 -784q-49 -171 -134.5 -244t-227.5 -73h-127z" />
    <glyph glyph-name="Omacron" unicode="&#x14c;" horiz-adv-x="1015" 
d="M545 1526l57 205h479l-57 -205h-479zM279 -10q-81 0 -139 28t-84.5 76t-32 112t17.5 136l223 784q49 171 135 244.5t228 73.5h200q81 0 139 -28t84.5 -76t32 -112t-17.5 -136l-223 -785q-49 -170 -135 -243.5t-228 -73.5h-200zM381 268h100q24 0 37 13.5t21 42.5l225 786
q15 55 -37 55h-102q-45 0 -58 -55l-225 -791q-8 -27 1 -39t38 -12z" />
    <glyph glyph-name="omacron" unicode="&#x14d;" horiz-adv-x="931" 
d="M416 1219l57 204h479l-57 -204h-479zM268 -10q-81 0 -138.5 28t-84 76t-32 112t17.5 136l135 477q50 171 136 244.5t228 73.5h138q160 0 219 -100t16 -253l-135 -477q-49 -171 -134.5 -244t-227.5 -73h-138zM358 260h58q24 0 36.5 13t20.5 42l141 496q15 55 -34 55h-62
q-23 0 -36 -14t-21 -41l-144 -500q-6 -27 3 -39t38 -12z" />
    <glyph glyph-name="Ohungarumlaut" unicode="&#x150;" horiz-adv-x="1015" 
d="M467 1505l156 246h288l-215 -246h-229zM795 1505l155 246h289l-215 -246h-229zM279 -10q-81 0 -139 28t-84.5 76t-32 112t17.5 136l223 784q49 171 135 244.5t228 73.5h200q81 0 139 -28t84.5 -76t32 -112t-17.5 -136l-223 -785q-49 -170 -135 -243.5t-228 -73.5h-200z
M381 268h100q24 0 37 13.5t21 42.5l225 786q15 55 -37 55h-102q-45 0 -58 -55l-225 -791q-8 -27 1 -39t38 -12z" />
    <glyph glyph-name="ohungarumlaut" unicode="&#x151;" horiz-adv-x="931" 
d="M338 1198l156 246h288l-215 -246h-229zM666 1198l155 246h289l-215 -246h-229zM268 -10q-81 0 -138.5 28t-84 76t-32 112t17.5 136l135 477q50 171 136 244.5t228 73.5h138q160 0 219 -100t16 -253l-135 -477q-49 -171 -134.5 -244t-227.5 -73h-138zM358 260h58
q24 0 36.5 13t20.5 42l141 496q15 55 -34 55h-62q-23 0 -36 -14t-21 -41l-144 -500q-6 -27 3 -39t38 -12z" />
    <glyph glyph-name="OE" unicode="&#x152;" horiz-adv-x="1273" 
d="M281 0q-81 0 -139 28t-84.5 76t-32 112t17.5 136l219 764q49 171 135 244.5t228 73.5h807l-82 -287h-293l-82 -287h270l-82 -287h-270l-82 -286h293l-82 -287h-741zM385 287h123l246 860h-136q-24 0 -36.5 -13t-20.5 -42l-213 -750q-15 -55 37 -55z" />
    <glyph glyph-name="oe" unicode="&#x153;" horiz-adv-x="1337" 
d="M268 -10q-81 0 -138.5 28t-84 76t-32 112t17.5 136l135 477q50 171 136 244.5t228 73.5h117q105 0 137 -95q76 95 199 95h90q81 0 138.5 -28t83.5 -76t31.5 -112.5t-17.5 -136.5l-86 -307h-424l-49 -170q-15 -51 41 -51h45q24 0 35.5 13t19.5 42l20 70h283l-20 -74
q-49 -170 -135 -243.5t-228 -73.5h-104q-118 0 -162 96q-69 -96 -180 -96h-97zM860 690h141l35 125q15 55 -37 55h-49q-42 0 -55 -55zM358 260h58q24 0 36.5 13t20.5 42l141 496q15 55 -34 55h-62q-23 0 -36 -14t-21 -41l-144 -500q-6 -27 3 -39t38 -12z" />
    <glyph glyph-name="Racute" unicode="&#x154;" horiz-adv-x="980" 
d="M547 1505l155 246h289l-215 -246h-229zM-47 0l409 1434h441q81 0 138.5 -28t84 -76t32 -112.5t-17.5 -136.5l-59 -207q-65 -230 -209 -290l8 -584h-301v557h-59l-160 -557h-307zM494 817h122q24 0 37 13t21 42l63 226q15 55 -37 55h-110z" />
    <glyph glyph-name="racute" unicode="&#x155;" horiz-adv-x="843" 
d="M451 1198l155 246h289l-215 -246h-229zM-57 0l321 1126h225v-92q106 103 216 103h12q117 0 158.5 -89t3.5 -223l-66 -231h-270l61 217q15 55 -35 55h-41q-23 0 -36 -14t-21 -41l-231 -811h-297z" />
    <glyph glyph-name="uni0156" unicode="&#x156;" horiz-adv-x="980" 
d="M-47 0l409 1434h441q81 0 138.5 -28t84 -76t32 -112.5t-17.5 -136.5l-59 -207q-65 -230 -209 -290l8 -584h-301v557h-59l-160 -557h-307zM494 817h122q24 0 37 13t21 42l63 226q15 55 -37 55h-110zM207 -317v245h254l-74 -245h-180z" />
    <glyph glyph-name="uni0157" unicode="&#x157;" horiz-adv-x="843" 
d="M-57 0l321 1126h225v-92q106 103 216 103h12q117 0 158.5 -89t3.5 -223l-66 -231h-270l61 217q15 55 -35 55h-41q-23 0 -36 -14t-21 -41l-231 -811h-297zM-57 -317v245h254l-74 -245h-180z" />
    <glyph glyph-name="Rcaron" unicode="&#x158;" horiz-adv-x="980" 
d="M567 1505l-133 246h232l39 -96l92 96h254l-273 -246h-211zM-47 0l409 1434h441q81 0 138.5 -28t84 -76t32 -112.5t-17.5 -136.5l-59 -207q-65 -230 -209 -290l8 -584h-301v557h-59l-160 -557h-307zM494 817h122q24 0 37 13t21 42l63 226q15 55 -37 55h-110z" />
    <glyph glyph-name="rcaron" unicode="&#x159;" horiz-adv-x="843" 
d="M471 1198l-133 246h231l39 -96l92 96h254l-272 -246h-211zM-57 0l321 1126h225v-92q106 103 216 103h12q117 0 158.5 -89t3.5 -223l-66 -231h-270l61 217q15 55 -35 55h-41q-23 0 -36 -14t-21 -41l-231 -811h-297z" />
    <glyph glyph-name="Sacute" unicode="&#x15a;" horiz-adv-x="866" 
d="M555 1505l156 246h288l-215 -246h-229zM213 -10q-81 0 -139 28t-84.5 76t-32 112t17.5 136l52 184h292l-61 -221q-8 -27 1 -39t38 -12h104q24 0 37 12.5t21 42.5l20 70q26 90 -18 143l-197 238q-121 151 -78 299l19 67q50 174 135 246t227 72h166q81 0 139 -28t84.5 -76
t32 -112t-17.5 -136l-51 -183h-302l62 217q15 56 -37 56h-76q-40 0 -57 -56l-18 -67q-18 -54 -15.5 -81t35.5 -67l193 -239q118 -151 71 -316l-14 -49q-49 -170 -135 -243.5t-228 -73.5h-186z" />
    <glyph glyph-name="sacute" unicode="&#x15b;" horiz-adv-x="802" 
d="M459 1198l155 246h289l-215 -246h-229zM240 -10q-81 0 -139 28t-84.5 76t-32 112t17.5 136l23 84h260l-37 -131q-15 -55 35 -55h49q44 0 57 55l6 20q11 31 8 50.5t-26 44.5l-160 176q-61 67 -79 129.5t3 136.5l6 22q39 136 127.5 199.5t210.5 63.5h84q159 0 212.5 -99.5
t9.5 -253.5l-19 -67h-258l33 114q15 56 -35 56h-41q-40 0 -57 -56l-6 -24q-8 -23 -0.5 -43t34.5 -49l152 -166q52 -56 70 -133.5t-2 -132.5l-11 -41q-73 -252 -325 -252h-86z" />
    <glyph glyph-name="Scedilla" unicode="&#x15e;" horiz-adv-x="866" 
d="M213 -10q-81 0 -139 28t-84.5 76t-32 112t17.5 136l52 184h292l-61 -221q-8 -27 1 -39t38 -12h104q24 0 37 12.5t21 42.5l20 70q26 90 -18 143l-197 238q-121 151 -78 299l19 67q50 174 135 246t227 72h166q81 0 139 -28t84.5 -76t32 -112t-17.5 -136l-51 -183h-302
l62 217q15 56 -37 56h-76q-40 0 -57 -56l-18 -67q-18 -54 -15.5 -81t35.5 -67l193 -239q118 -151 71 -316l-14 -49q-49 -170 -135 -243.5t-228 -73.5h-186zM106 -317l74 245h180v-245h-254z" />
    <glyph glyph-name="scedilla" unicode="&#x15f;" horiz-adv-x="802" 
d="M240 -10q-81 0 -139 28t-84.5 76t-32 112t17.5 136l23 84h260l-37 -131q-15 -55 35 -55h49q44 0 57 55l6 20q11 31 8 50.5t-26 44.5l-160 176q-61 67 -79 129.5t3 136.5l6 22q39 136 127.5 199.5t210.5 63.5h84q159 0 212.5 -99.5t9.5 -253.5l-19 -67h-258l33 114
q15 56 -35 56h-41q-40 0 -57 -56l-6 -24q-8 -23 -0.5 -43t34.5 -49l152 -166q52 -56 70 -133.5t-2 -132.5l-11 -41q-73 -252 -325 -252h-86zM82 -317l74 245h180v-245h-254z" />
    <glyph glyph-name="Scaron" unicode="&#x160;" horiz-adv-x="866" 
d="M575 1505l-133 246h232l39 -96l92 96h254l-273 -246h-211zM213 -10q-81 0 -139 28t-84.5 76t-32 112t17.5 136l52 184h292l-61 -221q-8 -27 1 -39t38 -12h104q24 0 37 12.5t21 42.5l20 70q26 90 -18 143l-197 238q-121 151 -78 299l19 67q50 174 135 246t227 72h166
q81 0 139 -28t84.5 -76t32 -112t-17.5 -136l-51 -183h-302l62 217q15 56 -37 56h-76q-40 0 -57 -56l-18 -67q-18 -54 -15.5 -81t35.5 -67l193 -239q118 -151 71 -316l-14 -49q-49 -170 -135 -243.5t-228 -73.5h-186z" />
    <glyph glyph-name="scaron" unicode="&#x161;" horiz-adv-x="802" 
d="M479 1198l-133 246h232l38 -96l93 96h254l-273 -246h-211zM240 -10q-81 0 -139 28t-84.5 76t-32 112t17.5 136l23 84h260l-37 -131q-15 -55 35 -55h49q44 0 57 55l6 20q11 31 8 50.5t-26 44.5l-160 176q-61 67 -79 129.5t3 136.5l6 22q39 136 127.5 199.5t210.5 63.5h84
q159 0 212.5 -99.5t9.5 -253.5l-19 -67h-258l33 114q15 56 -35 56h-41q-40 0 -57 -56l-6 -24q-8 -23 -0.5 -43t34.5 -49l152 -166q52 -56 70 -133.5t-2 -132.5l-11 -41q-73 -252 -325 -252h-86z" />
    <glyph glyph-name="uni0162" unicode="&#x162;" horiz-adv-x="880" 
d="M127 0l328 1147h-246l82 287h799l-82 -287h-246l-328 -1147h-307zM33 -317l73 245h181v-245h-254z" />
    <glyph glyph-name="uni0163" unicode="&#x163;" horiz-adv-x="681" 
d="M348 0q-81 0 -138.5 28t-84 76t-32 112t17.5 136l143 504h-150l78 270h164l115 195h223l-55 -195h184l-78 -270h-184l-152 -534q-15 -52 41 -52h129l-77 -270h-144zM109 -317l73 245h180v-245h-253z" />
    <glyph glyph-name="Tcaron" unicode="&#x164;" horiz-adv-x="880" 
d="M606 1505l-133 246h232l38 -96l93 96h254l-273 -246h-211zM127 0l328 1147h-246l82 287h799l-82 -287h-246l-328 -1147h-307z" />
    <glyph glyph-name="tcaron" unicode="&#x165;" horiz-adv-x="827" 
d="M348 0q-81 0 -138.5 28t-84 76t-32 112t17.5 136l143 504h-150l78 270h164l115 195h223l-55 -195h104l90 318h277l-172 -328h-117l-76 -260h-184l-152 -534q-15 -52 41 -52h129l-77 -270h-144z" />
    <glyph glyph-name="Tbar" unicode="&#x166;" horiz-adv-x="808" 
d="M127 0l174 610h-184l61 213h184l93 324h-246l82 287h799l-82 -287h-246l-92 -324h192l-61 -213h-193l-174 -610h-307z" />
    <glyph glyph-name="tbar" unicode="&#x167;" horiz-adv-x="626" 
d="M348 0q-81 0 -138.5 28t-84 76t-32 112t17.5 136l30 105h-149l61 213h148l53 186h-150l78 270h164l115 195h223l-55 -195h184l-78 -270h-184l-53 -186h129l-62 -213h-127l-39 -135q-15 -52 41 -52h129l-77 -270h-144z" />
    <glyph glyph-name="Umacron" unicode="&#x16a;" horiz-adv-x="1036" 
d="M555 1526l57 205h480l-58 -205h-479zM289 -10q-81 0 -139 28t-84.5 76t-32 112t17.5 136l311 1092h308l-312 -1090q-21 -76 54 -76h61q35 0 53 19t31 61l309 1086h308l-322 -1127q-49 -170 -135 -243.5t-228 -73.5h-200z" />
    <glyph glyph-name="umacron" unicode="&#x16b;" 
d="M410 1219l57 204h479l-57 -204h-479zM221 -10q-135 0 -184 100t-6 252l223 784h297l-232 -811q-15 -55 35 -55h62q23 0 36 14t21 41l232 811h296l-321 -1126h-225v96q-52 -49 -111.5 -77.5t-110.5 -28.5h-12z" />
    <glyph glyph-name="Uring" unicode="&#x16e;" horiz-adv-x="1036" 
d="M782 1487q-75 0 -125.5 50.5t-50.5 125.5q0 74 50.5 124t125.5 50q72 0 122 -50.5t50 -123.5q0 -75 -50 -125.5t-122 -50.5zM782 1616q19 0 32 13.5t13 33.5t-13 33.5t-32 13.5q-22 0 -35.5 -13.5t-13.5 -33.5t13.5 -33.5t35.5 -13.5zM289 -10q-81 0 -139 28t-84.5 76
t-32 112t17.5 136l311 1092h308l-312 -1090q-21 -76 54 -76h61q35 0 53 19t31 61l309 1086h308l-322 -1127q-49 -170 -135 -243.5t-228 -73.5h-200z" />
    <glyph glyph-name="uring" unicode="&#x16f;" 
d="M637 1180q-75 0 -125.5 50.5t-50.5 125.5q0 74 50.5 124t125.5 50q72 0 122 -50.5t50 -123.5q0 -75 -50 -125.5t-122 -50.5zM637 1309q19 0 32 13.5t13 33.5t-13 33.5t-32 13.5q-22 0 -35.5 -13.5t-13.5 -33.5t13.5 -33.5t35.5 -13.5zM221 -10q-135 0 -184 100t-6 252
l223 784h297l-232 -811q-15 -55 35 -55h62q23 0 36 14t21 41l232 811h296l-321 -1126h-225v96q-52 -49 -111.5 -77.5t-110.5 -28.5h-12z" />
    <glyph glyph-name="Uhungarumlaut" unicode="&#x170;" horiz-adv-x="1036" 
d="M477 1505l156 246h289l-215 -246h-230zM805 1505l156 246h288l-215 -246h-229zM289 -10q-81 0 -139 28t-84.5 76t-32 112t17.5 136l311 1092h308l-312 -1090q-21 -76 54 -76h61q35 0 53 19t31 61l309 1086h308l-322 -1127q-49 -170 -135 -243.5t-228 -73.5h-200z" />
    <glyph glyph-name="uhungarumlaut" unicode="&#x171;" 
d="M332 1198l155 246h289l-215 -246h-229zM659 1198l156 246h289l-215 -246h-230zM221 -10q-135 0 -184 100t-6 252l223 784h297l-232 -811q-15 -55 35 -55h62q23 0 36 14t21 41l232 811h296l-321 -1126h-225v96q-52 -49 -111.5 -77.5t-110.5 -28.5h-12z" />
    <glyph glyph-name="Uogonek" unicode="&#x172;" horiz-adv-x="1036" 
d="M289 -10q-81 0 -139 28t-84.5 76t-32 112t17.5 136l311 1092h308l-312 -1090q-21 -76 54 -76h61q35 0 53 19t31 61l309 1086h308l-322 -1127q-49 -170 -135 -243.5t-228 -73.5h-200zM319 -317v245h181l73 -245h-254z" />
    <glyph glyph-name="uogonek" unicode="&#x173;" 
d="M221 -10q-135 0 -184 100t-6 252l223 784h297l-232 -811q-15 -55 35 -55h62q23 0 36 14t21 41l232 811h296l-321 -1126h-225v96q-52 -49 -111.5 -77.5t-110.5 -28.5h-12zM459 -317v245h180l74 -245h-254z" />
    <glyph glyph-name="Wcircumflex" unicode="&#x174;" horiz-adv-x="1331" 
d="M629 1505l272 246h211l133 -246h-231l-39 97l-92 -97h-254zM70 0l200 1434h297l-73 -514l-72 -367h8l313 719h222l-80 -719h8l147 381l209 500h312l-623 -1434h-326l62 594h-8l-271 -594h-325z" />
    <glyph glyph-name="wcircumflex" unicode="&#x175;" horiz-adv-x="1228" 
d="M489 1198l273 246h211l133 -246h-232l-38 96l-93 -96h-254zM43 0l150 1126h286l-80 -469l-45 -217h11l268 559h211l-43 -559h10l70 203l188 483h291l-490 -1126h-297l17 432h-10l-220 -432h-317z" />
    <glyph glyph-name="Ycircumflex" unicode="&#x176;" horiz-adv-x="946" 
d="M436 1505l273 246h211l133 -246h-232l-39 97l-92 -97h-254zM162 0l141 492l-33 942h316l-15 -320l-26 -274h10l285 594h336l-566 -938l-141 -496h-307z" />
    <glyph glyph-name="ycircumflex" unicode="&#x177;" horiz-adv-x="858" 
d="M307 1198l273 246h211l133 -246h-232l-39 96l-92 -96h-254zM-92 -317l74 262h92q27 0 40 7.5t21 24.5l62 1149h295l-64 -497l-45 -301h8l303 798h299l-512 -1151q-58 -128 -155 -210t-207 -82h-211z" />
    <glyph glyph-name="Ydieresis" unicode="&#x178;" horiz-adv-x="946" 
d="M442 1505l72 246h268l-69 -246h-271zM774 1505l72 246h268l-70 -246h-270zM162 0l141 492l-33 942h316l-15 -320l-26 -274h10l285 594h336l-566 -938l-141 -496h-307z" />
    <glyph glyph-name="Zacute" unicode="&#x179;" horiz-adv-x="901" 
d="M575 1505l156 246h289l-215 -246h-230zM-98 0l67 238l658 909h-381l82 287h729l-68 -238l-655 -909h418l-82 -287h-768z" />
    <glyph glyph-name="zacute" unicode="&#x17a;" horiz-adv-x="776" 
d="M432 1198l156 246h289l-215 -246h-230zM-117 0l64 231l512 625h-318l78 270h660l-66 -233l-508 -623h348l-78 -270h-692z" />
    <glyph glyph-name="Zdotaccent" unicode="&#x17b;" horiz-adv-x="901" 
d="M551 1505l70 246h299l-70 -246h-299zM-98 0l67 238l658 909h-381l82 287h729l-68 -238l-655 -909h418l-82 -287h-768z" />
    <glyph glyph-name="zdotaccent" unicode="&#x17c;" horiz-adv-x="776" 
d="M408 1198l69 246h299l-69 -246h-299zM-117 0l64 231l512 625h-318l78 270h660l-66 -233l-508 -623h348l-78 -270h-692z" />
    <glyph glyph-name="Zcaron" unicode="&#x17d;" horiz-adv-x="901" 
d="M596 1505l-133 246h231l39 -96l92 96h254l-272 -246h-211zM-98 0l67 238l658 909h-381l82 287h729l-68 -238l-655 -909h418l-82 -287h-768z" />
    <glyph glyph-name="zcaron" unicode="&#x17e;" horiz-adv-x="776" 
d="M453 1198l-134 246h232l39 -96l92 96h254l-272 -246h-211zM-117 0l64 231l512 625h-318l78 270h660l-66 -233l-508 -623h348l-78 -270h-692z" />
    <glyph glyph-name="uni0218" unicode="&#x218;" horiz-adv-x="866" 
d="M213 -10q-81 0 -139 28t-84.5 76t-32 112t17.5 136l52 184h292l-61 -221q-8 -27 1 -39t38 -12h104q24 0 37 12.5t21 42.5l20 70q26 90 -18 143l-197 238q-121 151 -78 299l19 67q50 174 135 246t227 72h166q81 0 139 -28t84.5 -76t32 -112t-17.5 -136l-51 -183h-302
l62 217q15 56 -37 56h-76q-40 0 -57 -56l-18 -67q-18 -54 -15.5 -81t35.5 -67l193 -239q118 -151 71 -316l-14 -49q-49 -170 -135 -243.5t-228 -73.5h-186zM125 -317v245h254l-74 -245h-180z" />
    <glyph glyph-name="uni0219" unicode="&#x219;" horiz-adv-x="802" 
d="M240 -10q-81 0 -139 28t-84.5 76t-32 112t17.5 136l23 84h260l-37 -131q-15 -55 35 -55h49q44 0 57 55l6 20q11 31 8 50.5t-26 44.5l-160 176q-61 67 -79 129.5t3 136.5l6 22q39 136 127.5 199.5t210.5 63.5h84q159 0 212.5 -99.5t9.5 -253.5l-19 -67h-258l33 114
q15 56 -35 56h-41q-40 0 -57 -56l-6 -24q-8 -23 -0.5 -43t34.5 -49l152 -166q52 -56 70 -133.5t-2 -132.5l-11 -41q-73 -252 -325 -252h-86zM100 -317v245h254l-73 -245h-181z" />
    <glyph glyph-name="uni021A" unicode="&#x21a;" horiz-adv-x="880" 
d="M127 0l328 1147h-246l82 287h799l-82 -287h-246l-328 -1147h-307zM139 -317v245h254l-74 -245h-180z" />
    <glyph glyph-name="uni021B" unicode="&#x21b;" horiz-adv-x="681" 
d="M348 0q-81 0 -138.5 28t-84 76t-32 112t17.5 136l143 504h-150l78 270h164l115 195h223l-55 -195h184l-78 -270h-184l-152 -534q-15 -52 41 -52h129l-77 -270h-144zM127 -317v245h254l-74 -245h-180z" />
    <glyph glyph-name="uni02BC" unicode="&#x2bc;" horiz-adv-x="471" 
d="M188 918l152 526h297l-219 -526h-230z" />
    <glyph glyph-name="circumflex" unicode="&#x2c6;" horiz-adv-x="860" 
d="M305 1198l273 246h210l134 -246h-232l-39 96l-92 -96h-254z" />
    <glyph glyph-name="caron" unicode="&#x2c7;" horiz-adv-x="860" 
d="M508 1198l-133 246h231l39 -96l92 96h254l-272 -246h-211z" />
    <glyph glyph-name="breve" unicode="&#x2d8;" horiz-adv-x="860" 
d="M541 1198q-94 0 -129 59t-9 148l11 39h204l-6 -21q-6 -26 1.5 -35.5t31.5 -9.5h51q21 0 31 11t16 36l5 19h204l-16 -60q-29 -100 -79 -143t-134 -43h-182z" />
    <glyph glyph-name="dotaccent" unicode="&#x2d9;" horiz-adv-x="860" 
d="M463 1198l69 246h299l-69 -246h-299z" />
    <glyph glyph-name="ring" unicode="&#x2da;" horiz-adv-x="860" 
d="M606 1180q-75 0 -125.5 50.5t-50.5 125.5q0 74 50.5 124t125.5 50q72 0 122 -50.5t50 -123.5q0 -75 -50 -125.5t-122 -50.5zM606 1309q19 0 32 13.5t13 33.5t-13 33.5t-32 13.5q-22 0 -35.5 -13.5t-13.5 -33.5t13.5 -33.5t35.5 -13.5z" />
    <glyph glyph-name="ogonek" unicode="&#x2db;" horiz-adv-x="860" 
d="M270 -317v245h181l73 -245h-254z" />
    <glyph glyph-name="tilde" unicode="&#x2dc;" horiz-adv-x="860" 
d="M354 1229l37 123q35 123 121 123q8 0 17 -1.5t21.5 -5t22 -7t29.5 -11t35 -12.5l61 -21q24 -8 31 -8t12 10l17 56h180l-35 -123q-38 -123 -123 -123q-23 0 -125 37l-43 16q-9 3 -20.5 7.5t-17 6.5t-7.5 2q-11 0 -16 -14l-16 -55h-181z" />
    <glyph glyph-name="hungarumlaut" unicode="&#x2dd;" horiz-adv-x="860" 
d="M301 1198l156 246h288l-215 -246h-229zM629 1198l155 246h289l-215 -246h-229z" />
    <glyph glyph-name="uni0326" unicode="&#x326;" horiz-adv-x="0" 
d="M-754 -317v245h254l-73 -245h-181z" />
    <glyph glyph-name="uni0401" unicode="&#x401;" horiz-adv-x="821" 
d="M375 1505l71 246h269l-70 -246h-270zM707 1505l71 246h269l-70 -246h-270zM-47 0l409 1434h617l-82 -287h-313l-82 -287h291l-82 -287h-291l-82 -286h313l-82 -287h-616z" />
    <glyph glyph-name="uni0404" unicode="&#x404;" horiz-adv-x="989" 
d="M279 -10q-81 0 -139 28t-84.5 76t-32 112t17.5 136l223 784q49 171 135 244.5t228 73.5h161q81 0 139 -28t84.5 -76t32 -112t-17.5 -136l-49 -172h-287l55 190q15 55 -36 55h-93q-44 0 -57 -55l-72 -252h215l-81 -285h-215l-72 -254q-8 -27 1 -39t38 -12h90
q24 0 36.5 13.5t20.5 42.5l53 188h287l-57 -205q-49 -171 -132.5 -244t-224.5 -73h-167z" />
    <glyph glyph-name="uni0406" unicode="&#x406;" horiz-adv-x="532" 
d="M-47 0l409 1434h308l-410 -1434h-307z" />
    <glyph glyph-name="uni0407" unicode="&#x407;" horiz-adv-x="532" 
d="M236 1505l71 246h268l-69 -246h-270zM567 1505l72 246h268l-69 -246h-271zM-47 0l409 1434h308l-410 -1434h-307z" />
    <glyph glyph-name="uni040E" unicode="&#x40e;" horiz-adv-x="872" 
d="M604 1505q-94 0 -128.5 59t-8.5 148l10 39h205l-6 -20q-6 -26 1.5 -35.5t31.5 -9.5h51q21 0 31 11t16 36l4 18h205l-17 -59q-29 -100 -79 -143.5t-134 -43.5h-182zM-6 0l84 291h121q25 0 37 10l16 1133h299l-45 -527l-39 -289h14l113 302l213 514h315l-506 -1041
q-57 -118 -95.5 -184.5t-85 -118t-95.5 -71t-117 -19.5h-229z" />
    <glyph glyph-name="uni0410" unicode="&#x410;" horiz-adv-x="948" 
d="M-109 0l553 1434h557l-258 -1434h-294l51 250h-228l-88 -250h-293zM371 528h184l125 623h-90z" />
    <glyph glyph-name="uni0411" unicode="&#x411;" horiz-adv-x="972" 
d="M-47 0l409 1434h707l-82 -287h-399l-70 -246h133q160 0 220 -99.5t18 -252.5l-68 -232q-49 -171 -134.5 -244t-227.5 -73h-506zM340 276h123q24 0 35.5 13t19.5 43l68 237q18 56 -37 56h-111z" />
    <glyph glyph-name="uni0412" unicode="&#x412;" horiz-adv-x="985" 
d="M-37 0l410 1434h430q81 0 138.5 -28t84 -76t32 -112.5t-17.5 -136.5l-24 -84q-55 -196 -166 -276q76 -91 27 -254l-43 -150q-49 -170 -135 -243.5t-228 -73.5h-508zM508 854h135q24 0 36.5 13t20.5 42l54 189q15 55 -37 55h-123zM342 272h135q24 0 37 13.5t21 42.5
l55 196q15 56 -37 56h-123z" />
    <glyph glyph-name="uni0413" unicode="&#x413;" horiz-adv-x="800" 
d="M-47 0l409 1434h648l-82 -287h-340l-328 -1147h-307z" />
    <glyph glyph-name="uni0414" unicode="&#x414;" horiz-adv-x="1093" 
d="M-199 -205l142 492h108q68 159 176 510l197 637h754l-328 -1147h135l-141 -492h-213v205h-477l-140 -205h-213zM340 287h203l245 862h-145l-108 -352q-95 -310 -195 -510z" />
    <glyph glyph-name="uni0415" unicode="&#x415;" horiz-adv-x="821" 
d="M-47 0l409 1434h617l-82 -287h-313l-82 -287h291l-82 -287h-291l-82 -286h313l-82 -287h-616z" />
    <glyph glyph-name="uni0416" unicode="&#x416;" horiz-adv-x="1507" 
d="M-47 0l409 1434h308l-164 -574h180l164 574h307l-164 -574h181l163 574h308l-410 -1434h-307l164 573h-181l-163 -573h-308l164 573h-180l-164 -573h-307z" />
    <glyph glyph-name="uni0417" unicode="&#x417;" horiz-adv-x="933" 
d="M248 -10q-81 0 -139 28t-84.5 76t-32 112t17.5 136l49 172h287l-55 -190q-15 -56 37 -56h92q43 0 57 56l58 200q15 51 -41 51h-160l82 285h174q23 0 36 14t21 41l55 199q8 27 -0.5 39t-37.5 12h-91q-24 0 -36.5 -13t-20.5 -42l-53 -188h-287l57 204q49 172 132.5 245
t224.5 73h164q81 0 138.5 -28t84 -76t32 -112t-17.5 -136l-39 -138q-30 -106 -64.5 -161t-92.5 -82q78 -81 30 -244l-45 -160q-49 -171 -134.5 -244t-227.5 -73h-170z" />
    <glyph glyph-name="uni0418" unicode="&#x418;" horiz-adv-x="1064" 
d="M-37 0l410 1434h293l-115 -402l-117 -356h10l461 758h287l-410 -1434h-293l115 401l117 357h-10l-461 -758h-287z" />
    <glyph glyph-name="uni0419" unicode="&#x419;" horiz-adv-x="1064" 
d="M709 1505q-94 0 -129 59t-9 148l11 39h204l-6 -20q-6 -26 1.5 -35.5t31.5 -9.5h51q21 0 31 11t16 36l4 18h205l-16 -59q-29 -100 -79 -143.5t-134 -43.5h-182zM-37 0l410 1434h293l-115 -402l-117 -356h10l461 758h287l-410 -1434h-293l115 401l117 357h-10l-461 -758
h-287z" />
    <glyph glyph-name="uni041A" unicode="&#x41a;" horiz-adv-x="983" 
d="M-47 0l409 1434h308l-164 -574h39l319 574h307l-401 -719l10 -715h-301v573h-55l-164 -573h-307z" />
    <glyph glyph-name="uni041B" unicode="&#x41b;" horiz-adv-x="1046" 
d="M-47 -4l-82 6l82 285h65q28 0 42 8t39 61.5t51 137t81 268.5l203 672h750l-410 -1434h-307l328 1147h-152l-143 -475q-109 -351 -146 -434q-62 -136 -155.5 -193.5t-245.5 -48.5z" />
    <glyph glyph-name="uni041C" unicode="&#x41c;" horiz-adv-x="1314" 
d="M-37 0l410 1434h293l43 -664l403 664h330l-410 -1434h-297l111 385l110 342h-10l-295 -489h-172l-16 489h-10l-82 -342l-111 -385h-297z" />
    <glyph glyph-name="uni041D" unicode="&#x41d;" horiz-adv-x="1036" 
d="M-47 0l409 1434h308l-164 -574h196l164 574h308l-410 -1434h-307l164 573h-197l-164 -573h-307z" />
    <glyph glyph-name="uni041E" unicode="&#x41e;" horiz-adv-x="1015" 
d="M279 -10q-81 0 -139 28t-84.5 76t-32 112t17.5 136l223 784q49 171 135 244.5t228 73.5h200q81 0 139 -28t84.5 -76t32 -112t-17.5 -136l-223 -785q-49 -170 -135 -243.5t-228 -73.5h-200zM381 268h100q24 0 37 13.5t21 42.5l225 786q15 55 -37 55h-102q-45 0 -58 -55
l-225 -791q-8 -27 1 -39t38 -12z" />
    <glyph glyph-name="uni041F" unicode="&#x41f;" horiz-adv-x="1036" 
d="M-47 0l409 1434h812l-410 -1434h-307l327 1147h-196l-328 -1147h-307z" />
    <glyph glyph-name="uni0420" unicode="&#x420;" horiz-adv-x="983" 
d="M-47 0l409 1434h451q81 0 139 -28t84.5 -76t32 -112.5t-17.5 -136.5l-66 -231q-50 -171 -136 -244.5t-228 -73.5h-209l-152 -532h-307zM489 805h134q24 0 36.5 13t20.5 42l68 238q15 55 -37 55h-121z" />
    <glyph glyph-name="uni0421" unicode="&#x421;" horiz-adv-x="989" 
d="M279 -10q-81 0 -139 28t-84.5 76t-32 112t17.5 136l223 784q49 171 135 244.5t228 73.5h184q81 0 139 -28t84.5 -76t32 -112t-17.5 -136l-78 -277h-301l84 295q15 55 -37 55h-92q-45 0 -58 -55l-225 -791q-8 -27 1 -39t38 -12h90q24 0 36.5 13.5t20.5 42.5l78 272h301
l-82 -289q-49 -172 -132 -244.5t-224 -72.5h-190z" />
    <glyph glyph-name="uni0422" unicode="&#x422;" horiz-adv-x="880" 
d="M127 0l328 1147h-246l82 287h799l-82 -287h-246l-328 -1147h-307z" />
    <glyph glyph-name="uni0423" unicode="&#x423;" horiz-adv-x="872" 
d="M78 291h121q25 0 37 10l16 1133h299l-45 -527l-39 -289h14l113 302l213 514h315l-506 -1041q-57 -118 -95.5 -184.5t-85 -118t-95.5 -71t-117 -19.5h-229z" />
    <glyph glyph-name="uni0424" unicode="&#x424;" horiz-adv-x="1421" 
d="M393 -20l45 159h-129q-160 0 -219 100t-16 253l153 538q49 171 135 244.5t228 73.5h192l43 147h303l-43 -147h132q81 0 138.5 -28t84 -76t32 -112.5t-17.5 -136.5l-154 -538q-50 -171 -136 -244.5t-228 -73.5h-195l-45 -159h-303zM414 426h106l182 635h-118
q-24 0 -37 -13t-21 -42l-149 -525q-15 -55 37 -55zM823 426h119q24 0 36.5 13t20.5 42l150 525q15 55 -37 55h-106z" />
    <glyph glyph-name="uni0425" unicode="&#x425;" horiz-adv-x="987" 
d="M-129 0l498 756l-76 678h295l28 -414h9l235 414h326l-463 -711l74 -723h-303l-25 418h-8l-246 -418h-344z" />
    <glyph glyph-name="uni0426" unicode="&#x426;" horiz-adv-x="1089" 
d="M627 -205v205h-674l409 1434h308l-328 -1147h197l327 1147h308l-328 -1147h135l-141 -492h-213z" />
    <glyph glyph-name="uni0427" unicode="&#x427;" horiz-adv-x="970" 
d="M391 0l152 530h-142q-81 0 -138.5 28t-84 76t-32 112.5t17.5 136.5l158 551h307l-160 -562q-15 -55 37 -55h119l176 617h307l-410 -1434h-307z" />
    <glyph glyph-name="uni0428" unicode="&#x428;" horiz-adv-x="1495" 
d="M-47 0l409 1434h308l-328 -1147h174l328 1147h307l-328 -1147h174l328 1147h307l-409 -1434h-1270z" />
    <glyph glyph-name="uni0429" unicode="&#x429;" horiz-adv-x="1548" 
d="M1085 -205v205h-1132l409 1434h308l-328 -1147h174l328 1147h307l-328 -1147h174l328 1147h307l-327 -1147h135l-142 -492h-213z" />
    <glyph glyph-name="uni042A" unicode="&#x42a;" horiz-adv-x="1112" 
d="M92 0l328 1147h-221l82 287h528l-152 -533h134q160 0 219.5 -99.5t17.5 -252.5l-67 -232q-49 -170 -135 -243.5t-228 -73.5h-506zM479 276h123q24 0 35.5 13t19.5 43l68 237q18 56 -37 56h-110z" />
    <glyph glyph-name="uni042B" unicode="&#x42b;" horiz-adv-x="1423" 
d="M-47 0l409 1434h308l-152 -533h133q160 0 220 -99.5t18 -252.5l-68 -232q-49 -171 -134.5 -244t-227.5 -73h-506zM844 0l409 1434h308l-410 -1434h-307zM340 276h123q24 0 35.5 13t19.5 43l68 237q18 56 -37 56h-111z" />
    <glyph glyph-name="uni042C" unicode="&#x42c;" horiz-adv-x="972" 
d="M-47 0l409 1434h308l-152 -533h133q160 0 220 -99.5t18 -252.5l-68 -232q-49 -171 -134.5 -244t-227.5 -73h-506zM340 276h123q24 0 35.5 13t19.5 43l68 237q18 56 -37 56h-111z" />
    <glyph glyph-name="uni042D" unicode="&#x42d;" horiz-adv-x="946" 
d="M248 -10q-81 0 -139 28t-84.5 76t-32 112t17.5 136l49 172h287l-55 -190q-15 -56 37 -56h92q43 0 57 56l72 251h-215l82 285h215l71 254q8 27 -0.5 39t-37.5 12h-91q-24 0 -36.5 -13t-20.5 -42l-53 -188h-279l58 204q49 172 132 245t224 73h160q81 0 138.5 -28t84 -76
t32 -112t-17.5 -136l-223 -785q-49 -171 -134.5 -244t-227.5 -73h-162z" />
    <glyph glyph-name="uni042E" unicode="&#x42e;" horiz-adv-x="1445" 
d="M739 -10q-81 0 -138.5 28t-84 76t-32 112t17.5 136l65 231h-143l-164 -573h-307l409 1434h308l-164 -574h143l76 266q49 171 134.5 244.5t227.5 73.5h170q81 0 139 -28t84.5 -76t32 -112t-17.5 -136l-223 -785q-49 -170 -135 -243.5t-228 -73.5h-170zM836 268h75
q24 0 37 13.5t21 42.5l225 786q15 55 -37 55h-78q-44 0 -57 -55l-225 -791q-8 -27 1 -39t38 -12z" />
    <glyph glyph-name="uni042F" unicode="&#x42f;" horiz-adv-x="991" 
d="M-137 0l393 608q-58 42 -75 116t9 161l68 231q49 171 135 244.5t228 73.5h507l-409 -1434h-307l149 522h-45l-323 -522h-330zM524 788h113l104 369h-125q-24 0 -35.5 -13t-19.5 -42l-74 -258q-15 -56 37 -56z" />
    <glyph glyph-name="uni0430" unicode="&#x430;" horiz-adv-x="862" 
d="M166 -10q-125 0 -173.5 89t-10.5 222l14 51q19 66 48.5 114t72.5 80t79 50.5t95 40.5l190 72q38 14 49 51l23 76q6 27 -3 39t-38 12h-41q-24 0 -36.5 -13.5t-20.5 -42.5l-27 -96h-266l22 84q50 171 136.5 244.5t228.5 73.5h90q81 0 138.5 -28t83.5 -76t31.5 -112.5
t-17.5 -136.5l-224 -784h-219v96q-114 -106 -207 -106h-18zM287 242h65q43 0 56 55l57 201l-123 -52q-21 -8 -32.5 -21t-18.5 -40l-27 -88q-7 -26 0 -40.5t23 -14.5z" />
    <glyph glyph-name="uni0431" unicode="&#x431;" horiz-adv-x="927" 
d="M268 -10q-81 0 -138.5 28t-84 76t-32 112t17.5 136l207 723q49 171 134.5 244t227.5 73l133 -2q24 0 35.5 13t19.5 43l3 8h296l-10 -37q-43 -157 -128.5 -225t-227.5 -68h-146q-23 0 -36 -14.5t-21 -44.5l-47 -158q111 111 205 111h12q86 0 136.5 -48t57 -126.5
t-19.5 -178.5l-98 -348q-49 -170 -135 -243.5t-228 -73.5h-133zM358 260h54q24 0 36.5 13t20.5 42l104 367q15 55 -34 55h-58q-23 0 -36 -14t-21 -41l-107 -371q-6 -27 3 -39t38 -12z" />
    <glyph glyph-name="uni0432" unicode="&#x432;" horiz-adv-x="872" 
d="M-57 0l321 1126h363q161 0 225 -86t27 -215l-13 -41q-41 -143 -166 -215q85 -96 45 -237l-12 -43q-82 -289 -354 -289h-436zM416 674h94q24 0 36.5 13t20.5 42l21 76q15 55 -35 55h-84zM299 266h94q24 0 37 13.5t21 42.5l20 75q18 56 -35 56h-84z" />
    <glyph glyph-name="uni0433" unicode="&#x433;" horiz-adv-x="716" 
d="M-57 0l321 1126h584l-78 -274h-287l-243 -852h-297z" />
    <glyph glyph-name="uni0434" unicode="&#x434;" horiz-adv-x="989" 
d="M745 -184h-225v184h-373l-124 -184h-226l131 454h103q72 153 141 383l143 473h693l-244 -856h113zM293 262h176l184 649h-121l-90 -288q-63 -200 -149 -361z" />
    <glyph glyph-name="uni0435" unicode="&#x435;" horiz-adv-x="899" 
d="M268 -10q-81 0 -138.5 28t-84 76t-32 112t17.5 136l135 477q50 171 136 244.5t228 73.5h105q160 0 219 -100t16 -253l-86 -307h-424l-49 -170q-15 -51 41 -51h45q24 0 36 13t20 42l20 70h283l-21 -74q-49 -171 -134.5 -244t-227.5 -73h-105zM422 690h141l35 125
q15 55 -37 55h-49q-42 0 -55 -55z" />
    <glyph glyph-name="uni0436" unicode="&#x436;" horiz-adv-x="1368" 
d="M-57 0l321 1126h297l-123 -428h137l123 428h295l-123 -428h138l122 428h297l-321 -1126h-297l123 428h-137l-123 -428h-295l123 428h-138l-122 -428h-297z" />
    <glyph glyph-name="uni0437" unicode="&#x437;" horiz-adv-x="819" 
d="M227 -10q-81 0 -138.5 28t-84 76t-32 112t17.5 136l26 92h256l-34 -119q-15 -55 34 -55h78q41 0 58 55l20 70q15 55 -37 55h-108l71 246h119q24 0 35.5 13t19.5 42l23 74q15 51 -41 51h-74q-24 0 -36.5 -13t-20.5 -42l-33 -117h-256l35 125q50 171 136 244.5t228 73.5h89
q161 0 222 -94.5t19 -237.5l-10 -39q-43 -143 -147 -215q69 -84 30 -219l-6 -25q-49 -171 -134.5 -244t-227.5 -73h-97z" />
    <glyph glyph-name="uni0438" unicode="&#x438;" horiz-adv-x="962" 
d="M-57 0l321 1126h283l-82 -288l-88 -265h10l358 553h277l-322 -1126h-282l82 289l88 264h-10l-359 -553h-276z" />
    <glyph glyph-name="uni0439" unicode="&#x439;" horiz-adv-x="962" 
d="M561 1198q-94 0 -128.5 59t-8.5 148l10 39h205l-6 -21q-6 -26 1.5 -35.5t31.5 -9.5h51q21 0 31 11t16 36l4 19h205l-17 -60q-29 -100 -79 -143t-134 -43h-182zM-57 0l321 1126h283l-82 -288l-88 -265h10l358 553h277l-322 -1126h-282l82 289l88 264h-10l-359 -553h-276z
" />
    <glyph glyph-name="uni043A" unicode="&#x43a;" horiz-adv-x="884" 
d="M-57 0l321 1126h297l-121 -426h33l252 426h301l-344 -571l14 -555h-297l2 426h-41l-120 -426h-297z" />
    <glyph glyph-name="uni043B" unicode="&#x43b;" horiz-adv-x="935" 
d="M-74 -4l-65 4l78 270h53q48 0 78 68t129 401l116 387h680l-321 -1126h-297l244 856h-111l-61 -205q-103 -336 -142 -420q-59 -133 -147 -187.5t-234 -47.5z" />
    <glyph glyph-name="uni043C" unicode="&#x43c;" horiz-adv-x="1187" 
d="M-47 0l321 1126h310l10 -528l309 528h344l-321 -1126h-277l96 334l107 321h-8l-271 -489h-172l-2 489h-8l-65 -321l-97 -334h-276z" />
    <glyph glyph-name="uni043D" unicode="&#x43d;" horiz-adv-x="952" 
d="M-57 0l321 1126h297l-121 -426h154l121 426h297l-322 -1126h-297l121 426h-154l-120 -426h-297z" />
    <glyph glyph-name="uni043E" unicode="&#x43e;" horiz-adv-x="931" 
d="M268 -10q-81 0 -138.5 28t-84 76t-32 112t17.5 136l135 477q50 171 136 244.5t228 73.5h138q160 0 219 -100t16 -253l-135 -477q-49 -171 -134.5 -244t-227.5 -73h-138zM358 260h58q24 0 36.5 13t20.5 42l141 496q15 55 -34 55h-62q-23 0 -36 -14t-21 -41l-144 -500
q-6 -27 3 -39t38 -12z" />
    <glyph glyph-name="uni043F" unicode="&#x43f;" horiz-adv-x="946" 
d="M-57 0l321 1126h742l-322 -1126h-297l244 856h-148l-243 -856h-297z" />
    <glyph glyph-name="uni0440" unicode="&#x440;" 
d="M-147 -317l411 1443h225v-96q122 107 224 107h12q135 0 183.5 -100.5t4.5 -252.5l-135 -477q-91 -317 -344 -317h-6q-108 0 -164 94l-114 -401h-297zM369 260h57q24 0 36.5 13t20.5 42l142 496q15 55 -35 55h-62q-23 0 -36 -14t-21 -41l-143 -500q-6 -27 3 -39t38 -12z
" />
    <glyph glyph-name="uni0441" unicode="&#x441;" horiz-adv-x="931" 
d="M268 -10q-81 0 -138.5 28t-84 76t-32 112t17.5 136l135 477q50 171 136 244.5t228 73.5h138q160 0 219 -100t16 -253l-41 -149h-297l49 176q15 55 -34 55h-62q-23 0 -36 -14t-21 -41l-144 -500q-6 -27 3 -39t38 -12h58q24 0 36.5 13t20.5 42l45 156h297l-47 -164
q-49 -171 -134.5 -244t-227.5 -73h-138z" />
    <glyph glyph-name="uni0442" unicode="&#x442;" horiz-adv-x="782" 
d="M84 0l244 852h-213l78 274h720l-77 -274h-213l-244 -852h-295z" />
    <glyph glyph-name="uni0443" unicode="&#x443;" horiz-adv-x="858" 
d="M-92 -317l74 262h92q27 0 40 7.5t21 24.5l62 1149h295l-64 -497l-45 -301h8l303 798h299l-512 -1151q-58 -128 -155 -210t-207 -82h-211z" />
    <glyph glyph-name="uni0444" unicode="&#x444;" horiz-adv-x="1363" 
d="M285 -317l116 407q-97 -100 -186 -100h-12q-85 0 -135 48t-56 126t19 178l135 477q94 318 342 318h6q103 0 160 -88l112 395h295l-116 -410q103 103 188 103h12q85 0 135 -48t55.5 -126.5t-20.5 -178.5l-135 -477q-91 -317 -340 -317h-6q-106 0 -162 90l-112 -397h-295z
M354 260h54q23 0 36 14t21 41l143 500q15 51 -41 51h-49q-24 0 -36.5 -13t-20.5 -42l-142 -496q-15 -55 35 -55zM799 260h49q24 0 36.5 13t20.5 42l142 496q15 55 -35 55h-54q-23 0 -36 -14t-21 -41l-143 -500q-6 -27 3 -39t38 -12z" />
    <glyph glyph-name="uni0445" unicode="&#x445;" horiz-adv-x="890" 
d="M-129 0l426 608l-88 518h280l33 -290h8l177 290h299l-394 -565l88 -561h-282l-33 299h-10l-182 -299h-322z" />
    <glyph glyph-name="uni0446" unicode="&#x446;" horiz-adv-x="968" 
d="M500 -184v184h-555l321 1126h297l-244 -856h127l244 856h297l-244 -856h113l-131 -454h-225z" />
    <glyph glyph-name="uni0447" unicode="&#x447;" horiz-adv-x="913" 
d="M354 0l111 389h-105q-160 0 -219.5 99.5t-17.5 252.5l110 385h293l-116 -407q-15 -55 36 -55h97l133 462h297l-322 -1126h-297z" />
    <glyph glyph-name="uni0448" unicode="&#x448;" horiz-adv-x="1363" 
d="M-57 0l321 1126h297l-244 -856h136l243 856h295l-243 -856h135l243 856h297l-321 -1126h-1159z" />
    <glyph glyph-name="uni0449" unicode="&#x449;" horiz-adv-x="1404" 
d="M936 -184v184h-993l321 1126h297l-244 -856h136l243 856h295l-243 -856h135l243 856h297l-243 -856h112l-131 -454h-225z" />
    <glyph glyph-name="uni044A" unicode="&#x44a;" horiz-adv-x="989" 
d="M55 0l244 852h-195l78 274h488l-117 -409h78q81 0 138.5 -28t84 -76t32 -112t-17.5 -136l-14 -48q-49 -171 -134.5 -244t-227.5 -73h-437zM422 258h82q24 0 36.5 13t20.5 42l33 115q15 55 -37 55h-72z" />
    <glyph glyph-name="uni044B" unicode="&#x44b;" horiz-adv-x="1288" 
d="M-57 0l321 1126h293l-117 -409h78q81 0 139 -28t84.5 -76t32 -112t-17.5 -136l-15 -48q-49 -171 -134.5 -244t-227.5 -73h-436zM729 0l322 1126h297l-322 -1126h-297zM309 258h82q24 0 37 13t21 42l32 115q15 55 -37 55h-71z" />
    <glyph glyph-name="uni044C" unicode="&#x44c;" horiz-adv-x="876" 
d="M-57 0l321 1126h293l-117 -409h78q81 0 139 -28t84.5 -76t32 -112t-17.5 -136l-15 -48q-49 -171 -134.5 -244t-227.5 -73h-436zM309 258h82q24 0 37 13t21 42l32 115q15 55 -37 55h-71z" />
    <glyph glyph-name="uni044D" unicode="&#x44d;" horiz-adv-x="870" 
d="M227 -10q-81 0 -138.5 28t-84 76t-32 112t17.5 136l26 92h275l-35 -119q-15 -55 35 -55h80q23 0 36 14t21 41l37 125h-164l72 246h162l36 129q15 51 -41 51h-75q-24 0 -37 -13t-21 -42l-32 -117h-267l35 125q50 171 136.5 244.5t228.5 73.5h108q81 0 138.5 -28t83.5 -76
t31.5 -112.5t-17.5 -136.5l-135 -477q-49 -170 -135 -243.5t-228 -73.5h-117z" />
    <glyph glyph-name="uni044E" unicode="&#x44e;" horiz-adv-x="1339" 
d="M698 -10q-81 0 -138.5 28t-84 76t-32 112t17.5 136l24 84h-125l-120 -426h-297l321 1126h297l-121 -426h123l33 119q50 171 136.5 244.5t228.5 73.5h114q81 0 138.5 -28t83.5 -76t31.5 -112.5t-17.5 -136.5l-135 -477q-49 -170 -135 -243.5t-228 -73.5h-115zM776 260h47
q24 0 37 13t21 42l141 496q15 55 -35 55h-51q-23 0 -36 -14t-21 -41l-144 -500q-6 -27 3 -39t38 -12z" />
    <glyph glyph-name="uni044F" unicode="&#x44f;" horiz-adv-x="903" 
d="M-133 0l315 477q-47 42 -60 108t9 142l25 82q49 171 134.5 244t227.5 73h445l-322 -1126h-287l107 375h-47l-234 -375h-313zM442 608h86l72 252h-96q-24 0 -37 -13t-21 -42l-38 -141q-18 -56 34 -56z" />
    <glyph glyph-name="uni0451" unicode="&#x451;" horiz-adv-x="899" 
d="M328 1198l71 246h269l-70 -246h-270zM659 1198l72 246h268l-69 -246h-271zM268 -10q-81 0 -138.5 28t-84 76t-32 112t17.5 136l135 477q50 171 136 244.5t228 73.5h105q160 0 219 -100t16 -253l-86 -307h-424l-49 -170q-15 -51 41 -51h45q24 0 36 13t20 42l20 70h283
l-21 -74q-49 -171 -134.5 -244t-227.5 -73h-105zM422 690h141l35 125q15 55 -37 55h-49q-42 0 -55 -55z" />
    <glyph glyph-name="uni0454" unicode="&#x454;" horiz-adv-x="870" 
d="M268 -10q-81 0 -138.5 28t-84 76t-32 112t17.5 136l135 477q50 171 136 244.5t228 73.5h117q81 0 138.5 -28t83.5 -76t31.5 -112.5t-17.5 -136.5l-25 -92h-274l32 119q15 55 -34 55h-80q-41 0 -58 -55l-34 -125h161l-71 -246h-162l-37 -129q-6 -27 3 -39t38 -12h76
q24 0 36.5 13t20.5 42l33 117h274l-34 -125q-49 -170 -135 -243.5t-228 -73.5h-117z" />
    <glyph glyph-name="uni0456" unicode="&#x456;" horiz-adv-x="501" 
d="M285 1198l69 246h299l-69 -246h-299zM-57 0l321 1126h297l-321 -1126h-297z" />
    <glyph glyph-name="uni0457" unicode="&#x457;" horiz-adv-x="450" 
d="M133 1198l72 246h268l-70 -246h-270zM465 1198l72 246h268l-70 -246h-270zM-57 0l321 1126h297l-321 -1126h-297z" />
    <glyph glyph-name="uni045E" unicode="&#x45e;" horiz-adv-x="858" 
d="M512 1198q-94 0 -128.5 59t-8.5 148l10 39h205l-6 -21q-6 -26 1 -35.5t31 -9.5h52q21 0 31 11t16 36l4 19h205l-17 -60q-29 -100 -79 -143t-134 -43h-182zM-92 -317l74 262h92q27 0 40 7.5t21 24.5l62 1149h295l-64 -497l-45 -301h8l303 798h299l-512 -1151
q-58 -128 -155 -210t-207 -82h-211z" />
    <glyph glyph-name="uni0490" unicode="&#x490;" horiz-adv-x="800" 
d="M-47 0l409 1434h375l117 204h213l-139 -491h-340l-328 -1147h-307z" />
    <glyph glyph-name="uni0491" unicode="&#x491;" horiz-adv-x="716" 
d="M-57 0l321 1126h285l127 185h223l-129 -459h-287l-243 -852h-297z" />
    <glyph glyph-name="Wgrave" unicode="&#x1e80;" horiz-adv-x="1331" 
d="M776 1505l-166 246h293l119 -246h-246zM70 0l200 1434h297l-73 -514l-72 -367h8l313 719h222l-80 -719h8l147 381l209 500h312l-623 -1434h-326l62 594h-8l-271 -594h-325z" />
    <glyph glyph-name="wgrave" unicode="&#x1e81;" horiz-adv-x="1228" 
d="M637 1198l-166 246h293l119 -246h-246zM43 0l150 1126h286l-80 -469l-45 -217h11l268 559h211l-43 -559h10l70 203l188 483h291l-490 -1126h-297l17 432h-10l-220 -432h-317z" />
    <glyph glyph-name="Wacute" unicode="&#x1e82;" horiz-adv-x="1331" 
d="M811 1505l156 246h288l-215 -246h-229zM70 0l200 1434h297l-73 -514l-72 -367h8l313 719h222l-80 -719h8l147 381l209 500h312l-623 -1434h-326l62 594h-8l-271 -594h-325z" />
    <glyph glyph-name="wacute" unicode="&#x1e83;" horiz-adv-x="1228" 
d="M672 1198l155 246h289l-215 -246h-229zM43 0l150 1126h286l-80 -469l-45 -217h11l268 559h211l-43 -559h10l70 203l188 483h291l-490 -1126h-297l17 432h-10l-220 -432h-317z" />
    <glyph glyph-name="Wdieresis" unicode="&#x1e84;" horiz-adv-x="1331" 
d="M635 1505l72 246h268l-70 -246h-270zM967 1505l71 246h269l-70 -246h-270zM70 0l200 1434h297l-73 -514l-72 -367h8l313 719h222l-80 -719h8l147 381l209 500h312l-623 -1434h-326l62 594h-8l-271 -594h-325z" />
    <glyph glyph-name="wdieresis" unicode="&#x1e85;" horiz-adv-x="1228" 
d="M496 1198l71 246h269l-70 -246h-270zM827 1198l72 246h268l-69 -246h-271zM43 0l150 1126h286l-80 -469l-45 -217h11l268 559h211l-43 -559h10l70 203l188 483h291l-490 -1126h-297l17 432h-10l-220 -432h-317z" />
    <glyph glyph-name="uni1E9E" unicode="&#x1e9e;" horiz-adv-x="1224" 
d="M-47 0l321 1126q49 171 135 244.5t228 73.5h713l-76 -266l-293 -293q121 -24 162.5 -119t3.5 -227l-66 -232q-49 -171 -134.5 -244t-227.5 -73h-68q-76 0 -129.5 28t-77 76t-27.5 112t19 136l37 133h238l-47 -164q-15 -55 38 -55h27q42 0 55 55l80 275q15 51 -41 51h-256
l60 211l311 313h-291q-35 0 -53 -19.5t-29 -60.5l-309 -1081h-303z" />
    <glyph glyph-name="Ygrave" unicode="&#x1ef2;" horiz-adv-x="946" 
d="M584 1505l-166 246h293l118 -246h-245zM162 0l141 492l-33 942h316l-15 -320l-26 -274h10l285 594h336l-566 -938l-141 -496h-307z" />
    <glyph glyph-name="ygrave" unicode="&#x1ef3;" horiz-adv-x="858" 
d="M455 1198l-166 246h293l118 -246h-245zM-92 -317l74 262h92q27 0 40 7.5t21 24.5l62 1149h295l-64 -497l-45 -301h8l303 798h299l-512 -1151q-58 -128 -155 -210t-207 -82h-211z" />
    <glyph glyph-name="endash" unicode="&#x2013;" horiz-adv-x="921" 
d="M66 502l75 266h758l-76 -266h-757z" />
    <glyph glyph-name="emdash" unicode="&#x2014;" horiz-adv-x="1310" 
d="M66 502l75 266h1147l-76 -266h-1146z" />
    <glyph glyph-name="quoteleft" unicode="&#x2018;" horiz-adv-x="471" 
d="M150 918l219 526h229l-152 -526h-296z" />
    <glyph glyph-name="quoteright" unicode="&#x2019;" horiz-adv-x="471" 
d="M188 918l152 526h297l-219 -526h-230z" />
    <glyph glyph-name="quotesinglbase" unicode="&#x201a;" horiz-adv-x="471" 
d="M-111 -184l152 526h297l-219 -526h-230z" />
    <glyph glyph-name="quotedblleft" unicode="&#x201c;" horiz-adv-x="860" 
d="M164 918l219 526h229l-151 -526h-297zM553 918l219 526h229l-151 -526h-297z" />
    <glyph glyph-name="quotedblright" unicode="&#x201d;" horiz-adv-x="860" 
d="M203 918l151 526h297l-219 -526h-229zM592 918l151 526h297l-219 -526h-229z" />
    <glyph glyph-name="quotedblbase" unicode="&#x201e;" horiz-adv-x="860" 
d="M-111 -184l152 526h297l-219 -526h-230zM279 -184l151 526h297l-219 -526h-229z" />
    <glyph glyph-name="dagger" unicode="&#x2020;" 
d="M184 0l252 885h-286l77 266h287l80 283h254l-80 -283h287l-78 -266h-287l-252 -885h-254z" />
    <glyph glyph-name="daggerdbl" unicode="&#x2021;" 
d="M184 0l80 283h-287l78 266h287l94 336h-286l77 266h287l80 283h254l-80 -283h287l-78 -266h-287l-94 -336h287l-78 -266h-287l-80 -283h-254z" />
    <glyph glyph-name="bullet" unicode="&#x2022;" horiz-adv-x="962" 
d="M496 369q-113 0 -190 77t-77 189t77 189t190 77q112 0 189 -76.5t77 -189.5t-77 -189.5t-189 -76.5z" />
    <glyph glyph-name="ellipsis" unicode="&#x2026;" horiz-adv-x="1331" 
d="M-57 0l98 342h317l-98 -342h-317zM414 0l98 342h317l-98 -342h-317zM885 0l98 342h317l-98 -342h-317z" />
    <glyph glyph-name="perthousand" unicode="&#x2030;" horiz-adv-x="1732" 
d="M342 821q-91 0 -132 57.5t-15 149.5l65 227q28 96 83 142.5t144 46.5h97q92 0 133.5 -57.5t15.5 -149.5l-65 -227q-55 -189 -226 -189h-100zM-63 0l1179 1434h197l-1180 -1434h-196zM399 987h56q14 0 18 4t8 23l70 237q3 15 -1.5 21t-21.5 6h-53q-12 0 -18.5 -6
t-10.5 -23l-67 -237q-4 -15 0.5 -20t19.5 -5zM664 -10q-92 0 -133 57.5t-15 149.5l66 227q28 96 83 142t142 46h98q93 0 134.5 -57t15.5 -149l-66 -228q-28 -96 -83 -142t-144 -46h-98zM1237 -10q-92 0 -132.5 57.5t-14.5 149.5l65 227q28 96 83 142t142 46h99
q92 0 133.5 -57t15.5 -149l-65 -228q-28 -96 -83.5 -142t-144.5 -46h-98zM721 156h55q12 0 16.5 4t8.5 22l69 238q3 15 -1 20.5t-19 5.5h-53q-14 0 -20.5 -5.5t-10.5 -22.5l-68 -238q-3 -14 1 -19t22 -5zM1294 156h56q12 0 16 4t8 22l70 238q3 15 -1.5 20.5t-19.5 5.5h-53
q-14 0 -20.5 -5.5t-10.5 -22.5l-67 -238q-3 -14 0.5 -19t21.5 -5z" />
    <glyph glyph-name="guilsinglleft" unicode="&#x2039;" horiz-adv-x="585" 
d="M180 299l-74 274l39 134l203 264h252l-260 -346l70 -326h-230z" />
    <glyph glyph-name="guilsinglright" unicode="&#x203a;" horiz-adv-x="585" 
d="M29 299l260 346l-70 326h230l73 -275l-37 -133l-204 -264h-252z" />
    <glyph glyph-name="Euro" unicode="&#x20ac;" horiz-adv-x="901" 
d="M332 -10q-81 0 -139 28t-84.5 76t-32 112t17.5 136l39 139h-121l54 185h120l29 102h-121l53 184h121l49 174q49 171 135 244.5t228 73.5h137q81 0 139 -28t84.5 -76t32 -112t-17.5 -136l-23 -82h-274l30 108q15 56 -36 56h-97q-40 0 -57 -56l-47 -166h283l-54 -184h-282
l-29 -102h283l-54 -185h-282l-45 -162q-8 -27 1 -39t38 -12h94q24 0 36.5 13.5t20.5 42.5l29 100h274l-33 -117q-49 -172 -132 -244.5t-224 -72.5h-143z" />
    <glyph glyph-name="uni20B4" unicode="&#x20b4;" 
d="M281 -10q-161 0 -230.5 70t-38.5 176l15 53q10 37 38 77.5t93 114.5h-109l53 185h226l94 102h-291l53 184h410l61 68q34 36 51.5 59t24.5 47l8 31q6 17 -1.5 25t-32.5 8h-99q-26 0 -39.5 -15t-23.5 -47l-23 -84h-284l22 82q49 171 135 244.5t228 73.5h118q63 0 113.5 -11
t83 -29.5t56 -43.5t32 -53t10.5 -58t-8 -59l-12 -45q-8 -30 -43 -75t-101 -118h134l-54 -184h-252l-94 -102h318l-54 -185h-434l-28 -30q-53 -56 -70 -115l-17 -55q-5 -17 3.5 -25t33.5 -8h113q29 0 43.5 15.5t24.5 49.5l20 76h264l-22 -82q-49 -170 -135 -243.5t-228 -73.5
h-155z" />
    <glyph glyph-name="uni20BD" unicode="&#x20bd;" horiz-adv-x="985" 
d="M23 0l79 276h-172l52 185h172l30 102h-172l51 185h173l196 686h406q81 0 138.5 -28t84 -76t32 -112.5t-17.5 -136.5l-57 -200q-49 -171 -135 -244.5t-228 -73.5h-188l-31 -102h355l-52 -185h-354l-80 -276h-282zM535 805h133q24 0 36.5 13t20.5 42l68 238q15 55 -37 55
h-121z" />
    <glyph glyph-name="uni2116" unicode="&#x2116;" horiz-adv-x="1540" 
d="M1282 793q-85 0 -122 53.5t-11 140.5l78 277q52 180 209 180h110q85 0 123.5 -54.5t13.5 -140.5l-77 -276q-52 -180 -213 -180h-111zM-43 0l410 1434h272l33 -697h10l80 328l104 369h279l-410 -1434h-272l-33 696h-10l-80 -327l-104 -369h-279zM1348 977h59q9 0 12 10
l74 262q2 7 0 9t-12 2h-58q-6 0 -10 -11l-74 -262q-3 -10 9 -10zM1032 510l58 201h417l-57 -201h-418z" />
    <glyph glyph-name="trademark" unicode="&#x2122;" horiz-adv-x="972" 
d="M238 881l118 417h-104l39 136h354l-39 -136h-104l-119 -417h-145zM557 881l158 553h151l4 -260l152 260h170l-158 -553h-135l45 163l53 158h-4l-133 -239h-84v239h-4l-33 -158l-47 -163h-135z" />
    <glyph glyph-name="minus" unicode="&#x2212;" 
d="M88 512l72 246h737l-72 -246h-737z" />
    <glyph glyph-name="approxequal" unicode="&#x2248;" 
d="M109 612l63 228q35 122 87.5 174.5t139.5 52.5q54 0 86 -16.5t74 -57.5l72 -73q3 -2 13 -12.5t19 -19.5t11 -9q3 0 6 12l51 176h244l-66 -227q-34 -122 -86 -175t-139 -53q-54 0 -87 17t-73 57l-73 74l-6 8q-6 7 -13 14.5t-13.5 14t-8.5 6.5q-1 0 -7 -6l-51 -185h-243z
M-33 121l64 227q35 122 87.5 174.5t139.5 52.5q54 0 86 -16.5t74 -56.5l71 -74q3 -2 13 -12.5t19 -19.5t11 -9q4 0 7 12l51 176h244l-66 -227q-34 -122 -86 -174.5t-139 -52.5q-54 0 -87 17t-73 57l-74 73l-6 8q-6 7 -13 14.5t-13.5 14t-8.5 6.5l-6 -6l-51 -184h-244z" />
    <glyph glyph-name="notequal" unicode="&#x2260;" 
d="M39 102l117 205h-125l69 246h195l92 164h-240l70 246h309l92 163h275l-92 -163h153l-69 -246h-223l-93 -164h269l-70 -246h-338l-117 -205h-274z" />
    <glyph glyph-name="lessequal" unicode="&#x2264;" 
d="M752 328l-615 282l66 234l778 282l-82 -284l-369 -131l295 -131zM-76 0l72 246h737l-71 -246h-738z" />
    <glyph glyph-name="greaterequal" unicode="&#x2265;" 
d="M55 326l82 284l369 131l-295 131l74 252l614 -282l-65 -234zM-37 0l72 246h737l-72 -246h-737z" />
    <glyph glyph-name="i.loclTRK" horiz-adv-x="450" 
d="M285 1198l69 246h299l-69 -246h-299zM-57 0l321 1126h297l-321 -1126h-297z" />
    <glyph glyph-name="a.ss01" 
d="M221 -10q-135 0 -184 100t-6 252l135 477q94 318 346 318h6q132 0 199 -113l59 102h225l-321 -1126h-225v96q-52 -49 -111.5 -77.5t-110.5 -28.5h-12zM354 260h62q23 0 36 14t21 41l143 500q15 51 -41 51h-57q-24 0 -36.5 -13t-20.5 -42l-142 -496q-15 -55 35 -55z" />
    <glyph glyph-name="zero.osf" 
d="M268 -10q-81 0 -138.5 28t-84 76t-32 112t17.5 136l135 477q50 171 136 244.5t228 73.5h148q160 0 219 -100t16 -253l-135 -477q-49 -171 -134.5 -244t-227.5 -73h-148zM379 256h29q35 0 52.5 19t28.5 61l132 459q21 75 -56 75h-28q-35 0 -53 -19t-29 -60l-131 -459
q-21 -76 55 -76z" />
    <glyph glyph-name="one.osf" horiz-adv-x="630" 
d="M66 0l241 844h-172l80 282h469l-322 -1126h-296z" />
    <glyph glyph-name="two.osf" 
d="M-57 0l34 125q29 99 64 163.5t104 110.5l435 293q48 34 63 86l6 25q11 39 -1.5 57.5t-51.5 18.5h-53q-35 0 -53 -19t-31 -61l-29 -105h-289l35 125q50 171 136.5 244.5t228.5 73.5h143q161 0 222.5 -94.5t19.5 -237.5l-8 -31q-47 -162 -187 -254l-356 -231q-10 -5 -13 -8
h410l-80 -281h-749z" />
    <glyph glyph-name="three.osf" horiz-adv-x="901" 
d="M178 -317q-81 0 -138.5 28t-84 76t-32 112t17.5 136l45 160h270l-51 -179q-21 -75 55 -75h45q35 0 53 19t29 60l49 175q11 39 -1.5 57t-51.5 18h-104l79 283h111q35 0 53 19.5t29 60.5l49 170q21 76 -55 76h-35q-35 0 -53 -19.5t-29 -60.5l-39 -142h-270l45 162
q49 171 134.5 244.5t227.5 73.5h123q160 0 220 -100t18 -253l-43 -161q-42 -152 -170 -213q97 -72 55 -217l-55 -193q-49 -170 -135 -243.5t-228 -73.5h-133z" />
    <glyph glyph-name="four.osf" horiz-adv-x="905" 
d="M248 -307l74 256h-449l70 248l665 929h324l-262 -917h135l-74 -260h-135l-74 -256h-274zM231 209h164l68 240l84 243h-10z" />
    <glyph glyph-name="five.osf" horiz-adv-x="903" 
d="M180 -317q-81 0 -138.5 28t-84 76t-32 112t17.5 136l51 180h289l-58 -201q-11 -39 2 -57t52 -18h28q35 0 53 19t29 60l103 355q21 76 -56 76h-18q-18 0 -30.5 -4.5t-23.5 -17.5t-17 -23t-19 -35h-283l244 757h672l-80 -282h-414l-72 -217q107 78 199 78h27
q114 0 164 -83.5t12 -215.5l-115 -406q-49 -170 -135 -243.5t-228 -73.5h-139z" />
    <glyph glyph-name="six.osf" horiz-adv-x="917" 
d="M295 -10q-81 0 -139 28t-84.5 76t-32 112t17.5 136l224 784q49 171 134.5 244.5t227.5 73.5h129q81 0 139 -28t84.5 -76t32 -112t-17.5 -136l-25 -86h-266l26 92q11 39 -1.5 57.5t-51.5 18.5h-59q-35 0 -53 -19.5t-29 -60.5l-74 -256q86 77 176 77h54q114 0 162 -83
t10 -216l-88 -309q-49 -170 -135 -243.5t-228 -73.5h-133zM393 260h27q35 0 53 19.5t29 60.5l76 262q21 76 -56 76h-30q-35 0 -53 -19t-31 -61l-74 -262q-11 -39 2.5 -57.5t56.5 -18.5z" />
    <glyph glyph-name="seven.osf" horiz-adv-x="821" 
d="M-139 -307l690 1151h-426l80 282h731l-62 -225l-692 -1208h-321z" />
    <glyph glyph-name="eight.osf" 
d="M268 -10q-161 0 -220.5 99.5t-16.5 252.5l45 160q28 100 67.5 148.5t106.5 74.5q-79 76 -41 207l55 194q50 172 135.5 245t227.5 73h127q81 0 138.5 -28t84 -76t32 -112t-17.5 -136l-45 -160q-27 -95 -63.5 -143.5t-96.5 -73.5q88 -82 48 -213l-56 -195
q-49 -171 -134.5 -244t-227.5 -73h-148zM543 842h32q35 0 53 19t31 61l54 188q21 76 -56 76h-32q-35 0 -53 -19.5t-29 -60.5l-54 -188q-21 -76 54 -76zM377 248h29q35 0 52.5 19t28.5 61l54 188q21 76 -54 76h-28q-35 0 -53 -19t-31 -61l-53 -188q-21 -76 55 -76z" />
    <glyph glyph-name="nine.osf" horiz-adv-x="917" 
d="M147 -317q-81 0 -138.5 28t-84 76t-32 112t17.5 136l24 86h267l-27 -92q-11 -39 1.5 -57.5t51.5 -18.5h60q35 0 53 19.5t29 60.5l73 256q-87 -78 -176 -78h-53q-114 0 -162 83t-10 216l88 309q49 171 135 244.5t228 73.5h133q81 0 138.5 -28t84 -76t32 -112.5
t-17.5 -136.5l-223 -784q-49 -170 -135 -243.5t-228 -73.5h-129zM397 449h31q35 0 53 19t31 60l74 263q11 39 -3 57t-57 18h-26q-35 0 -53 -19.5t-29 -60.5l-76 -262q-21 -75 55 -75z" />
    <glyph glyph-name="zero.tf" 
d="M268 -10q-81 0 -138.5 28t-84 76t-32 112t17.5 136l223 784q49 171 134.5 244.5t227.5 73.5h148q81 0 138.5 -28t84 -76t32 -112t-17.5 -136l-223 -785q-49 -171 -134.5 -244t-227.5 -73h-148zM379 256h29q35 0 52.5 19t28.5 61l220 766q21 76 -56 76h-28
q-35 0 -53 -19.5t-29 -60.5l-219 -766q-21 -76 55 -76z" />
    <glyph glyph-name="one.tf" 
d="M-47 0l80 283h215l250 868h-215l79 283h512l-329 -1151h225l-80 -283h-737z" />
    <glyph glyph-name="two.tf" 
d="M-53 0l67 238q46 157 166 274l463 446q41 41 55 89l19 63q21 76 -55 76h-35q-35 0 -53 -19.5t-29 -60.5l-47 -164h-283l53 184q49 171 135 244.5t228 73.5h135q81 0 139 -28t84.5 -76t32 -112t-17.5 -136l-17 -62q-35 -120 -135 -217l-457 -444q-42 -42 -51 -78l-4 -8
h432l-80 -283h-745z" />
    <glyph glyph-name="three.tf" 
d="M256 -10q-81 0 -139 28t-84.5 76t-32 112t17.5 136l45 160h271l-51 -178q-21 -76 55 -76h45q35 0 53 19.5t29 60.5l49 174q11 39 -1.5 57.5t-51.5 18.5h-105l80 282h111q35 0 53 19.5t29 60.5l49 170q21 76 -55 76h-35q-35 0 -53 -19.5t-29 -60.5l-39 -141h-270l45 161
q49 171 134.5 244.5t227.5 73.5h123q160 0 220 -99.5t18 -252.5l-43 -162q-42 -152 -170 -213q97 -72 55 -217l-55 -193q-49 -170 -135 -243.5t-228 -73.5h-133z" />
    <glyph glyph-name="four.tf" 
d="M340 0l74 256h-469l69 248l686 930h324l-262 -918h135l-74 -260h-135l-74 -256h-274zM303 516h184l68 240l84 243h-10z" />
    <glyph glyph-name="five.tf" 
d="M276 -10q-81 0 -138.5 28t-84 76t-32 112t17.5 136l51 180h289l-57 -200q-11 -39 1.5 -57.5t51.5 -18.5h28q35 0 53 19.5t29 60.5l103 354q21 76 -56 76h-18q-18 0 -30.5 -4.5t-23.5 -17.5t-17 -23t-19 -35h-283l244 758h672l-80 -283h-414l-71 -217q107 78 198 78h27
q114 0 164 -83.5t12 -215.5l-115 -406q-49 -171 -134.5 -244t-227.5 -73h-140z" />
    <glyph glyph-name="six.tf" 
d="M281 -10q-81 0 -139 28t-84.5 76t-32 112t17.5 136l223 784q49 171 135 244.5t228 73.5h129q81 0 138.5 -28t84 -76t32 -112t-17.5 -136l-24 -86h-266l26 92q11 39 -1.5 57.5t-51.5 18.5h-60q-35 0 -52.5 -19t-28.5 -61l-74 -256q86 77 176 77h53q114 0 162 -83t10 -216
l-88 -309q-49 -171 -134.5 -244t-227.5 -73h-133zM379 260h27q35 0 52.5 19t28.5 61l76 262q21 76 -55 76h-31q-35 0 -53 -19t-31 -61l-74 -262q-11 -39 3 -57.5t57 -18.5z" />
    <glyph glyph-name="seven.tf" 
d="M-4 0l727 1151h-463l80 283h772l-61 -226l-734 -1208h-321z" />
    <glyph glyph-name="eight.tf" 
d="M268 -10q-161 0 -220.5 99.5t-16.5 252.5l45 160q28 100 67.5 148.5t106.5 74.5q-79 76 -41 207l55 194q50 172 135.5 245t227.5 73h127q81 0 138.5 -28t84 -76t32 -112t-17.5 -136l-45 -160q-27 -95 -63.5 -143.5t-96.5 -73.5q88 -82 48 -213l-56 -195
q-49 -171 -134.5 -244t-227.5 -73h-148zM543 842h32q35 0 53 19t31 61l54 188q21 76 -56 76h-32q-35 0 -53 -19.5t-29 -60.5l-54 -188q-21 -76 54 -76zM377 248h29q35 0 52.5 19t28.5 61l54 188q21 76 -54 76h-28q-35 0 -53 -19t-31 -61l-53 -188q-21 -76 55 -76z" />
    <glyph glyph-name="nine.tf" 
d="M274 -10q-81 0 -138.5 28t-84 76t-32 112t17.5 136l24 86h267l-27 -92q-11 -39 1.5 -57.5t51.5 -18.5h60q35 0 53 19.5t29 60.5l73 256q-87 -78 -176 -78h-53q-114 0 -162 83t-10 216l88 309q49 171 134.5 244.5t227.5 73.5h134q81 0 138.5 -28t84 -76t32 -112
t-17.5 -136l-223 -785q-49 -170 -135 -243.5t-228 -73.5h-129zM524 756h31q35 0 53 19t31 61l74 262q11 39 -3 57.5t-57 18.5h-26q-35 0 -53 -19.5t-29 -60.5l-76 -263q-21 -75 55 -75z" />
    <glyph glyph-name="zero.tosf" 
d="M268 -10q-81 0 -138.5 28t-84 76t-32 112t17.5 136l135 477q50 171 136 244.5t228 73.5h148q160 0 219 -100t16 -253l-135 -477q-49 -171 -134.5 -244t-227.5 -73h-148zM379 256h29q35 0 52.5 19t28.5 61l132 459q21 75 -56 75h-28q-35 0 -53 -19t-29 -60l-131 -459
q-21 -76 55 -76z" />
    <glyph glyph-name="one.tosf" 
d="M-47 0l80 283h215l162 561h-215l79 282h512l-241 -843h225l-80 -283h-737z" />
    <glyph glyph-name="two.tosf" 
d="M-57 0l34 125q29 99 64 163.5t104 110.5l435 293q48 34 63 86l6 25q11 39 -1.5 57.5t-51.5 18.5h-53q-35 0 -53 -19t-31 -61l-29 -105h-289l35 125q50 171 136.5 244.5t228.5 73.5h143q161 0 222.5 -94.5t19.5 -237.5l-8 -31q-47 -162 -187 -254l-356 -231q-10 -5 -13 -8
h410l-80 -281h-749z" />
    <glyph glyph-name="three.tosf" 
d="M168 -317q-81 0 -139 28t-84.5 76t-32 112t17.5 136l45 160h271l-51 -179q-21 -75 55 -75h45q35 0 53 19t29 60l49 175q11 39 -1.5 57t-51.5 18h-105l80 283h111q35 0 53 19.5t29 60.5l49 170q21 76 -55 76h-35q-35 0 -53 -19.5t-29 -60.5l-39 -142h-270l45 162
q49 171 134.5 244.5t227.5 73.5h123q160 0 220 -100t18 -253l-43 -161q-42 -152 -170 -213q97 -72 55 -217l-55 -193q-49 -170 -135 -243.5t-228 -73.5h-133z" />
    <glyph glyph-name="four.tosf" 
d="M252 -307l74 256h-469l69 248l686 929h324l-262 -917h135l-74 -260h-135l-74 -256h-274zM215 209h184l68 240l84 243h-10z" />
    <glyph glyph-name="five.tosf" 
d="M188 -317q-81 0 -138.5 28t-84 76t-32 112t17.5 136l51 180h289l-58 -201q-11 -39 2 -57t52 -18h28q35 0 53 19t29 60l103 355q21 76 -56 76h-18q-18 0 -30.5 -4.5t-23.5 -17.5t-17 -23t-19 -35h-283l244 757h672l-80 -282h-414l-72 -217q107 78 199 78h27
q114 0 164 -83.5t12 -215.5l-115 -406q-49 -171 -134.5 -244t-227.5 -73h-140z" />
    <glyph glyph-name="six.tosf" 
d="M193 -317q-81 0 -139 28t-84.5 76t-32 112t17.5 136l223 784q49 171 135 244.5t228 73.5h129q81 0 138.5 -28t84 -76t32 -112.5t-17.5 -136.5l-24 -86h-267l27 93q11 39 -1.5 57t-51.5 18h-60q-35 0 -52.5 -19t-28.5 -61l-74 -256q87 78 176 78h53q114 0 162 -83t10 -216
l-88 -309q-49 -171 -134.5 -244t-227.5 -73h-133zM291 -47h26q35 0 53 19.5t29 60.5l76 262q21 76 -55 76h-31q-35 0 -53 -19t-31 -61l-74 -262q-11 -39 3 -57.5t57 -18.5z" />
    <glyph glyph-name="seven.tosf" 
d="M-92 -307l727 1151h-463l80 282h772l-61 -225l-734 -1208h-321z" />
    <glyph glyph-name="eight.tosf" 
d="M180 -317q-161 0 -220.5 99.5t-16.5 252.5l45 160q28 100 67.5 148.5t106.5 74.5q-79 76 -41 207l55 194q50 172 135.5 245t227.5 73h127q81 0 138.5 -28t84 -76t32 -112.5t-17.5 -136.5l-45 -159q-27 -95 -63.5 -143.5t-96.5 -73.5q87 -81 47 -213l-55 -195
q-49 -171 -134.5 -244t-227.5 -73h-148zM455 535h32q35 0 53 19t31 60l54 189q21 76 -56 76h-32q-35 0 -53 -19.5t-29 -60.5l-54 -189q-11 -39 2 -57t52 -18zM289 -59h28q35 0 53 19t29 60l54 189q21 76 -54 76h-28q-35 0 -53 -19t-31 -61l-54 -189q-21 -75 56 -75z" />
    <glyph glyph-name="nine.tosf" 
d="M186 -317q-81 0 -138.5 28t-84 76t-32 112t17.5 136l24 86h267l-27 -92q-11 -39 1.5 -57.5t51.5 -18.5h60q35 0 53 19.5t29 60.5l73 256q-87 -78 -176 -78h-53q-114 0 -162 83t-10 216l88 309q49 171 134.5 244.5t227.5 73.5h134q81 0 138.5 -28t84 -76t32 -112.5
t-17.5 -136.5l-223 -784q-49 -170 -135 -243.5t-228 -73.5h-129zM436 449h31q35 0 53 19t31 60l74 263q11 39 -3 57t-57 18h-26q-35 0 -53 -19.5t-29 -60.5l-76 -262q-21 -75 55 -75z" />
    <glyph glyph-name="at.case" horiz-adv-x="1372" 
d="M279 -10q-81 0 -139 28t-84.5 76t-32 112t17.5 136l223 784q49 171 135 244.5t228 73.5h557q81 0 138.5 -28t84 -76t32 -112t-17.5 -136l-157 -551q-49 -171 -135 -244.5t-226 -73.5h-190v84q-99 -92 -181 -92h-16q-109 0 -151 77t-9 193l13 45q14 46 35 83t42.5 61
t54.5 44.5t58.5 32t65.5 27.5l166 62q35 14 43 45l20 65q12 45 -37 45h-35q-21 0 -32 -11.5t-17 -37.5l-24 -84h-232l21 74q42 149 116.5 212.5t198.5 63.5h80q140 0 192 -87t15 -220l-158 -549h2q55 3 99.5 53.5t66.5 131.5l158 551q31 106 -0.5 162.5t-120.5 56.5h-557
q-117 0 -172 -185l-223 -784q-31 -106 0 -162.5t120 -56.5h482l-37 -133h-481zM623 434h55q38 0 51 47l49 176l-106 -45q-36 -15 -47 -53l-21 -78q-7 -23 -1 -35t20 -12z" />
    <glyph glyph-name="PariMatch" horiz-adv-x="5218" 
d="M305 764l191 670h1030q119 0 168.5 -66.5t17.5 -181.5l-18 -66q-51 -176 -236 -176h-237l-52 -180h-864zM1577 764l393 670h379v-670h-192v113h-293l-64 -113h-223zM2410 764l191 670h367q119 0 168.5 -65.5t15.5 -182.5l-17 -60q-36 -130 -145 -165l59 -197h-206
l-56 184h-125l-51 -184h-201zM3123 764l191 670h200l-190 -670h-201zM1268 1108h217l41 145h-217zM2710 1108h217l39 145h-216zM1956 1038h201v213h-80zM674 0l190 670h869l94 -269l225 269h260l-190 -670h-201l109 383l-187 -219h-129l-69 207l-107 -371h-864zM2202 0
l395 670h377v-670h-193v113h-293l-63 -113h-223zM3127 0l135 477h-219l56 193h608l-55 -193h-189l-135 -477h-201zM3834 0q-120 0 -170 65.5t-17 182.5l72 244q51 178 236 178h323l-55 -193h-305l-82 -287h305l-55 -190h-252zM4180 0l190 670h201l-67 -240h229l68 240h200
l-190 -670h-201l68 240h-230l-67 -240h-201zM2580 274h201v213h-80z" />
    </font>
</defs>
</svg>
