<?xml version="1.0" standalone="no"?>
<!DOCTYPE svg PUBLIC "-//W3C//DTD SVG 1.1//EN" "http://www.w3.org/Graphics/SVG/1.1/DTD/svg11.dtd" >
<svg xmlns="http://www.w3.org/2000/svg" xmlns:xlink="http://www.w3.org/1999/xlink" version="1.1">
<metadata>
Created by FontForge 20170731 at Mon Dec 28 17:43:57 2020
 By Aleksey,,,
Dmitry Rastvortsev exclusively for Pari-Match N.V. parimatch.com
</metadata>
<defs>
<font id="Pari-Match-Regular" horiz-adv-x="901" >
  <font-face 
    font-family="Pari-Match"
    font-weight="400"
    font-style="italic"
    font-stretch="normal"
    units-per-em="2048"
    panose-1="0 0 5 0 0 0 0 0 0 0"
    ascent="1638"
    descent="-410"
    x-height="1126"
    cap-height="1434"
    bbox="-733 -317 5001 1837"
    underline-thickness="102"
    underline-position="-307"
    slope="-16"
    unicode-range="U+000D-2265"
  />
<missing-glyph horiz-adv-x="286" 
 />
    <glyph glyph-name="uni04070407.liga" unicode="&#x407;&#x407;" horiz-adv-x="962" 
d="M207 1505l69 246h222l-70 -246h-221zM498 1505l69 246h221l-69 -246h-221zM786 1505l70 246h221l-69 -246h-222zM1077 1505l70 246h221l-70 -246h-221zM-47 0l409 1434h256l-409 -1434h-256zM434 0l410 1434h256l-410 -1434h-256z" />
    <glyph glyph-name="uni04570457.liga" unicode="&#x457;&#x457;" 
d="M86 1198l70 246h221l-70 -246h-221zM377 1198l69 246h222l-70 -246h-221zM668 1198l69 246h221l-69 -246h-221zM958 1198l70 246h221l-69 -246h-222zM-57 0l321 1126h246l-322 -1126h-245zM393 0l322 1126h246l-322 -1126h-246z" />
    <glyph glyph-name=".notdef" horiz-adv-x="286" 
 />
    <glyph glyph-name=".null" horiz-adv-x="0" 
 />
    <glyph glyph-name="nonmarkingreturn" horiz-adv-x="682" 
 />
    <glyph glyph-name="CR" unicode="&#xd;" horiz-adv-x="286" 
 />
    <glyph glyph-name="space" unicode=" " horiz-adv-x="286" 
 />
    <glyph glyph-name="exclam" unicode="!" horiz-adv-x="552" 
d="M127 430l287 1004h291l-383 -1004h-195zM-16 0l82 287h266l-82 -287h-266z" />
    <glyph glyph-name="quotedbl" unicode="&#x22;" horiz-adv-x="860" 
d="M252 973l102 471h267l-164 -471h-205zM641 973l102 471h267l-164 -471h-205z" />
    <glyph glyph-name="numbersign" unicode="#" 
d="M25 0l88 307h-113l61 217h113l111 385h-113l61 217h113l88 308h205l-88 -308h123l88 308h205l-88 -308h112l-61 -217h-113l-110 -385h112l-61 -217h-113l-88 -307h-205l88 307h-123l-88 -307h-204zM379 524h123l110 385h-123z" />
    <glyph glyph-name="dollar" unicode="$" 
d="M193 -143l38 135q-142 12 -193 109.5t-9 240.5l45 158h254l-58 -197q-21 -76 56 -76h77q35 0 53 19.5t29 60.5l17 62q2 6 6 23t5.5 23t4 19.5t1.5 20.5t-2 18.5t-5 20t-10 19.5t-15 22l-188 227q-52 61 -69.5 135.5t3.5 153.5l21 75q45 167 133 242.5t229 75.5h2l37 133
h131l-38 -135q137 -13 186.5 -111t9.5 -239l-45 -160h-254l60 198q21 76 -56 76h-57q-35 0 -53 -19.5t-29 -60.5l-18 -61q-20 -52 -18 -90.5t36 -79.5l184 -229q55 -69 72 -149t-8 -155l-17 -55q-49 -171 -134.5 -244t-227.5 -73h-17l-38 -133h-131z" />
    <glyph glyph-name="percent" unicode="%" horiz-adv-x="1126" 
d="M326 834q-84 0 -120 53.5t-11 140.5l69 240q26 91 76 133.5t129 42.5h94q85 0 122 -54t11 -141l-67 -239q-26 -90 -76.5 -133t-130.5 -43h-96zM-78 0l1178 1434h166l-1178 -1434h-166zM377 975h53q18 0 26 9t13 30l72 250q12 39 -25 39h-51q-18 0 -27.5 -9.5t-15.5 -31.5
l-72 -250q-6 -20 0.5 -28.5t26.5 -8.5zM623 -10q-84 0 -120 53.5t-11 140.5l67 240q26 90 76.5 133t130.5 43h94q85 0 121.5 -53t11.5 -141l-69 -240q-26 -91 -76 -133.5t-129 -42.5h-96zM672 131h53q18 0 26.5 8.5t14.5 30.5l72 250q5 21 -1 30t-26 9h-51q-18 0 -27.5 -9.5
t-15.5 -31.5l-72 -250q-5 -21 1 -29t26 -8z" />
    <glyph glyph-name="ampersand" unicode="&#x26;" horiz-adv-x="849" 
d="M156 -10q-127 0 -179.5 98t-13.5 236l90 315q38 135 110 201.5t187 70.5l-43 326l55 197h619l-68 -238h-372l57 -448l86 163h219l-260 -483l57 -428h-227l-18 141q-57 -77 -115.5 -114t-128.5 -37h-55zM231 223h17q45 0 84 62l84 133l-37 276h-25q-26 0 -40.5 -15
t-24.5 -46l-101 -350q-15 -60 43 -60z" />
    <glyph glyph-name="quotesingle" unicode="'" horiz-adv-x="471" 
d="M252 973l102 471h267l-164 -471h-205z" />
    <glyph glyph-name="parenleft" unicode="(" horiz-adv-x="573" 
d="M180 -317q-130 0 -185 82.5t-18 216.5l398 1384q40 141 115 206.5t198 65.5h113l-51 -184h-99q-26 0 -40.5 -15t-24.5 -46l-418 -1467q-9 -31 0.5 -45t40.5 -14h86l-51 -184h-64z" />
    <glyph glyph-name="parenright" unicode=")" horiz-adv-x="573" 
d="M-188 -317l51 184h98q27 0 41.5 15t24.5 46l417 1467q9 31 -0.5 45t-40.5 14h-86l52 184h63q130 0 185 -82.5t18 -216.5l-397 -1384q-40 -141 -115.5 -206.5t-198.5 -65.5h-112z" />
    <glyph glyph-name="asterisk" unicode="*" horiz-adv-x="591" 
d="M354 983l56 147l-138 -69l-34 113l157 38l-123 78l86 105l99 -97l28 146h127l-59 -148l139 68l37 -109l-162 -45l127 -71l-86 -105l-104 92l-25 -143h-125z" />
    <glyph glyph-name="plus" unicode="+" 
d="M266 287l70 245h-242l60 205h241l70 246h213l-70 -246h242l-59 -205h-242l-70 -245h-213z" />
    <glyph glyph-name="comma" unicode="," horiz-adv-x="471" 
d="M-111 -184l136 471h266l-197 -471h-205z" />
    <glyph glyph-name="hyphen" unicode="-" horiz-adv-x="614" 
d="M72 522l63 226h451l-64 -226h-450z" />
    <glyph glyph-name="period" unicode="." horiz-adv-x="471" 
d="M-57 0l82 287h266l-82 -287h-266z" />
    <glyph glyph-name="slash" unicode="/" horiz-adv-x="573" 
d="M-203 -317l844 1955h193l-844 -1955h-193z" />
    <glyph glyph-name="zero" unicode="0" 
d="M268 -10q-81 0 -138.5 28t-84 76t-32 112t17.5 136l223 784q49 171 134.5 244.5t227.5 73.5h107q81 0 139 -28t84.5 -76t32 -112t-17.5 -136l-224 -785q-49 -171 -134.5 -244t-227.5 -73h-107zM326 227h77q35 0 53 19.5t29 60.5l236 823q21 76 -55 76h-78
q-35 0 -53 -19.5t-29 -60.5l-236 -823q-21 -76 56 -76z" />
    <glyph glyph-name="one" unicode="1" horiz-adv-x="589" 
d="M45 0l346 1208h-174l64 226h426l-410 -1434h-252z" />
    <glyph glyph-name="two" unicode="2" horiz-adv-x="821" 
d="M-96 0l65 227q47 162 166 275l461 446q45 45 57 88l27 94q21 76 -55 76h-66q-35 0 -53 -19.5t-29 -60.5l-35 -122h-252l35 122q49 171 135 244.5t228 73.5h94q81 0 139 -28t84.5 -76t32 -112t-17.5 -136l-15 -52q-19 -65 -49.5 -115t-83.5 -102l-483 -465
q-43 -43 -56 -88l-8 -24h453l-70 -246h-704z" />
    <glyph glyph-name="three" unicode="3" horiz-adv-x="860" 
d="M246 -10q-81 0 -139 28t-84.5 76t-32 112t17.5 136l45 160h244l-57 -199q-21 -76 55 -76h72q35 0 53 19.5t29 60.5l61 215q21 76 -55 76h-125l69 238h131q35 0 53 19t29 60l62 215q21 76 -56 76h-61q-35 0 -53 -19.5t-29 -60.5l-45 -161h-244l45 161q49 171 135 244.5
t228 73.5h82q160 0 219.5 -99.5t17.5 -252.5l-45 -168q-26 -96 -62.5 -143.5t-98.5 -73.5q85 -79 47 -213l-54 -187q-49 -171 -134.5 -244t-227.5 -73h-92z" />
    <glyph glyph-name="four" unicode="4" horiz-adv-x="864" 
d="M297 0l78 276h-441l60 211l670 947h282l-264 -926h135l-65 -232h-136l-79 -276h-240zM248 508h194l70 248l88 250h-10z" />
    <glyph glyph-name="five" unicode="5" horiz-adv-x="862" 
d="M248 -10q-81 0 -139 28t-84.5 76t-32 112t17.5 136l45 160h244l-57 -199q-21 -76 55 -76h78q35 0 53 19.5t29 60.5l118 414q21 76 -55 76h-67q-33 0 -50 -17t-41 -63h-237l231 717h631l-69 -246h-412l-88 -270q105 94 203 94h26q114 0 164 -83.5t12 -215.5l-114 -406
q-49 -170 -135 -243.5t-228 -73.5h-98z" />
    <glyph glyph-name="six" unicode="6" horiz-adv-x="876" 
d="M274 -10q-81 0 -138.5 28t-84 76t-32 112t17.5 136l223 784q49 171 135 244.5t228 73.5h88q81 0 138.5 -28t84 -76t32 -112t-17.5 -136l-18 -66h-246l31 104q21 76 -56 76h-69q-35 0 -53 -19.5t-29 -60.5l-82 -288q86 77 176 77h43q114 0 162 -83t10 -216l-88 -309
q-49 -171 -134.5 -244t-227.5 -73h-93zM328 227h69q35 0 53 19.5t29 60.5l90 320q24 75 -55 75h-68q-35 0 -52.5 -19t-28.5 -60l-93 -320q-21 -76 56 -76z" />
    <glyph glyph-name="seven" unicode="7" horiz-adv-x="780" 
d="M-57 0l702 1188h-424l70 246h676l-52 -185l-712 -1249h-260z" />
    <glyph glyph-name="eight" unicode="8" 
d="M268 -10q-161 0 -220.5 99.5t-16.5 252.5l45 160q27 99 67 148t107 75q-79 76 -41 207l55 194q50 172 135.5 245t227.5 73h86q81 0 138.5 -28t84 -76t32 -112t-17.5 -136l-45 -160q-25 -95 -62 -143t-98 -74q88 -82 48 -213l-56 -195q-49 -171 -134.5 -244t-227.5 -73
h-107zM496 821h77q35 0 53 19.5t29 60.5l72 250q21 76 -55 76h-78q-35 0 -53 -19.5t-29 -60.5l-72 -250q-21 -76 56 -76zM326 227h77q35 0 53 19.5t29 60.5l66 230q21 75 -55 75h-78q-35 0 -53 -19.5t-29 -60.5l-66 -229q-21 -76 56 -76z" />
    <glyph glyph-name="nine" unicode="9" horiz-adv-x="876" 
d="M256 -10q-81 0 -139 28t-84.5 76t-32 112t17.5 136l19 66h246l-31 -105q-21 -76 55 -76h70q35 0 53 19.5t29 60.5l82 289q-87 -78 -176 -78h-43q-114 0 -162 83t-10 216l88 309q49 171 134.5 244.5t227.5 73.5h92q81 0 139 -28t84.5 -76t32 -112t-17.5 -136l-223 -785
q-49 -170 -135 -243.5t-228 -73.5h-88zM453 731h67q35 0 53 19.5t29 60.5l92 319q21 76 -55 76h-70q-35 0 -53 -19.5t-29 -60.5l-90 -319q-24 -76 56 -76z" />
    <glyph glyph-name="colon" unicode=":" horiz-adv-x="471" 
d="M182 840l82 286h266l-81 -286h-267zM-57 0l82 287h266l-82 -287h-266z" />
    <glyph glyph-name="semicolon" unicode=";" horiz-adv-x="471" 
d="M182 840l82 286h266l-81 -286h-267zM-111 -184l136 471h266l-197 -471h-205z" />
    <glyph glyph-name="less" unicode="&#x3c;" 
d="M676 268l-580 267l58 204l733 267l-70 -240l-409 -145l327 -146z" />
    <glyph glyph-name="equal" unicode="=" 
d="M147 717l60 205h696l-59 -205h-697zM43 348l57 205h697l-58 -205h-696z" />
    <glyph glyph-name="greater" unicode="&#x3e;" 
d="M59 268l70 240l410 145l-328 146l59 207l580 -267l-57 -204z" />
    <glyph glyph-name="question" unicode="?" horiz-adv-x="819" 
d="M209 430l22 76q24 89 56 147t96 111l182 168q42 40 56 88l34 117q21 75 -55 75h-51q-35 0 -53 -19t-29 -60l-37 -129h-242l35 122q49 173 132 245.5t231 72.5h69q81 0 139 -28t84.5 -76t32 -112t-17.5 -136l-14 -52q-37 -128 -134 -217l-204 -186q-62 -43 -99 -152
l-18 -55h-215zM78 0l82 287h266l-82 -287h-266z" />
    <glyph glyph-name="at" unicode="@" horiz-adv-x="1331" 
d="M231 -174q-81 0 -138.5 28t-84 76t-32 112t17.5 136l223 785q49 170 135 243.5t228 73.5h516q81 0 138.5 -28t84 -76t32 -112t-17.5 -136l-157 -551q-49 -171 -135 -244.5t-228 -73.5h-188v101q-86 -109 -179 -109h-16q-100 0 -134.5 70.5t-0.5 189.5l14 47
q33 117 83.5 165.5t150.5 82.5l168 62q36 11 45 47l30 104q8 26 0.5 38.5t-34.5 12.5h-54q-39 0 -55 -53l-29 -100h-190l27 94q35 123 101 180.5t173 57.5h84q114 0 162 -71t14 -190l-170 -595h37q56 0 102 51.5t68 132.5l158 551q31 106 -0.5 162.5t-120.5 56.5h-516
q-118 0 -172 -184l-224 -785q-31 -106 0.5 -162.5t120.5 -56.5h482l-37 -133h-482zM530 242h52q24 0 35.5 12.5t19.5 40.5l59 209l-118 -53q-46 -17 -62 -76l-22 -82q-8 -27 0.5 -39t35.5 -12z" />
    <glyph glyph-name="A" unicode="A" horiz-adv-x="888" 
d="M-109 0l570 1434h459l-242 -1434h-244l49 270h-237l-101 -270h-254zM336 508h190l125 690h-57z" />
    <glyph glyph-name="B" unicode="B" horiz-adv-x="909" 
d="M-37 0l410 1434h346q161 0 221.5 -100t17.5 -253l-40 -141q-26 -92 -66 -146.5t-100 -82.5q47 -41 59 -105t-10 -137l-43 -152q-49 -169 -135 -243t-228 -74h-432zM449 825h120q38 0 58.5 19.5t31.5 60.5l68 228q21 75 -55 75h-113zM279 227h139q35 0 53 19.5t29 60.5
l63 225q11 39 -3 57.5t-56 18.5h-117z" />
    <glyph glyph-name="C" unicode="C" horiz-adv-x="919" 
d="M279 -10q-81 0 -139 28t-84.5 76t-32 112t17.5 136l223 784q49 171 135 244.5t228 73.5h112q81 0 139 -28t84.5 -76t32 -112t-17.5 -136l-72 -252h-250l84 290q21 76 -55 76h-82q-35 0 -53 -19.5t-29 -60.5l-235 -823q-21 -76 55 -76h82q35 0 53 19.5t29 60.5l76 266h251
l-75 -266q-49 -170 -135 -243.5t-228 -73.5h-114z" />
    <glyph glyph-name="D" unicode="D" horiz-adv-x="960" 
d="M-47 0l409 1434h408q81 0 139 -28t84.5 -76t32 -112.5t-17.5 -136.5l-220 -764q-49 -171 -134.5 -244t-227.5 -73h-473zM276 238h175q35 0 52.5 19t28.5 60l232 803q21 76 -55 76h-158z" />
    <glyph glyph-name="E" unicode="E" horiz-adv-x="757" 
d="M-47 0l409 1434h553l-67 -238h-301l-103 -360h281l-70 -238h-280l-103 -360h301l-67 -238h-553z" />
    <glyph glyph-name="F" unicode="F" horiz-adv-x="727" 
d="M-47 0l409 1434h564l-68 -238h-307l-102 -360h245l-69 -238h-246l-170 -598h-256z" />
    <glyph glyph-name="G" unicode="G" horiz-adv-x="952" 
d="M279 -10q-81 0 -139 28t-84.5 76t-32 112t17.5 136l223 784q49 171 135 244.5t228 73.5h112q81 0 139 -28t84.5 -76t32 -112t-17.5 -136l-49 -174h-246l63 212q21 76 -55 76h-88q-35 0 -53 -19.5t-29 -60.5l-235 -823q-21 -76 55 -76h88q78 0 100 80l58 199h-119l65 231
h359l-211 -737h-164l2 137q-47 -69 -108 -108t-127 -39h-4z" />
    <glyph glyph-name="H" unicode="H" horiz-adv-x="962" 
d="M-47 0l409 1434h256l-169 -598h225l170 598h256l-410 -1434h-256l170 598h-225l-170 -598h-256z" />
    <glyph glyph-name="I" unicode="I" horiz-adv-x="481" 
d="M-47 0l409 1434h256l-409 -1434h-256z" />
    <glyph glyph-name="J" unicode="J" horiz-adv-x="819" 
d="M209 -10q-156 0 -214 100t-15 252l77 272h240l-90 -311q-21 -76 57 -76h35q35 0 52 19t28 61l321 1127h256l-321 -1127q-46 -170 -132.5 -243.5t-228.5 -73.5h-65z" />
    <glyph glyph-name="K" unicode="K" horiz-adv-x="917" 
d="M-47 0l409 1434h256l-169 -598h47l348 598h262l-412 -697l21 -737h-256l-2 598h-78l-170 -598h-256z" />
    <glyph glyph-name="L" unicode="L" horiz-adv-x="727" 
d="M-47 0l409 1434h256l-342 -1196h318l-68 -238h-573z" />
    <glyph glyph-name="M" unicode="M" horiz-adv-x="1228" 
d="M-37 0l410 1434h229l47 -727l441 727h266l-410 -1434h-244l123 430l123 383h-10l-352 -575h-115l-37 575h-10l-94 -383l-123 -430h-244z" />
    <glyph glyph-name="N" unicode="N" horiz-adv-x="993" 
d="M-37 0l410 1434h235l41 -813h10l95 383l123 430h243l-409 -1434h-236l-41 813h-10l-94 -383l-123 -430h-244z" />
    <glyph glyph-name="O" unicode="O" horiz-adv-x="954" 
d="M279 -10q-81 0 -139 28t-84.5 76t-32 112t17.5 136l223 784q49 171 135 244.5t228 73.5h139q81 0 139 -28t84.5 -76t32 -112t-17.5 -136l-224 -785q-49 -171 -134.5 -244t-227.5 -73h-139zM340 227h102q35 0 53 19.5t29 60.5l236 823q21 76 -55 76h-103q-35 0 -53 -19.5
t-29 -60.5l-235 -823q-21 -76 55 -76z" />
    <glyph glyph-name="P" unicode="P" horiz-adv-x="911" 
d="M-47 0l409 1434h379q160 0 220.5 -101.5t17.5 -251.5l-59 -207q-49 -170 -135 -243.5t-228 -73.5h-188l-160 -557h-256zM436 795h146q35 0 53 19t29 60l71 246q21 76 -55 76h-129z" />
    <glyph glyph-name="Q" unicode="Q" horiz-adv-x="954" 
d="M246 -205v197q-142 10 -194.5 108.5t-10.5 241.5l223 784q49 171 135 244.5t228 73.5h139q81 0 139 -28t84.5 -76t32 -112t-17.5 -136l-224 -785q-42 -152 -114.5 -225.5t-186.5 -87.5v-199h-233zM340 227h102q35 0 53 19.5t29 60.5l236 823q21 76 -55 76h-103
q-35 0 -53 -19.5t-29 -60.5l-235 -823q-21 -76 55 -76z" />
    <glyph glyph-name="R" unicode="R" horiz-adv-x="911" 
d="M-47 0l409 1434h371q160 0 220.5 -101.5t17.5 -251.5l-58 -198q-67 -231 -225 -293l12 -590h-249l-5 565h-75l-162 -565h-256zM436 795h137q35 0 53 19t29 60l74 254q21 76 -55 76h-121z" />
    <glyph glyph-name="S" unicode="S" horiz-adv-x="866" 
d="M248 -10q-81 0 -139 28t-84.5 76t-32 112t17.5 136l45 158h254l-57 -197q-21 -76 55 -76h78q35 0 53 19.5t29 60.5l16 62q2 6 7 26t6 26t3.5 21.5t1 23.5t-4.5 21t-10 24.5t-17 23.5l-188 227q-52 61 -69.5 135.5t3.5 153.5l21 75q45 167 133 242.5t229 75.5h90
q81 0 139 -28t84.5 -76t32 -112t-17.5 -136l-45 -160h-254l59 198q21 76 -55 76h-58q-35 0 -52.5 -19t-28.5 -61l-19 -61q-20 -53 -17.5 -91t36.5 -79l184 -229q55 -69 71.5 -149t-8.5 -155l-16 -55q-49 -170 -135 -243.5t-228 -73.5h-112z" />
    <glyph glyph-name="T" unicode="T" horiz-adv-x="808" 
d="M117 0l342 1196h-236l68 238h727l-68 -238h-235l-342 -1196h-256z" />
    <glyph glyph-name="U" unicode="U" horiz-adv-x="966" 
d="M291 -10q-81 0 -139 28t-85 76t-32.5 112t18.5 136l309 1092h256l-323 -1131q-21 -76 57 -76h94q35 0 52 19t28 61l324 1127h254l-322 -1127q-49 -171 -133.5 -244t-226.5 -73h-131z" />
    <glyph glyph-name="V" unicode="V" horiz-adv-x="905" 
d="M115 0l186 1434h258l-110 -727l-74 -390h8l453 1117h268l-631 -1434h-358z" />
    <glyph glyph-name="W" unicode="W" horiz-adv-x="1331" 
d="M113 0l198 1434h250l-94 -598l-68 -355h9l358 764h160l-58 -764h9l141 371l239 582h263l-621 -1434h-252l49 676h-8l-305 -676h-270z" />
    <glyph glyph-name="X" unicode="X" horiz-adv-x="913" 
d="M-129 0l500 776l-82 658h250l30 -449h9l258 449h274l-467 -725l80 -709h-248l-37 446h-8l-272 -446h-287z" />
    <glyph glyph-name="Y" unicode="Y" horiz-adv-x="864" 
d="M145 0l138 485l-13 949h254l-14 -320l-27 -338h11l325 658h275l-551 -938l-142 -496h-256z" />
    <glyph glyph-name="Z" unicode="Z" horiz-adv-x="829" 
d="M-98 0l55 197l674 999h-371l68 238h659l-55 -197l-674 -999h408l-68 -238h-696z" />
    <glyph glyph-name="bracketleft" unicode="[" horiz-adv-x="573" 
d="M-106 -317l557 1955h348l-51 -184h-146l-450 -1587h141l-51 -184h-348z" />
    <glyph glyph-name="backslash" unicode="\" horiz-adv-x="573" 
d="M92 -317l270 1955h181l-271 -1955h-180z" />
    <glyph glyph-name="bracketright" unicode="]" horiz-adv-x="573" 
d="M-188 -317l51 184h145l451 1587h-142l52 184h348l-557 -1955h-348z" />
    <glyph glyph-name="asciicircum" unicode="^" 
d="M145 778l453 656h205l80 -656h-215l-39 371l-248 -371h-236z" />
    <glyph glyph-name="underscore" unicode="_" horiz-adv-x="655" 
d="M-250 -317l64 225h655l-63 -225h-656z" />
    <glyph glyph-name="grave" unicode="`" horiz-adv-x="860" 
d="M-168 1198l-156 246h236l119 -246h-199z" />
    <glyph glyph-name="a" unicode="a" horiz-adv-x="815" 
d="M143 -10q-114 0 -154 81.5t-1 217.5l16 55q38 135 96.5 190.5t173.5 94.5l191 69q41 14 53 56l35 118q8 32 -0.5 46t-38.5 14h-61q-47 0 -66 -62l-33 -114h-219l33 108q40 141 116 207t199 66h97q130 0 185 -82t17 -217l-239 -838h-176v115q-104 -125 -203 -125h-21z
M258 209h59q26 0 40 14.5t24 46.5l68 240l-136 -59q-49 -19 -69 -89l-29 -94q-8 -31 2 -45t41 -14z" />
    <glyph glyph-name="b" unicode="b" horiz-adv-x="872" 
d="M393 -10q-131 0 -196 133l-76 -123h-178l413 1444h246l-121 -424q50 56 102.5 86.5t94.5 30.5h24q106 0 149.5 -83t6.5 -216l-162 -576q-78 -272 -295 -272h-8zM309 215h82q27 0 41.5 15t22.5 46l161 576q17 59 -43 59h-79q-27 0 -41.5 -15t-22.5 -46l-164 -576
q-17 -59 43 -59z" />
    <glyph glyph-name="c" unicode="c" horiz-adv-x="839" 
d="M217 -10q-130 0 -185.5 82.5t-17.5 216.5l166 575q40 141 116.5 207t199.5 66h129q130 0 185 -82.5t17 -216.5l-55 -193h-242l62 215q18 60 -43 60h-62q-26 0 -40.5 -15.5t-22.5 -46.5l-170 -592q-17 -59 43 -59h63q26 0 40 15t22 46l55 193h242l-55 -199
q-41 -141 -117 -206.5t-199 -65.5h-131z" />
    <glyph glyph-name="d" unicode="d" horiz-adv-x="876" 
d="M172 -10q-106 0 -151 83t-7 216l168 575q35 128 109 200.5t186 72.5h8q114 0 172 -111l119 418h246l-412 -1444h-180v123q-55 -64 -115 -98.5t-114 -34.5h-29zM301 215h78q26 0 40.5 15t24.5 46l164 576q17 59 -43 59h-80q-26 0 -39.5 -14.5t-21.5 -46.5l-166 -576
q-8 -31 2 -45t41 -14z" />
    <glyph glyph-name="e" unicode="e" horiz-adv-x="839" 
d="M217 -10q-130 0 -185.5 82.5t-17.5 216.5l166 575q40 141 116.5 207t199.5 66h129q130 0 185 -82.5t17 -216.5l-100 -349h-416l-63 -223q-17 -59 43 -59h63q26 0 40 15t22 46l33 111h241l-33 -117q-41 -141 -116.5 -206.5t-198.5 -65.5h-125zM367 680h174l51 180
q18 60 -43 60h-68q-26 0 -40.5 -15.5t-22.5 -46.5z" />
    <glyph glyph-name="f" unicode="f" horiz-adv-x="636" 
d="M4 0l256 901h-141l63 225h144l12 45q40 141 116 207t199 66h215l-57 -205h-162q-26 0 -39.5 -14.5t-23.5 -46.5l-15 -52h207l-63 -225h-209l-256 -901h-246z" />
    <glyph glyph-name="g" unicode="g" horiz-adv-x="874" 
d="M143 -317q-130 0 -184.5 82.5t-17.5 216.5l10 32h233l-16 -55q-8 -31 2 -45t41 -14h80q26 0 39.5 14.5t23.5 46.5l72 252q-49 -58 -103.5 -89.5t-97.5 -31.5h-24q-106 0 -148.5 82.5t-7.5 216.5l135 473q32 127 106.5 200t186.5 73h8q132 0 197 -133l76 122h178
l-334 -1171q-41 -141 -116.5 -206.5t-198.5 -65.5h-140zM328 317h82q26 0 39.5 15t23.5 47l135 473q17 59 -43 59h-80q-27 0 -41 -15t-22 -46l-135 -473q-18 -60 41 -60z" />
    <glyph glyph-name="h" unicode="h" horiz-adv-x="870" 
d="M-57 0l411 1444h246l-123 -424q50 56 102.5 86.5t94.5 30.5h26q106 0 150 -83t6 -216l-238 -838h-245l241 852q17 59 -43 59h-79q-27 0 -41.5 -15t-22.5 -46l-240 -850h-245z" />
    <glyph glyph-name="i" unicode="i" horiz-adv-x="432" 
d="M285 1198l69 246h246l-70 -246h-245zM-57 0l321 1126h246l-322 -1126h-245z" />
    <glyph glyph-name="j" unicode="j" horiz-adv-x="462" 
d="M305 1198l70 246h246l-70 -246h-246zM-260 -317l63 225h88q26 0 40 14.5t24 46.5l330 1157h245l-333 -1171q-41 -141 -117 -206.5t-199 -65.5h-141z" />
    <glyph glyph-name="k" unicode="k" horiz-adv-x="835" 
d="M-57 0l413 1444h246l-219 -768h49l268 450h242l-332 -561l15 -565h-242v451h-66l-129 -451h-245z" />
    <glyph glyph-name="l" unicode="l" horiz-adv-x="452" 
d="M-57 0l411 1444h246l-412 -1444h-245z" />
    <glyph glyph-name="m" unicode="m" horiz-adv-x="1261" 
d="M-55 0l319 1126h178v-122q118 133 232 133h8q60 0 98 -35t49 -98q61 64 128 98.5t126 34.5h9q106 0 149.5 -83t5.5 -216l-237 -838h-246l242 852q17 59 -43 59h-60q-27 0 -41 -15t-22 -46l-240 -850h-246l242 852q17 59 -43 59h-59q-27 0 -41.5 -15t-22.5 -46l-240 -850
h-245z" />
    <glyph glyph-name="n" unicode="n" horiz-adv-x="870" 
d="M-57 0l321 1126h176v-122q118 133 232 133h28q106 0 151 -83t7 -216l-240 -838h-245l243 852q17 59 -43 59h-77q-27 0 -41.5 -15t-22.5 -46l-244 -850h-245z" />
    <glyph glyph-name="o" unicode="o" horiz-adv-x="849" 
d="M217 -10q-130 0 -185.5 82.5t-17.5 216.5l166 575q40 141 116.5 207t199.5 66h149q130 0 185.5 -82.5t17.5 -216.5l-164 -576q-41 -141 -116.5 -206.5t-198.5 -65.5h-152zM297 207h80q26 0 39.5 14.5t21.5 46.5l170 592q18 60 -43 60h-78q-26 0 -40.5 -15.5t-22.5 -46.5
l-170 -592q-17 -59 43 -59z" />
    <glyph glyph-name="p" unicode="p" horiz-adv-x="872" 
d="M-147 -317l411 1443h180v-122q118 133 232 133h29q106 0 149.5 -83t5.5 -216l-166 -576q-78 -272 -295 -272h-8q-118 0 -174 112l-119 -419h-245zM309 215h80q26 0 40 14.5t24 46.5l163 576q17 59 -43 59h-77q-27 0 -41.5 -15t-22.5 -46l-166 -576q-8 -31 2 -45t41 -14z
" />
    <glyph glyph-name="q" unicode="q" horiz-adv-x="860" 
d="M272 -317l121 423q-48 -56 -100 -86t-94 -30h-25q-106 0 -150.5 83t-7.5 216l164 575q35 128 109 200.5t186 72.5h8q134 0 195 -133l76 122h178l-414 -1443h-246zM301 215h80q26 0 40.5 15t24.5 46l162 576q20 59 -43 59h-82q-27 0 -41 -15t-20 -46l-164 -576
q-8 -31 2 -45t41 -14z" />
    <glyph glyph-name="r" unicode="r" horiz-adv-x="774" 
d="M-57 0l321 1126h178v-122q114 133 226 133h12q101 0 137 -74t-4 -225l-61 -217h-238l66 231q17 59 -43 59h-43q-26 0 -40 -15t-22 -46l-244 -850h-245z" />
    <glyph glyph-name="s" unicode="s" horiz-adv-x="749" 
d="M176 -10q-127 0 -180.5 82.5t-15.5 216.5l34 121h232l-43 -152q-17 -59 43 -59h49q26 0 39.5 14.5t21.5 46.5l13 39q14 35 13.5 70t-28.5 63l-157 168q-97 104 -54 250l9 31q34 120 113 188t190 68h102q127 0 181 -82.5t16 -216.5l-35 -121h-232l43 153q18 60 -41 60h-43
q-52 0 -69 -62l-15 -49q-11 -40 -5.5 -63.5t36.5 -57.5l154 -166q58 -63 68.5 -131.5t-19.5 -160.5l-4 -19q-29 -103 -107.5 -167t-195.5 -64h-113z" />
    <glyph glyph-name="t" unicode="t" horiz-adv-x="616" 
d="M293 0q-130 0 -185.5 82.5t-17.5 216.5l172 602h-143l63 225h144l127 197h176l-56 -197h175l-64 -225h-176l-176 -616q-18 -60 43 -60h114l-63 -225h-133z" />
    <glyph glyph-name="u" unicode="u" horiz-adv-x="870" 
d="M174 -10q-107 0 -152.5 83.5t-7.5 215.5l240 837h246l-244 -852q-8 -31 2 -45t41 -14h78q26 0 40.5 15t24.5 46l242 850h246l-322 -1126h-176v123q-55 -64 -115 -98.5t-114 -34.5h-29z" />
    <glyph glyph-name="v" unicode="v" horiz-adv-x="778" 
d="M49 0l144 1126h235l-72 -469l-67 -409h8l369 878h243l-503 -1126h-357z" />
    <glyph glyph-name="w" unicode="w" horiz-adv-x="1171" 
d="M74 0l129 1126h233l-71 -469l-52 -278h11l303 600h145l-35 -600h11l102 264l205 483h237l-489 -1126h-248l12 485h-10l-240 -485h-243z" />
    <glyph glyph-name="x" unicode="x" horiz-adv-x="788" 
d="M-129 0l403 606l-75 520h229l29 -335h8l203 335h245l-381 -561l66 -565h-223l-33 350h-10l-207 -350h-254z" />
    <glyph glyph-name="y" unicode="y" horiz-adv-x="778" 
d="M-154 -317l64 225h92q60 0 84 35l111 1183h235l-61 -473l-80 -428h8l358 901h256l-538 -1171q-129 -272 -359 -272h-170z" />
    <glyph glyph-name="z" unicode="z" horiz-adv-x="710" 
d="M-117 0l51 186l547 715h-325l63 225h594l-53 -188l-545 -713h358l-63 -225h-627z" />
    <glyph glyph-name="braceleft" unicode="{" horiz-adv-x="573" 
d="M219 -317q-130 0 -185 82.5t-18 216.5l156 542q18 60 -45 60h-37l53 184h54q26 0 39.5 14.5t23.5 46.5l154 537q40 141 115 206.5t198 65.5h98l-51 -184h-84q-26 0 -40.5 -15t-24.5 -46l-142 -500q-45 -158 -143 -225q57 -76 20 -199l-153 -543q-9 -31 0.5 -45t40.5 -14
h71l-51 -184h-49z" />
    <glyph glyph-name="bar" unicode="|" horiz-adv-x="573" 
d="M229 -317v1955h174v-1955h-174z" />
    <glyph glyph-name="braceright" unicode="}" horiz-adv-x="573" 
d="M-195 -317l52 184h84q49 0 65 61l152 531q47 165 143 225q-57 76 -22 199l147 512q8 31 -2 45t-41 14h-72l51 184h50q130 0 185 -82.5t17 -216.5l-147 -512q-7 -31 3.5 -45t41.5 -14h37l-53 -184h-54q-26 0 -39.5 -15t-21.5 -47l-162 -567q-41 -141 -116.5 -206.5
t-198.5 -65.5h-99z" />
    <glyph glyph-name="asciitilde" unicode="~" 
d="M76 469l59 207q32 107 75.5 157t125.5 50q50 0 78.5 -15t68.5 -55l74 -74q7 -7 18 -17.5t16 -15.5t12 -9.5t13 -4.5q17 0 25 27l47 164h203l-60 -207q-30 -107 -73.5 -157t-126.5 -50q-50 0 -78 15t-70 55l-73 73q-5 5 -13.5 14t-13 13.5t-11 10t-11 7.5t-9.5 2
q-19 0 -26 -26l-47 -164h-203z" />
    <glyph glyph-name="uni00A0" unicode="&#xa0;" horiz-adv-x="286" 
 />
    <glyph glyph-name="exclamdown" unicode="&#xa1;" horiz-adv-x="552" 
d="M223 840l82 286h266l-82 -286h-266zM-150 -307l383 1003h195l-287 -1003h-291z" />
    <glyph glyph-name="cent" unicode="&#xa2;" 
d="M236 -10l36 133q-122 4 -172.5 86t-13.5 213l164 575q40 141 116 207t199 66h15l49 174h131l-49 -174q121 -6 172 -88t14 -211l-53 -193h-242l62 215q15 60 -43 60h-62q-26 0 -40.5 -15t-24.5 -47l-168 -592q-9 -31 0.5 -45t40.5 -14h63q27 0 41.5 15t22.5 46l55 193h242
l-58 -199q-40 -141 -116 -206.5t-199 -65.5h-15l-36 -133h-131z" />
    <glyph glyph-name="sterling" unicode="&#xa3;" 
d="M-66 0l64 225q59 8 83 47t54 146l66 227h-142l41 143h142l96 338q49 171 134.5 244.5t227.5 73.5h48q103 0 164.5 -48.5t72.5 -126.5t-14 -177l-43 -150h-230l58 188q21 76 -56 76h-38q-35 0 -53 -19.5t-29 -60.5l-97 -338h281l-41 -143h-281l-65 -227
q-37 -130 -109 -193h250l125 185h154l-115 -410h-748z" />
    <glyph glyph-name="yen" unicode="&#xa5;" 
d="M164 0l65 229h-215l41 144h215l29 102h-215l41 143h176l-12 816h254l-15 -320l-26 -338h10l326 658h274l-479 -816h178l-41 -143h-215l-29 -102h215l-41 -144h-215l-65 -229h-256z" />
    <glyph glyph-name="brokenbar" unicode="&#xa6;" horiz-adv-x="573" 
d="M229 754v884h174v-884h-174zM229 -317v833h174v-833h-174z" />
    <glyph glyph-name="section" unicode="&#xa7;" 
d="M233 -10q-127 0 -181.5 82.5t-16.5 216.5l18 59h232l-27 -92q-9 -31 0.5 -45t40.5 -14h109q53 0 69 61l10 39q8 25 -5.5 47.5t-35.5 32.5l-249 115q-32 15 -51.5 36.5t-27 44.5t-5.5 56.5t8.5 62.5t19.5 72l11 39q17 58 66 102.5t132 55.5q-47 26 -64.5 78.5t1.5 117.5
l10 31q34 120 112 188t189 68h143q127 0 182 -82.5t17 -216.5l-18 -60h-232l27 93q9 31 -0.5 45t-40.5 14h-84q-54 0 -70 -61l-10 -39q-8 -25 5.5 -47.5t35.5 -32.5l242 -115q32 -15 51.5 -37t27 -45t5 -56.5t-9 -61.5t-19.5 -72l-10 -39q-20 -65 -58.5 -108.5t-113.5 -63.5
q35 -28 47.5 -77t-2.5 -106l-11 -30q-34 -120 -112 -188t-189 -68h-168zM408 586h129q26 0 39.5 14.5t21.5 46.5l18 60q3 10 8.5 30t7 26.5t3.5 20t0.5 18.5t-5 13.5t-10.5 14t-18 10.5l-20 10h-125q-48 0 -64 -62l-18 -61q-18 -57 -17 -89t31 -44z" />
    <glyph glyph-name="dieresis" unicode="&#xa8;" horiz-adv-x="860" 
d="M356 1198l70 246h221l-69 -246h-222zM647 1198l70 246h221l-70 -246h-221z" />
    <glyph glyph-name="copyright" unicode="&#xa9;" horiz-adv-x="1331" 
d="M279 -10q-81 0 -139 28t-84.5 76t-32 112t17.5 136l223 784q49 171 135 244.5t228 73.5h516q81 0 138.5 -28t84 -76t32 -112t-17.5 -136l-223 -785q-49 -171 -134.5 -244t-227.5 -73h-516zM315 123h516q56 0 102.5 51t70.5 133l223 785q31 106 -0.5 162.5t-120.5 56.5
h-516q-117 0 -172 -185l-223 -784q-31 -106 0 -162.5t120 -56.5zM537 215q-113 0 -161 71t-16 189l144 500q35 123 101.5 180t172.5 57h113q114 0 162 -71.5t14 -188.5l-47 -168h-211l55 189q6 27 -3 39t-36 12h-53q-39 0 -55 -53l-148 -516q-15 -52 37 -52h56q23 0 35 13
t20 41l47 168h211l-49 -174q-35 -122 -102 -179t-173 -57h-114z" />
    <glyph glyph-name="guillemotleft" unicode="&#xab;" horiz-adv-x="819" 
d="M178 319l-69 261l34 122l193 248h207l-246 -325l65 -306h-184zM485 319l-69 261l35 122l192 248h207l-246 -325l66 -306h-185z" />
    <glyph glyph-name="logicalnot" unicode="&#xac;" 
d="M479 238l84 294h-469l60 205h696l-143 -499h-228z" />
    <glyph glyph-name="registered" unicode="&#xae;" horiz-adv-x="790" 
d="M301 670q-90 0 -122.5 55t-8.5 141l115 402q27 95 74 135.5t126 40.5h240q90 0 123.5 -55.5t9.5 -141.5l-115 -401q-27 -95 -75 -135.5t-127 -40.5h-240zM324 743h239q31 0 56.5 28.5t37.5 74.5l115 401q17 60 0 91.5t-67 31.5h-240q-65 0 -94 -102l-115 -402
q-17 -60 0.5 -91.5t67.5 -31.5zM328 815l139 488h137q54 0 74 -34.5t6 -84.5l-22 -78q-20 -78 -72 -98l4 -193h-92l-2 182h-29l-51 -182h-92zM498 1085h45q21 0 28 27l23 78q6 24 -21 24h-38z" />
    <glyph glyph-name="macron" unicode="&#xaf;" horiz-adv-x="860" 
d="M406 1229l53 184h430l-53 -184h-430z" />
    <glyph glyph-name="degree" unicode="&#xb0;" horiz-adv-x="634" 
d="M508 911q-114 0 -191 77.5t-77 191.5q0 112 77 188t191 76q112 0 188 -76t76 -188q0 -114 -76 -191.5t-188 -77.5zM508 1065q48 0 79 32t31 83q0 50 -30 80t-80 30q-51 0 -83 -31t-32 -79q0 -51 32 -83t83 -32z" />
    <glyph glyph-name="plusminus" unicode="&#xb1;" 
d="M338 532l53 185h-244l60 205h242l53 184h209l-54 -184h246l-59 -205h-244l-53 -185h-209zM2 205l57 205h697l-58 -205h-696z" />
    <glyph glyph-name="acute" unicode="&#xb4;" horiz-adv-x="860" 
d="M510 1198l156 246h245l-215 -246h-186z" />
    <glyph glyph-name="paragraph" unicode="&#xb6;" horiz-adv-x="962" 
d="M137 0l172 600q-109 14 -153 94t-9 203l76 264q40 141 116.5 207t199.5 66h561l-410 -1434h-215l342 1196h-123l-342 -1196h-215z" />
    <glyph glyph-name="periodcentered" unicode="&#xb7;" horiz-adv-x="471" 
d="M84 492l82 286h266l-82 -286h-266z" />
    <glyph glyph-name="cedilla" unicode="&#xb8;" horiz-adv-x="860" 
d="M102 -317l74 245h139v-245h-213z" />
    <glyph glyph-name="guillemotright" unicode="&#xbb;" horiz-adv-x="839" 
d="M35 319l244 326l-64 305h184l68 -260l-35 -123l-190 -248h-207zM342 319l244 326l-64 305h185l67 -260l-35 -123l-190 -248h-207z" />
    <glyph glyph-name="questiondown" unicode="&#xbf;" horiz-adv-x="819" 
d="M379 840l82 286h266l-82 -286h-266zM150 -317q-81 0 -139 28t-84.5 76t-32 112t17.5 136l14 51q38 130 133 217l205 186q61 42 98 152l19 55h215l-23 -75q-25 -90 -56 -148t-95 -111l-182 -167q-42 -39 -56 -89l-34 -116q-21 -76 55 -76h51q35 0 53 19.5t29 60.5l37 129
h241l-34 -123q-49 -173 -132 -245t-231 -72h-69z" />
    <glyph glyph-name="Agrave" unicode="&#xc0;" horiz-adv-x="872" 
d="M569 1505l-155 246h235l119 -246h-199zM-109 0l570 1434h442l-241 -1434h-254l51 270h-205l-100 -270h-263zM340 508h164l131 690h-41z" />
    <glyph glyph-name="Aacute" unicode="&#xc1;" horiz-adv-x="872" 
d="M604 1505l156 246h246l-215 -246h-187zM-109 0l570 1434h442l-241 -1434h-254l51 270h-205l-100 -270h-263zM340 508h164l131 690h-41z" />
    <glyph glyph-name="Acircumflex" unicode="&#xc2;" horiz-adv-x="872" 
d="M418 1505l272 246h174l133 -246h-192l-51 125l-121 -125h-215zM-109 0l570 1434h442l-241 -1434h-254l51 270h-205l-100 -270h-263zM340 508h164l131 690h-41z" />
    <glyph glyph-name="Atilde" unicode="&#xc3;" horiz-adv-x="872" 
d="M467 1536l37 123q19 64 45.5 93.5t77.5 29.5q34 0 102 -37l57 -31q24 -12 29 -12q6 0 10 4.5t4 9.5l21 66h160l-35 -123q-20 -65 -47 -94t-78 -29q-34 0 -102 37l-58 31q-20 12 -26 12t-11.5 -4.5t-5.5 -9.5l-20 -66h-160zM-109 0l570 1434h442l-241 -1434h-254l51 270
h-205l-100 -270h-263zM340 508h164l131 690h-41z" />
    <glyph glyph-name="Adieresis" unicode="&#xc4;" horiz-adv-x="872" 
d="M451 1505l69 246h221l-69 -246h-221zM741 1505l70 246h221l-69 -246h-222zM-109 0l570 1434h442l-241 -1434h-254l51 270h-205l-100 -270h-263zM340 508h164l131 690h-41z" />
    <glyph glyph-name="Aring" unicode="&#xc5;" horiz-adv-x="872" 
d="M700 1487q-75 0 -125.5 50.5t-50.5 125.5q0 74 50.5 124t125.5 50q72 0 122 -50.5t50 -123.5q0 -75 -50 -125.5t-122 -50.5zM700 1589q31 0 51.5 21.5t20.5 52.5t-20.5 52.5t-51.5 21.5q-32 0 -53.5 -21.5t-21.5 -52.5t21.5 -52.5t53.5 -21.5zM-109 0l570 1434h442
l-241 -1434h-254l51 270h-205l-100 -270h-263zM340 508h164l131 690h-41z" />
    <glyph glyph-name="AE" unicode="&#xc6;" horiz-adv-x="1120" 
d="M-109 0l570 1434h817l-68 -238h-280l-103 -360h260l-69 -238h-260l-103 -360h281l-68 -238h-532l78 270h-160l-100 -270h-263zM340 508h141l197 690h-84z" />
    <glyph glyph-name="Ccedilla" unicode="&#xc7;" horiz-adv-x="919" 
d="M279 -10q-81 0 -139 28t-84.5 76t-32 112t17.5 136l223 784q49 171 135 244.5t228 73.5h112q81 0 139 -28t84.5 -76t32 -112t-17.5 -136l-72 -252h-250l84 290q21 76 -55 76h-82q-35 0 -53 -19.5t-29 -60.5l-235 -823q-21 -76 55 -76h82q35 0 53 19.5t29 60.5l76 266h251
l-75 -266q-49 -170 -135 -243.5t-228 -73.5h-114zM154 -317l73 245h140v-245h-213z" />
    <glyph glyph-name="Egrave" unicode="&#xc8;" horiz-adv-x="757" 
d="M514 1505l-156 246h236l119 -246h-199zM-47 0l409 1434h553l-67 -238h-301l-103 -360h281l-70 -238h-280l-103 -360h301l-67 -238h-553z" />
    <glyph glyph-name="Eacute" unicode="&#xc9;" horiz-adv-x="757" 
d="M549 1505l156 246h245l-215 -246h-186zM-47 0l409 1434h553l-67 -238h-301l-103 -360h281l-70 -238h-280l-103 -360h301l-67 -238h-553z" />
    <glyph glyph-name="Ecircumflex" unicode="&#xca;" horiz-adv-x="757" 
d="M362 1505l273 246h174l133 -246h-192l-52 125l-120 -125h-216zM-47 0l409 1434h553l-67 -238h-301l-103 -360h281l-70 -238h-280l-103 -360h301l-67 -238h-553z" />
    <glyph glyph-name="Edieresis" unicode="&#xcb;" horiz-adv-x="757" 
d="M395 1505l70 246h221l-70 -246h-221zM686 1505l70 246h221l-70 -246h-221zM-47 0l409 1434h553l-67 -238h-301l-103 -360h281l-70 -238h-280l-103 -360h301l-67 -238h-553z" />
    <glyph glyph-name="Igrave" unicode="&#xcc;" horiz-adv-x="481" 
d="M375 1505l-156 246h236l118 -246h-198zM-47 0l409 1434h256l-409 -1434h-256z" />
    <glyph glyph-name="Iacute" unicode="&#xcd;" horiz-adv-x="481" 
d="M410 1505l155 246h246l-215 -246h-186zM-47 0l409 1434h256l-409 -1434h-256z" />
    <glyph glyph-name="Icircumflex" unicode="&#xce;" horiz-adv-x="481" 
d="M223 1505l273 246h174l133 -246h-193l-51 125l-121 -125h-215zM-47 0l409 1434h256l-409 -1434h-256z" />
    <glyph glyph-name="Idieresis" unicode="&#xcf;" horiz-adv-x="481" 
d="M256 1505l70 246h221l-70 -246h-221zM547 1505l69 246h222l-70 -246h-221zM-47 0l409 1434h256l-409 -1434h-256z" />
    <glyph glyph-name="Eth" unicode="&#xd0;" horiz-adv-x="980" 
d="M-27 0l181 631h-113l49 172h113l180 631h408q81 0 138.5 -28t84 -76t32 -112.5t-17.5 -136.5l-219 -764q-49 -170 -135 -243.5t-228 -73.5h-473zM297 238h174q35 0 53 19t29 60l231 803q21 76 -55 76h-158l-112 -393h121l-50 -172h-120z" />
    <glyph glyph-name="Ntilde" unicode="&#xd1;" horiz-adv-x="993" 
d="M512 1536l37 123q19 64 45.5 93.5t77.5 29.5q34 0 102 -37l57 -31q24 -12 29 -12q6 0 10 4.5t4 9.5l21 66h160l-35 -123q-20 -65 -47 -94t-78 -29q-34 0 -102 37l-58 31q-20 12 -26 12t-11.5 -4.5t-5.5 -9.5l-20 -66h-160zM-37 0l410 1434h235l41 -813h10l95 383l123 430
h243l-409 -1434h-236l-41 813h-10l-94 -383l-123 -430h-244z" />
    <glyph glyph-name="Ograve" unicode="&#xd2;" horiz-adv-x="954" 
d="M610 1505l-155 246h235l119 -246h-199zM279 -10q-81 0 -139 28t-84.5 76t-32 112t17.5 136l223 784q49 171 135 244.5t228 73.5h139q81 0 139 -28t84.5 -76t32 -112t-17.5 -136l-224 -785q-49 -171 -134.5 -244t-227.5 -73h-139zM340 227h102q35 0 53 19.5t29 60.5
l236 823q21 76 -55 76h-103q-35 0 -53 -19.5t-29 -60.5l-235 -823q-21 -76 55 -76z" />
    <glyph glyph-name="Oacute" unicode="&#xd3;" horiz-adv-x="954" 
d="M645 1505l156 246h246l-216 -246h-186zM279 -10q-81 0 -139 28t-84.5 76t-32 112t17.5 136l223 784q49 171 135 244.5t228 73.5h139q81 0 139 -28t84.5 -76t32 -112t-17.5 -136l-224 -785q-49 -171 -134.5 -244t-227.5 -73h-139zM340 227h102q35 0 53 19.5t29 60.5
l236 823q21 76 -55 76h-103q-35 0 -53 -19.5t-29 -60.5l-235 -823q-21 -76 55 -76z" />
    <glyph glyph-name="Ocircumflex" unicode="&#xd4;" horiz-adv-x="954" 
d="M459 1505l272 246h174l133 -246h-192l-51 125l-121 -125h-215zM279 -10q-81 0 -139 28t-84.5 76t-32 112t17.5 136l223 784q49 171 135 244.5t228 73.5h139q81 0 139 -28t84.5 -76t32 -112t-17.5 -136l-224 -785q-49 -171 -134.5 -244t-227.5 -73h-139zM340 227h102
q35 0 53 19.5t29 60.5l236 823q21 76 -55 76h-103q-35 0 -53 -19.5t-29 -60.5l-235 -823q-21 -76 55 -76z" />
    <glyph glyph-name="Otilde" unicode="&#xd5;" horiz-adv-x="954" 
d="M508 1536l37 123q19 64 45.5 93.5t77.5 29.5q34 0 102 -37l57 -31q24 -12 29 -12q6 0 10 4.5t4 9.5l21 66h160l-35 -123q-20 -65 -47 -94t-78 -29q-35 0 -103 37l-57 31q-20 12 -26 12t-11.5 -4.5t-5.5 -9.5l-20 -66h-160zM279 -10q-81 0 -139 28t-84.5 76t-32 112
t17.5 136l223 784q49 171 135 244.5t228 73.5h139q81 0 139 -28t84.5 -76t32 -112t-17.5 -136l-224 -785q-49 -171 -134.5 -244t-227.5 -73h-139zM340 227h102q35 0 53 19.5t29 60.5l236 823q21 76 -55 76h-103q-35 0 -53 -19.5t-29 -60.5l-235 -823q-21 -76 55 -76z" />
    <glyph glyph-name="Odieresis" unicode="&#xd6;" horiz-adv-x="954" 
d="M492 1505l69 246h221l-69 -246h-221zM782 1505l70 246h221l-69 -246h-222zM279 -10q-81 0 -139 28t-84.5 76t-32 112t17.5 136l223 784q49 171 135 244.5t228 73.5h139q81 0 139 -28t84.5 -76t32 -112t-17.5 -136l-224 -785q-49 -171 -134.5 -244t-227.5 -73h-139z
M340 227h102q35 0 53 19.5t29 60.5l236 823q21 76 -55 76h-103q-35 0 -53 -19.5t-29 -60.5l-235 -823q-21 -76 55 -76z" />
    <glyph glyph-name="multiply" unicode="&#xd7;" 
d="M586 295l-142 199l-251 -197l-111 156l252 194l-141 199l165 129l142 -199l252 197l110 -156l-252 -194l142 -199z" />
    <glyph glyph-name="Oslash" unicode="&#xd8;" horiz-adv-x="954" 
d="M1184 1438l-162 -211q3 -65 -18 -135l-224 -785q-49 -171 -134.5 -244t-227.5 -73h-139q-107 0 -173 47l-28 -37h-217l162 211q0 61 18 131l223 784q49 171 135 244.5t228 73.5h139q108 0 170 -47l31 41h217zM397 698l367 476q-8 32 -59 32h-103q-35 0 -53 -19.5
t-29 -60.5zM649 741l-368 -477q0 -17 17 -27t42 -10h102q35 0 53 19.5t29 60.5z" />
    <glyph glyph-name="Ugrave" unicode="&#xd9;" horiz-adv-x="966" 
d="M616 1505l-155 246h235l119 -246h-199zM291 -10q-81 0 -139 28t-85 76t-32.5 112t18.5 136l309 1092h256l-323 -1131q-21 -76 57 -76h94q35 0 52 19t28 61l324 1127h254l-322 -1127q-49 -171 -133.5 -244t-226.5 -73h-131z" />
    <glyph glyph-name="Uacute" unicode="&#xda;" horiz-adv-x="966" 
d="M651 1505l156 246h246l-215 -246h-187zM291 -10q-81 0 -139 28t-85 76t-32.5 112t18.5 136l309 1092h256l-323 -1131q-21 -76 57 -76h94q35 0 52 19t28 61l324 1127h254l-322 -1127q-49 -171 -133.5 -244t-226.5 -73h-131z" />
    <glyph glyph-name="Ucircumflex" unicode="&#xdb;" horiz-adv-x="966" 
d="M465 1505l272 246h174l133 -246h-192l-51 125l-121 -125h-215zM291 -10q-81 0 -139 28t-85 76t-32.5 112t18.5 136l309 1092h256l-323 -1131q-21 -76 57 -76h94q35 0 52 19t28 61l324 1127h254l-322 -1127q-49 -171 -133.5 -244t-226.5 -73h-131z" />
    <glyph glyph-name="Udieresis" unicode="&#xdc;" horiz-adv-x="966" 
d="M498 1505l69 246h221l-69 -246h-221zM788 1505l70 246h221l-69 -246h-222zM291 -10q-81 0 -139 28t-85 76t-32.5 112t18.5 136l309 1092h256l-323 -1131q-21 -76 57 -76h94q35 0 52 19t28 61l324 1127h254l-322 -1127q-49 -171 -133.5 -244t-226.5 -73h-131z" />
    <glyph glyph-name="Yacute" unicode="&#xdd;" horiz-adv-x="864" 
d="M600 1505l156 246h245l-215 -246h-186zM145 0l138 485l-13 949h254l-14 -320l-27 -338h11l325 658h275l-551 -938l-142 -496h-256z" />
    <glyph glyph-name="Thorn" unicode="&#xde;" horiz-adv-x="911" 
d="M-47 0l409 1434h256l-79 -279h123q81 0 139 -28.5t84.5 -76.5t32 -112t-18.5 -135l-59 -207q-49 -170 -135 -243.5t-228 -73.5h-188l-80 -279h-256zM356 516h146q35 0 53 19.5t29 60.5l71 246q24 76 -55 76h-129z" />
    <glyph glyph-name="germandbls" unicode="&#xdf;" horiz-adv-x="962" 
d="M504 -10q-122 0 -174.5 71t-18.5 189l33 119h178l-30 -111q-7 -29 5.5 -44t41.5 -15h8q26 0 39.5 14.5t21.5 46.5l15 47q12 36 9 58.5t-30 52.5l-88 100q-97 108 -61 230l14 51q34 120 104 188t164 68h21q31 0 37 28l28 103q7 29 1.5 35t-34.5 6h-221q-26 0 -39.5 -15
t-21.5 -47l-334 -1165h-229l333 1171q41 141 117 207t199 66h293q238 0 170 -242l-35 -123q-66 -231 -258 -231h-17q-54 0 -71 -62l-8 -26q-18 -60 32 -115l105 -117q84 -97 41 -252l-17 -55q-30 -105 -104 -168t-197 -63h-22z" />
    <glyph glyph-name="agrave" unicode="&#xe0;" horiz-adv-x="815" 
d="M428 1198l-156 246h236l119 -246h-199zM143 -10q-114 0 -154 81.5t-1 217.5l16 55q38 135 96.5 190.5t173.5 94.5l191 69q41 14 53 56l35 118q8 32 -0.5 46t-38.5 14h-61q-47 0 -66 -62l-33 -114h-219l33 108q40 141 116 207t199 66h97q130 0 185 -82t17 -217l-239 -838
h-176v115q-104 -125 -203 -125h-21zM258 209h59q26 0 40 14.5t24 46.5l68 240l-136 -59q-49 -19 -69 -89l-29 -94q-8 -31 2 -45t41 -14z" />
    <glyph glyph-name="aacute" unicode="&#xe1;" horiz-adv-x="815" 
d="M463 1198l155 246h246l-215 -246h-186zM143 -10q-114 0 -154 81.5t-1 217.5l16 55q38 135 96.5 190.5t173.5 94.5l191 69q41 14 53 56l35 118q8 32 -0.5 46t-38.5 14h-61q-47 0 -66 -62l-33 -114h-219l33 108q40 141 116 207t199 66h97q130 0 185 -82t17 -217l-239 -838
h-176v115q-104 -125 -203 -125h-21zM258 209h59q26 0 40 14.5t24 46.5l68 240l-136 -59q-49 -19 -69 -89l-29 -94q-8 -31 2 -45t41 -14z" />
    <glyph glyph-name="acircumflex" unicode="&#xe2;" horiz-adv-x="815" 
d="M276 1198l273 246h174l133 -246h-192l-52 125l-120 -125h-216zM143 -10q-114 0 -154 81.5t-1 217.5l16 55q38 135 96.5 190.5t173.5 94.5l191 69q41 14 53 56l35 118q8 32 -0.5 46t-38.5 14h-61q-47 0 -66 -62l-33 -114h-219l33 108q40 141 116 207t199 66h97
q130 0 185 -82t17 -217l-239 -838h-176v115q-104 -125 -203 -125h-21zM258 209h59q26 0 40 14.5t24 46.5l68 240l-136 -59q-49 -19 -69 -89l-29 -94q-8 -31 2 -45t41 -14z" />
    <glyph glyph-name="atilde" unicode="&#xe3;" horiz-adv-x="815" 
d="M326 1229l36 123q19 64 45.5 93.5t77.5 29.5q35 0 103 -37l57 -31q24 -12 29 -12q6 0 10 4.5t4 9.5l21 66h159l-34 -123q-20 -65 -47 -94t-78 -29q-35 0 -103 37l-57 30q-22 13 -27 13q-6 0 -11 -5t-5 -10l-21 -65h-159zM143 -10q-114 0 -154 81.5t-1 217.5l16 55
q38 135 96.5 190.5t173.5 94.5l191 69q41 14 53 56l35 118q8 32 -0.5 46t-38.5 14h-61q-47 0 -66 -62l-33 -114h-219l33 108q40 141 116 207t199 66h97q130 0 185 -82t17 -217l-239 -838h-176v115q-104 -125 -203 -125h-21zM258 209h59q26 0 40 14.5t24 46.5l68 240
l-136 -59q-49 -19 -69 -89l-29 -94q-8 -31 2 -45t41 -14z" />
    <glyph glyph-name="adieresis" unicode="&#xe4;" horiz-adv-x="815" 
d="M309 1198l70 246h221l-70 -246h-221zM600 1198l70 246h221l-70 -246h-221zM143 -10q-114 0 -154 81.5t-1 217.5l16 55q38 135 96.5 190.5t173.5 94.5l191 69q41 14 53 56l35 118q8 32 -0.5 46t-38.5 14h-61q-47 0 -66 -62l-33 -114h-219l33 108q40 141 116 207t199 66h97
q130 0 185 -82t17 -217l-239 -838h-176v115q-104 -125 -203 -125h-21zM258 209h59q26 0 40 14.5t24 46.5l68 240l-136 -59q-49 -19 -69 -89l-29 -94q-8 -31 2 -45t41 -14z" />
    <glyph glyph-name="aring" unicode="&#xe5;" horiz-adv-x="815" 
d="M559 1180q-75 0 -125.5 50.5t-50.5 125.5q0 74 50.5 124t125.5 50q72 0 122 -50.5t50 -123.5q0 -75 -50 -125.5t-122 -50.5zM559 1282q31 0 51.5 21.5t20.5 52.5t-20.5 52.5t-51.5 21.5q-32 0 -54 -21.5t-22 -52.5t22 -52.5t54 -21.5zM143 -10q-114 0 -154 81.5t-1 217.5
l16 55q38 135 96.5 190.5t173.5 94.5l191 69q41 14 53 56l35 118q8 32 -0.5 46t-38.5 14h-61q-47 0 -66 -62l-33 -114h-219l33 108q40 141 116 207t199 66h97q130 0 185 -82t17 -217l-239 -838h-176v115q-104 -125 -203 -125h-21zM258 209h59q26 0 40 14.5t24 46.5l68 240
l-136 -59q-49 -19 -69 -89l-29 -94q-8 -31 2 -45t41 -14z" />
    <glyph glyph-name="ae" unicode="&#xe6;" horiz-adv-x="1210" 
d="M143 -10q-114 0 -154 81.5t-1 217.5l16 55q38 135 96.5 190.5t173.5 94.5l191 69q41 14 53 56l35 118q8 32 -0.5 46t-38.5 14h-61q-47 0 -66 -62l-33 -114h-219l33 108q40 141 116 207t199 66h76q58 0 95 -26.5t48 -74.5q38 46 87 73.5t98 27.5h108q130 0 185.5 -82.5
t17.5 -216.5l-100 -349h-416l-64 -223q-17 -59 44 -59h63q26 0 39.5 14.5t21.5 46.5l33 111h242l-33 -117q-41 -141 -116.5 -206.5t-198.5 -65.5h-64q-91 0 -147.5 43t-67.5 117q-117 -160 -229 -160h-62zM737 680h174l52 180q18 60 -43 60h-68q-48 0 -64 -62zM258 209h59
q26 0 40 14.5t24 46.5l68 240l-136 -59q-49 -19 -69 -89l-29 -94q-8 -31 2 -45t41 -14z" />
    <glyph glyph-name="ccedilla" unicode="&#xe7;" horiz-adv-x="839" 
d="M217 -10q-130 0 -185.5 82.5t-17.5 216.5l166 575q40 141 116.5 207t199.5 66h129q130 0 185 -82.5t17 -216.5l-55 -193h-242l62 215q18 60 -43 60h-62q-26 0 -40.5 -15.5t-22.5 -46.5l-170 -592q-17 -59 43 -59h63q26 0 40 15t22 46l55 193h242l-55 -199
q-41 -141 -117 -206.5t-199 -65.5h-131zM137 -317l74 245h139v-245h-213z" />
    <glyph glyph-name="egrave" unicode="&#xe8;" horiz-adv-x="839" 
d="M438 1198l-155 246h235l119 -246h-199zM217 -10q-130 0 -185.5 82.5t-17.5 216.5l166 575q40 141 116.5 207t199.5 66h129q130 0 185 -82.5t17 -216.5l-100 -349h-416l-63 -223q-17 -59 43 -59h63q26 0 40 15t22 46l33 111h241l-33 -117q-41 -141 -116.5 -206.5
t-198.5 -65.5h-125zM367 680h174l51 180q18 60 -43 60h-68q-26 0 -40.5 -15.5t-22.5 -46.5z" />
    <glyph glyph-name="eacute" unicode="&#xe9;" horiz-adv-x="839" 
d="M473 1198l156 246h245l-215 -246h-186zM217 -10q-130 0 -185.5 82.5t-17.5 216.5l166 575q40 141 116.5 207t199.5 66h129q130 0 185 -82.5t17 -216.5l-100 -349h-416l-63 -223q-17 -59 43 -59h63q26 0 40 15t22 46l33 111h241l-33 -117q-41 -141 -116.5 -206.5
t-198.5 -65.5h-125zM367 680h174l51 180q18 60 -43 60h-68q-26 0 -40.5 -15.5t-22.5 -46.5z" />
    <glyph glyph-name="ecircumflex" unicode="&#xea;" horiz-adv-x="839" 
d="M287 1198l272 246h174l133 -246h-192l-51 125l-121 -125h-215zM217 -10q-130 0 -185.5 82.5t-17.5 216.5l166 575q40 141 116.5 207t199.5 66h129q130 0 185 -82.5t17 -216.5l-100 -349h-416l-63 -223q-17 -59 43 -59h63q26 0 40 15t22 46l33 111h241l-33 -117
q-41 -141 -116.5 -206.5t-198.5 -65.5h-125zM367 680h174l51 180q18 60 -43 60h-68q-26 0 -40.5 -15.5t-22.5 -46.5z" />
    <glyph glyph-name="edieresis" unicode="&#xeb;" horiz-adv-x="839" 
d="M319 1198l70 246h221l-69 -246h-222zM610 1198l70 246h221l-70 -246h-221zM217 -10q-130 0 -185.5 82.5t-17.5 216.5l166 575q40 141 116.5 207t199.5 66h129q130 0 185 -82.5t17 -216.5l-100 -349h-416l-63 -223q-17 -59 43 -59h63q26 0 40 15t22 46l33 111h241
l-33 -117q-41 -141 -116.5 -206.5t-198.5 -65.5h-125zM367 680h174l51 180q18 60 -43 60h-68q-26 0 -40.5 -15.5t-22.5 -46.5z" />
    <glyph glyph-name="igrave" unicode="&#xec;" horiz-adv-x="450" 
d="M270 1198l-155 246h235l119 -246h-199zM-57 0l321 1126h246l-322 -1126h-245z" />
    <glyph glyph-name="iacute" unicode="&#xed;" horiz-adv-x="450" 
d="M305 1198l156 246h246l-215 -246h-187zM-57 0l321 1126h246l-322 -1126h-245z" />
    <glyph glyph-name="icircumflex" unicode="&#xee;" horiz-adv-x="450" 
d="M119 1198l272 246h174l133 -246h-192l-51 125l-121 -125h-215zM-57 0l321 1126h246l-322 -1126h-245z" />
    <glyph glyph-name="idieresis" unicode="&#xef;" horiz-adv-x="450" 
d="M152 1198l69 246h221l-69 -246h-221zM442 1198l70 246h221l-69 -246h-222zM-57 0l321 1126h246l-322 -1126h-245z" />
    <glyph glyph-name="eth" unicode="&#xf0;" horiz-adv-x="860" 
d="M217 -10q-130 0 -185.5 82.5t-17.5 216.5l144 497q37 129 110.5 201t184.5 72h8q107 0 180 -109l10 8l-78 220l-231 -84l49 176l133 47l-45 127h232l18 -53l236 84l-52 -177l-139 -49l57 -174q47 -142 -2 -311l-145 -502q-41 -141 -116.5 -206.5t-198.5 -65.5h-152z
M297 207h80q26 0 39.5 14.5t21.5 46.5l146 506q9 31 0 45.5t-39 14.5h-82q-48 0 -64 -62l-145 -506q-17 -59 43 -59z" />
    <glyph glyph-name="ntilde" unicode="&#xf1;" horiz-adv-x="870" 
d="M356 1229l37 123q19 64 45.5 93.5t77.5 29.5q34 0 102 -37l58 -31q24 -12 29 -12q6 0 10 4.5t4 9.5l20 66h160l-35 -123q-20 -65 -47 -94t-78 -29q-34 0 -102 37l-57 30q-22 13 -27 13q-6 0 -11 -5t-5 -10l-21 -65h-160zM-57 0l321 1126h176v-122q118 133 232 133h28
q106 0 151 -83t7 -216l-240 -838h-245l243 852q17 59 -43 59h-77q-27 0 -41.5 -15t-22.5 -46l-244 -850h-245z" />
    <glyph glyph-name="ograve" unicode="&#xf2;" horiz-adv-x="849" 
d="M475 1198l-156 246h236l119 -246h-199zM217 -10q-130 0 -185.5 82.5t-17.5 216.5l166 575q40 141 116.5 207t199.5 66h149q130 0 185.5 -82.5t17.5 -216.5l-164 -576q-41 -141 -116.5 -206.5t-198.5 -65.5h-152zM297 207h80q26 0 39.5 14.5t21.5 46.5l170 592
q18 60 -43 60h-78q-26 0 -40.5 -15.5t-22.5 -46.5l-170 -592q-17 -59 43 -59z" />
    <glyph glyph-name="oacute" unicode="&#xf3;" horiz-adv-x="849" 
d="M510 1198l156 246h245l-215 -246h-186zM217 -10q-130 0 -185.5 82.5t-17.5 216.5l166 575q40 141 116.5 207t199.5 66h149q130 0 185.5 -82.5t17.5 -216.5l-164 -576q-41 -141 -116.5 -206.5t-198.5 -65.5h-152zM297 207h80q26 0 39.5 14.5t21.5 46.5l170 592
q18 60 -43 60h-78q-26 0 -40.5 -15.5t-22.5 -46.5l-170 -592q-17 -59 43 -59z" />
    <glyph glyph-name="ocircumflex" unicode="&#xf4;" horiz-adv-x="849" 
d="M324 1198l272 246h174l133 -246h-192l-52 125l-120 -125h-215zM217 -10q-130 0 -185.5 82.5t-17.5 216.5l166 575q40 141 116.5 207t199.5 66h149q130 0 185.5 -82.5t17.5 -216.5l-164 -576q-41 -141 -116.5 -206.5t-198.5 -65.5h-152zM297 207h80q26 0 39.5 14.5
t21.5 46.5l170 592q18 60 -43 60h-78q-26 0 -40.5 -15.5t-22.5 -46.5l-170 -592q-17 -59 43 -59z" />
    <glyph glyph-name="otilde" unicode="&#xf5;" horiz-adv-x="849" 
d="M373 1229l37 123q19 65 45 94t77 29q35 0 103 -37l57 -31q24 -12 29 -12q6 0 10 4.5t4 9.5l21 66h159l-34 -123q-20 -65 -47 -94t-78 -29q-35 0 -103 37l-57 30q-22 13 -27 13q-6 0 -11 -5t-5 -10l-21 -65h-159zM217 -10q-130 0 -185.5 82.5t-17.5 216.5l166 575
q40 141 116.5 207t199.5 66h149q130 0 185.5 -82.5t17.5 -216.5l-164 -576q-41 -141 -116.5 -206.5t-198.5 -65.5h-152zM297 207h80q26 0 39.5 14.5t21.5 46.5l170 592q18 60 -43 60h-78q-26 0 -40.5 -15.5t-22.5 -46.5l-170 -592q-17 -59 43 -59z" />
    <glyph glyph-name="odieresis" unicode="&#xf6;" horiz-adv-x="849" 
d="M356 1198l70 246h221l-69 -246h-222zM647 1198l70 246h221l-70 -246h-221zM217 -10q-130 0 -185.5 82.5t-17.5 216.5l166 575q40 141 116.5 207t199.5 66h149q130 0 185.5 -82.5t17.5 -216.5l-164 -576q-41 -141 -116.5 -206.5t-198.5 -65.5h-152zM297 207h80
q26 0 39.5 14.5t21.5 46.5l170 592q18 60 -43 60h-78q-26 0 -40.5 -15.5t-22.5 -46.5l-170 -592q-17 -59 43 -59z" />
    <glyph glyph-name="divide" unicode="&#xf7;" 
d="M412 848l73 258h242l-74 -258h-241zM84 532l59 205h717l-59 -205h-717zM217 164l74 258h241l-73 -258h-242z" />
    <glyph glyph-name="oslash" unicode="&#xf8;" horiz-adv-x="860" 
d="M217 -10q-90 0 -143 41l-27 -31h-207l160 184q-3 43 14 105l166 575q40 141 116.5 207t199.5 66h149q90 0 143 -41l27 30h207l-160 -184q3 -42 -14 -104l-164 -576q-41 -141 -116.5 -206.5t-198.5 -65.5h-152zM344 584l268 307q-6 29 -47 29h-78q-26 0 -40.5 -15.5
t-22.5 -46.5zM297 207h80q26 0 39.5 14.5t21.5 46.5l80 275l-268 -307q6 -29 47 -29z" />
    <glyph glyph-name="ugrave" unicode="&#xf9;" horiz-adv-x="897" 
d="M500 1198l-156 246h236l118 -246h-198zM201 -10q-107 0 -152.5 83.5t-7.5 215.5l240 837h245l-243 -852q-8 -31 2 -45t41 -14h77q27 0 41.5 15t24.5 46l242 850h245l-321 -1126h-176v123q-55 -64 -115 -98.5t-115 -34.5h-28z" />
    <glyph glyph-name="uacute" unicode="&#xfa;" horiz-adv-x="870" 
d="M508 1198l156 246h245l-215 -246h-186zM174 -10q-107 0 -152.5 83.5t-7.5 215.5l240 837h246l-244 -852q-8 -31 2 -45t41 -14h78q26 0 40.5 15t24.5 46l242 850h246l-322 -1126h-176v123q-55 -64 -115 -98.5t-114 -34.5h-29z" />
    <glyph glyph-name="ucircumflex" unicode="&#xfb;" horiz-adv-x="870" 
d="M322 1198l272 246h174l133 -246h-192l-52 125l-120 -125h-215zM174 -10q-107 0 -152.5 83.5t-7.5 215.5l240 837h246l-244 -852q-8 -31 2 -45t41 -14h78q26 0 40.5 15t24.5 46l242 850h246l-322 -1126h-176v123q-55 -64 -115 -98.5t-114 -34.5h-29z" />
    <glyph glyph-name="udieresis" unicode="&#xfc;" horiz-adv-x="870" 
d="M354 1198l70 246h221l-70 -246h-221zM645 1198l70 246h221l-70 -246h-221zM174 -10q-107 0 -152.5 83.5t-7.5 215.5l240 837h246l-244 -852q-8 -31 2 -45t41 -14h78q26 0 40.5 15t24.5 46l242 850h246l-322 -1126h-176v123q-55 -64 -115 -98.5t-114 -34.5h-29z" />
    <glyph glyph-name="yacute" unicode="&#xfd;" horiz-adv-x="778" 
d="M475 1198l156 246h246l-215 -246h-187zM-154 -317l64 225h92q60 0 84 35l111 1183h235l-61 -473l-80 -428h8l358 901h256l-538 -1171q-129 -272 -359 -272h-170z" />
    <glyph glyph-name="thorn" unicode="&#xfe;" horiz-adv-x="874" 
d="M-147 -317l505 1761h246l-123 -424q50 56 102.5 86.5t94.5 30.5h24q106 0 150.5 -83t7.5 -216l-162 -576q-78 -272 -295 -272h-8q-120 0 -176 112l-121 -419h-245zM311 215h82q27 0 41.5 15t22.5 46l161 576q17 59 -43 59h-79q-27 0 -41.5 -15t-22.5 -46l-164 -576
q-17 -59 43 -59z" />
    <glyph glyph-name="ydieresis" unicode="&#xff;" horiz-adv-x="778" 
d="M322 1198l69 246h221l-69 -246h-221zM612 1198l70 246h221l-69 -246h-222zM-154 -317l64 225h92q60 0 84 35l111 1183h235l-61 -473l-80 -428h8l358 901h256l-538 -1171q-129 -272 -359 -272h-170z" />
    <glyph glyph-name="Amacron" unicode="&#x100;" horiz-adv-x="872" 
d="M500 1536l53 184h430l-53 -184h-430zM-109 0l570 1434h442l-241 -1434h-254l51 270h-205l-100 -270h-263zM340 508h164l131 690h-41z" />
    <glyph glyph-name="amacron" unicode="&#x101;" horiz-adv-x="815" 
d="M358 1229l54 184h430l-54 -184h-430zM143 -10q-114 0 -154 81.5t-1 217.5l16 55q38 135 96.5 190.5t173.5 94.5l191 69q41 14 53 56l35 118q8 32 -0.5 46t-38.5 14h-61q-47 0 -66 -62l-33 -114h-219l33 108q40 141 116 207t199 66h97q130 0 185 -82t17 -217l-239 -838
h-176v115q-104 -125 -203 -125h-21zM258 209h59q26 0 40 14.5t24 46.5l68 240l-136 -59q-49 -19 -69 -89l-29 -94q-8 -31 2 -45t41 -14z" />
    <glyph glyph-name="Abreve" unicode="&#x102;" horiz-adv-x="872" 
d="M676 1526q-94 0 -128.5 59t-8.5 148l4 18h170l-11 -41q-7 -26 0 -35.5t31 -9.5h51q21 0 31 11t16 36l11 39h170l-11 -39q-26 -99 -77 -142.5t-136 -43.5h-112zM-109 0l570 1434h442l-241 -1434h-254l51 270h-205l-100 -270h-263zM340 508h164l131 690h-41z" />
    <glyph glyph-name="abreve" unicode="&#x103;" horiz-adv-x="815" 
d="M535 1219q-94 0 -129 58.5t-9 147.5l4 19h170l-10 -41q-7 -26 0 -35.5t31 -9.5h51q21 0 31 11t16 36l10 39h170l-10 -39q-26 -99 -77 -142.5t-136 -43.5h-112zM143 -10q-114 0 -154 81.5t-1 217.5l16 55q38 135 96.5 190.5t173.5 94.5l191 69q41 14 53 56l35 118
q8 32 -0.5 46t-38.5 14h-61q-47 0 -66 -62l-33 -114h-219l33 108q40 141 116 207t199 66h97q130 0 185 -82t17 -217l-239 -838h-176v115q-104 -125 -203 -125h-21zM258 209h59q26 0 40 14.5t24 46.5l68 240l-136 -59q-49 -19 -69 -89l-29 -94q-8 -31 2 -45t41 -14z" />
    <glyph glyph-name="Aogonek" unicode="&#x104;" horiz-adv-x="872" 
d="M-109 0l570 1434h442l-241 -1434h-254l51 270h-205l-100 -270h-263zM340 508h164l131 690h-41zM416 -317v245h139l74 -245h-213z" />
    <glyph glyph-name="aogonek" unicode="&#x105;" horiz-adv-x="815" 
d="M143 -10q-114 0 -154 81.5t-1 217.5l16 55q38 135 96.5 190.5t173.5 94.5l191 69q41 14 53 56l35 118q8 32 -0.5 46t-38.5 14h-61q-47 0 -66 -62l-33 -114h-219l33 108q40 141 116 207t199 66h97q130 0 185 -82t17 -217l-239 -838h-176v115q-104 -125 -203 -125h-21z
M258 209h59q26 0 40 14.5t24 46.5l68 240l-136 -59q-49 -19 -69 -89l-29 -94q-8 -31 2 -45t41 -14zM371 -317v245h139l74 -245h-213z" />
    <glyph glyph-name="Cacute" unicode="&#x106;" horiz-adv-x="919" 
d="M627 1505l155 246h246l-215 -246h-186zM279 -10q-81 0 -139 28t-84.5 76t-32 112t17.5 136l223 784q49 171 135 244.5t228 73.5h112q81 0 139 -28t84.5 -76t32 -112t-17.5 -136l-72 -252h-250l84 290q21 76 -55 76h-82q-35 0 -53 -19.5t-29 -60.5l-235 -823
q-21 -76 55 -76h82q35 0 53 19.5t29 60.5l76 266h251l-75 -266q-49 -170 -135 -243.5t-228 -73.5h-114z" />
    <glyph glyph-name="cacute" unicode="&#x107;" horiz-adv-x="839" 
d="M473 1198l156 246h245l-215 -246h-186zM217 -10q-130 0 -185.5 82.5t-17.5 216.5l166 575q40 141 116.5 207t199.5 66h129q130 0 185 -82.5t17 -216.5l-55 -193h-242l62 215q18 60 -43 60h-62q-26 0 -40.5 -15.5t-22.5 -46.5l-170 -592q-17 -59 43 -59h63q26 0 40 15
t22 46l55 193h242l-55 -199q-41 -141 -117 -206.5t-199 -65.5h-131z" />
    <glyph glyph-name="Cdotaccent" unicode="&#x10a;" horiz-adv-x="919" 
d="M606 1505l70 246h246l-70 -246h-246zM279 -10q-81 0 -139 28t-84.5 76t-32 112t17.5 136l223 784q49 171 135 244.5t228 73.5h112q81 0 139 -28t84.5 -76t32 -112t-17.5 -136l-72 -252h-250l84 290q21 76 -55 76h-82q-35 0 -53 -19.5t-29 -60.5l-235 -823q-21 -76 55 -76
h82q35 0 53 19.5t29 60.5l76 266h251l-75 -266q-49 -170 -135 -243.5t-228 -73.5h-114z" />
    <glyph glyph-name="cdotaccent" unicode="&#x10b;" horiz-adv-x="839" 
d="M453 1198l69 246h246l-70 -246h-245zM217 -10q-130 0 -185.5 82.5t-17.5 216.5l166 575q40 141 116.5 207t199.5 66h129q130 0 185 -82.5t17 -216.5l-55 -193h-242l62 215q18 60 -43 60h-62q-26 0 -40.5 -15.5t-22.5 -46.5l-170 -592q-17 -59 43 -59h63q26 0 40 15t22 46
l55 193h242l-55 -199q-41 -141 -117 -206.5t-199 -65.5h-131z" />
    <glyph glyph-name="Ccaron" unicode="&#x10c;" horiz-adv-x="919" 
d="M643 1505l-133 246h192l52 -125l120 125h216l-273 -246h-174zM279 -10q-81 0 -139 28t-84.5 76t-32 112t17.5 136l223 784q49 171 135 244.5t228 73.5h112q81 0 139 -28t84.5 -76t32 -112t-17.5 -136l-72 -252h-250l84 290q21 76 -55 76h-82q-35 0 -53 -19.5t-29 -60.5
l-235 -823q-21 -76 55 -76h82q35 0 53 19.5t29 60.5l76 266h251l-75 -266q-49 -170 -135 -243.5t-228 -73.5h-114z" />
    <glyph glyph-name="ccaron" unicode="&#x10d;" horiz-adv-x="839" 
d="M489 1198l-133 246h193l51 -125l121 125h215l-272 -246h-175zM217 -10q-130 0 -185.5 82.5t-17.5 216.5l166 575q40 141 116.5 207t199.5 66h129q130 0 185 -82.5t17 -216.5l-55 -193h-242l62 215q18 60 -43 60h-62q-26 0 -40.5 -15.5t-22.5 -46.5l-170 -592
q-17 -59 43 -59h63q26 0 40 15t22 46l55 193h242l-55 -199q-41 -141 -117 -206.5t-199 -65.5h-131z" />
    <glyph glyph-name="Dcaron" unicode="&#x10e;" horiz-adv-x="960" 
d="M588 1505l-133 246h192l51 -125l121 125h215l-272 -246h-174zM-47 0l409 1434h408q81 0 139 -28t84.5 -76t32 -112.5t-17.5 -136.5l-220 -764q-49 -171 -134.5 -244t-227.5 -73h-473zM276 238h175q35 0 52.5 19t28.5 60l232 803q21 76 -55 76h-158z" />
    <glyph glyph-name="dcaron" unicode="&#x10f;" horiz-adv-x="1079" 
d="M172 -10q-106 0 -151 83t-7 216l168 575q35 128 109 200.5t186 72.5h8q114 0 172 -111l119 418h246l-412 -1444h-180v123q-55 -64 -115 -98.5t-114 -34.5h-29zM1032 1116l92 328h228l-172 -328h-148zM301 215h78q26 0 40.5 15t24.5 46l164 576q17 59 -43 59h-80
q-26 0 -39.5 -14.5t-21.5 -46.5l-166 -576q-8 -31 2 -45t41 -14z" />
    <glyph glyph-name="Dcroat" unicode="&#x110;" horiz-adv-x="980" 
d="M-27 0l181 631h-113l49 172h113l180 631h408q81 0 138.5 -28t84 -76t32 -112.5t-17.5 -136.5l-219 -764q-49 -170 -135 -243.5t-228 -73.5h-473zM297 238h174q35 0 53 19t29 60l231 803q21 76 -55 76h-158l-112 -393h121l-50 -172h-120z" />
    <glyph glyph-name="dcroat" unicode="&#x111;" horiz-adv-x="872" 
d="M172 -10q-106 0 -151 83t-7 216l156 534q37 129 110.5 201t184.5 72h8q114 0 172 -111l51 178h-213l49 172h213l31 109h246l-31 -109h103l-50 -172h-102l-332 -1163h-180v123q-55 -64 -115 -98.5t-114 -34.5h-29zM301 215h78q26 0 40.5 15t24.5 46l152 535q17 59 -43 59
h-80q-26 0 -39.5 -14.5t-21.5 -46.5l-154 -535q-8 -31 2 -45t41 -14z" />
    <glyph glyph-name="Emacron" unicode="&#x112;" horiz-adv-x="757" 
d="M444 1536l54 184h430l-54 -184h-430zM-47 0l409 1434h553l-67 -238h-301l-103 -360h281l-70 -238h-280l-103 -360h301l-67 -238h-553z" />
    <glyph glyph-name="emacron" unicode="&#x113;" horiz-adv-x="839" 
d="M369 1229l53 184h430l-53 -184h-430zM217 -10q-130 0 -185.5 82.5t-17.5 216.5l166 575q40 141 116.5 207t199.5 66h129q130 0 185 -82.5t17 -216.5l-100 -349h-416l-63 -223q-17 -59 43 -59h63q26 0 40 15t22 46l33 111h241l-33 -117q-41 -141 -116.5 -206.5
t-198.5 -65.5h-125zM367 680h174l51 180q18 60 -43 60h-68q-26 0 -40.5 -15.5t-22.5 -46.5z" />
    <glyph glyph-name="Edotaccent" unicode="&#x116;" horiz-adv-x="757" 
d="M528 1505l70 246h246l-70 -246h-246zM-47 0l409 1434h553l-67 -238h-301l-103 -360h281l-70 -238h-280l-103 -360h301l-67 -238h-553z" />
    <glyph glyph-name="edotaccent" unicode="&#x117;" horiz-adv-x="839" 
d="M453 1198l69 246h246l-70 -246h-245zM217 -10q-130 0 -185.5 82.5t-17.5 216.5l166 575q40 141 116.5 207t199.5 66h129q130 0 185 -82.5t17 -216.5l-100 -349h-416l-63 -223q-17 -59 43 -59h63q26 0 40 15t22 46l33 111h241l-33 -117q-41 -141 -116.5 -206.5
t-198.5 -65.5h-125zM367 680h174l51 180q18 60 -43 60h-68q-26 0 -40.5 -15.5t-22.5 -46.5z" />
    <glyph glyph-name="Eogonek" unicode="&#x118;" horiz-adv-x="757" 
d="M-47 0l409 1434h553l-67 -238h-301l-103 -360h281l-70 -238h-280l-103 -360h301l-67 -238h-553zM229 -317v245h140l73 -245h-213z" />
    <glyph glyph-name="eogonek" unicode="&#x119;" horiz-adv-x="839" 
d="M217 -10q-130 0 -185.5 82.5t-17.5 216.5l166 575q40 141 116.5 207t199.5 66h129q130 0 185 -82.5t17 -216.5l-100 -349h-416l-63 -223q-17 -59 43 -59h63q26 0 40 15t22 46l33 111h241l-33 -117q-41 -141 -116.5 -206.5t-198.5 -65.5h-125zM367 680h174l51 180
q18 60 -43 60h-68q-26 0 -40.5 -15.5t-22.5 -46.5zM254 -317v245h139l74 -245h-213z" />
    <glyph glyph-name="Ecaron" unicode="&#x11a;" horiz-adv-x="757" 
d="M565 1505l-133 246h193l51 -125l121 125h215l-273 -246h-174zM-47 0l409 1434h553l-67 -238h-301l-103 -360h281l-70 -238h-280l-103 -360h301l-67 -238h-553z" />
    <glyph glyph-name="ecaron" unicode="&#x11b;" horiz-adv-x="839" 
d="M489 1198l-133 246h193l51 -125l121 125h215l-272 -246h-175zM217 -10q-130 0 -185.5 82.5t-17.5 216.5l166 575q40 141 116.5 207t199.5 66h129q130 0 185 -82.5t17 -216.5l-100 -349h-416l-63 -223q-17 -59 43 -59h63q26 0 40 15t22 46l33 111h241l-33 -117
q-41 -141 -116.5 -206.5t-198.5 -65.5h-125zM367 680h174l51 180q18 60 -43 60h-68q-26 0 -40.5 -15.5t-22.5 -46.5z" />
    <glyph glyph-name="Gbreve" unicode="&#x11e;" horiz-adv-x="952" 
d="M670 1526q-94 0 -129 59t-9 148l5 18h170l-11 -41q-7 -26 0 -35.5t31 -9.5h51q21 0 31 11t16 36l11 39h170l-11 -39q-26 -99 -77 -142.5t-136 -43.5h-112zM279 -10q-81 0 -139 28t-84.5 76t-32 112t17.5 136l223 784q49 171 135 244.5t228 73.5h112q81 0 139 -28
t84.5 -76t32 -112t-17.5 -136l-49 -174h-246l63 212q21 76 -55 76h-88q-35 0 -53 -19.5t-29 -60.5l-235 -823q-21 -76 55 -76h88q78 0 100 80l58 199h-119l65 231h359l-211 -737h-164l2 137q-47 -69 -108 -108t-127 -39h-4z" />
    <glyph glyph-name="gbreve" unicode="&#x11f;" horiz-adv-x="874" 
d="M561 1219q-94 0 -128.5 58.5t-8.5 147.5l4 19h170l-10 -41q-7 -26 -0.5 -35.5t30.5 -9.5h52q21 0 31 11t16 36l10 39h170l-10 -39q-26 -99 -77 -142.5t-136 -43.5h-113zM143 -317q-130 0 -184.5 82.5t-17.5 216.5l10 32h233l-16 -55q-8 -31 2 -45t41 -14h80
q26 0 39.5 14.5t23.5 46.5l72 252q-49 -58 -103.5 -89.5t-97.5 -31.5h-24q-106 0 -148.5 82.5t-7.5 216.5l135 473q32 127 106.5 200t186.5 73h8q132 0 197 -133l76 122h178l-334 -1171q-41 -141 -116.5 -206.5t-198.5 -65.5h-140zM328 317h82q26 0 39.5 15t23.5 47l135 473
q17 59 -43 59h-80q-27 0 -41 -15t-22 -46l-135 -473q-18 -60 41 -60z" />
    <glyph glyph-name="Gdotaccent" unicode="&#x120;" horiz-adv-x="952" 
d="M578 1505l69 246h246l-70 -246h-245zM279 -10q-81 0 -139 28t-84.5 76t-32 112t17.5 136l223 784q49 171 135 244.5t228 73.5h112q81 0 139 -28t84.5 -76t32 -112t-17.5 -136l-49 -174h-246l63 212q21 76 -55 76h-88q-35 0 -53 -19.5t-29 -60.5l-235 -823q-21 -76 55 -76
h88q78 0 100 80l58 199h-119l65 231h359l-211 -737h-164l2 137q-47 -69 -108 -108t-127 -39h-4z" />
    <glyph glyph-name="gdotaccent" unicode="&#x121;" horiz-adv-x="874" 
d="M469 1198l70 246h245l-69 -246h-246zM143 -317q-130 0 -184.5 82.5t-17.5 216.5l10 32h233l-16 -55q-8 -31 2 -45t41 -14h80q26 0 39.5 14.5t23.5 46.5l72 252q-49 -58 -103.5 -89.5t-97.5 -31.5h-24q-106 0 -148.5 82.5t-7.5 216.5l135 473q32 127 106.5 200t186.5 73h8
q132 0 197 -133l76 122h178l-334 -1171q-41 -141 -116.5 -206.5t-198.5 -65.5h-140zM328 317h82q26 0 39.5 15t23.5 47l135 473q17 59 -43 59h-80q-27 0 -41 -15t-22 -46l-135 -473q-18 -60 41 -60z" />
    <glyph glyph-name="uni0122" unicode="&#x122;" horiz-adv-x="952" 
d="M279 -10q-81 0 -139 28t-84.5 76t-32 112t17.5 136l223 784q49 171 135 244.5t228 73.5h112q81 0 139 -28t84.5 -76t32 -112t-17.5 -136l-49 -174h-246l63 212q21 76 -55 76h-88q-35 0 -53 -19.5t-29 -60.5l-235 -823q-21 -76 55 -76h88q78 0 100 80l58 199h-119l65 231
h359l-211 -737h-164l2 137q-47 -69 -108 -108t-127 -39h-4zM186 -317v245h213l-73 -245h-140z" />
    <glyph glyph-name="uni0123" unicode="&#x123;" horiz-adv-x="874" 
d="M539 1200l143 246h139l-69 -246h-213zM143 -317q-130 0 -184.5 82.5t-17.5 216.5l10 32h233l-16 -55q-8 -31 2 -45t41 -14h80q26 0 39.5 14.5t23.5 46.5l72 252q-49 -58 -103.5 -89.5t-97.5 -31.5h-24q-106 0 -148.5 82.5t-7.5 216.5l135 473q32 127 106.5 200t186.5 73
h8q132 0 197 -133l76 122h178l-334 -1171q-41 -141 -116.5 -206.5t-198.5 -65.5h-140zM328 317h82q26 0 39.5 15t23.5 47l135 473q17 59 -43 59h-80q-27 0 -41 -15t-22 -46l-135 -473q-18 -60 41 -60z" />
    <glyph glyph-name="Hbar" unicode="&#x126;" horiz-adv-x="1003" 
d="M-27 0l303 1061h-112l49 172h113l57 201h256l-57 -201h225l57 201h256l-57 -201h113l-50 -172h-112l-303 -1061h-256l170 598h-226l-170 -598h-256zM469 836h225l64 225h-226z" />
    <glyph glyph-name="hbar" unicode="&#x127;" horiz-adv-x="870" 
d="M-57 0l331 1163h-102l49 172h103l30 109h246l-31 -109h213l-49 -172h-215l-55 -186q50 57 103 88t96 31h26q106 0 150 -83t6 -216l-226 -797h-245l229 811q17 59 -43 59h-80q-27 0 -41 -15t-22 -46l-228 -809h-245z" />
    <glyph glyph-name="Imacron" unicode="&#x12a;" horiz-adv-x="481" 
d="M305 1536l53 184h430l-53 -184h-430zM-47 0l409 1434h256l-409 -1434h-256z" />
    <glyph glyph-name="imacron" unicode="&#x12b;" horiz-adv-x="450" 
d="M201 1229l53 184h430l-53 -184h-430zM-57 0l321 1126h246l-322 -1126h-245z" />
    <glyph glyph-name="Iogonek" unicode="&#x12e;" horiz-adv-x="481" 
d="M-47 0l409 1434h256l-409 -1434h-256zM-47 -317v245h139l74 -245h-213z" />
    <glyph glyph-name="iogonek" unicode="&#x12f;" horiz-adv-x="432" 
d="M285 1198l69 246h246l-70 -246h-245zM-57 0l321 1126h246l-322 -1126h-245zM-55 -317v245h139l74 -245h-213z" />
    <glyph glyph-name="Idotaccent" unicode="&#x130;" horiz-adv-x="481" 
d="M389 1505l70 246h246l-70 -246h-246zM-47 0l409 1434h256l-409 -1434h-256z" />
    <glyph glyph-name="dotlessi" unicode="&#x131;" horiz-adv-x="450" 
d="M-57 0l321 1126h246l-322 -1126h-245z" />
    <glyph glyph-name="uni0136" unicode="&#x136;" horiz-adv-x="917" 
d="M-47 0l409 1434h256l-169 -598h47l348 598h262l-412 -697l21 -737h-256l-2 598h-78l-170 -598h-256zM190 -317v245h213l-73 -245h-140z" />
    <glyph glyph-name="uni0137" unicode="&#x137;" horiz-adv-x="835" 
d="M-57 0l413 1444h246l-219 -768h49l268 450h242l-332 -561l15 -565h-242v451h-66l-129 -451h-245zM133 -317v245h213l-74 -245h-139z" />
    <glyph glyph-name="Lacute" unicode="&#x139;" horiz-adv-x="727" 
d="M420 1505l155 246h246l-215 -246h-186zM-47 0l409 1434h256l-342 -1196h318l-68 -238h-573z" />
    <glyph glyph-name="lacute" unicode="&#x13a;" horiz-adv-x="452" 
d="M395 1516l156 245h246l-215 -245h-187zM-57 0l411 1444h246l-412 -1444h-245z" />
    <glyph glyph-name="uni013B" unicode="&#x13b;" horiz-adv-x="727" 
d="M-47 0l409 1434h256l-342 -1196h318l-68 -238h-573zM121 -317v245h213l-74 -245h-139z" />
    <glyph glyph-name="uni013C" unicode="&#x13c;" horiz-adv-x="452" 
d="M-57 0l411 1444h246l-412 -1444h-245zM-82 -317v245h213l-74 -245h-139z" />
    <glyph glyph-name="Lcaron" unicode="&#x13d;" horiz-adv-x="727" 
d="M-47 0l409 1434h256l-342 -1196h318l-68 -238h-573zM629 1106l92 328h227l-172 -328h-147z" />
    <glyph glyph-name="lcaron" unicode="&#x13e;" horiz-adv-x="657" 
d="M-55 0l411 1444h246l-412 -1444h-245zM612 1116l93 328h227l-172 -328h-148z" />
    <glyph glyph-name="Lslash" unicode="&#x141;" horiz-adv-x="727" 
d="M-47 0l135 475l-129 -65l57 208l134 66l212 750h256l-172 -600l267 133l-58 -209l-268 -133l-111 -387h318l-68 -238h-573z" />
    <glyph glyph-name="lslash" unicode="&#x142;" horiz-adv-x="491" 
d="M-37 0l199 694l-142 -63l50 172l141 63l164 578h246l-129 -451l165 76l-49 -172l-166 -74l-233 -823h-246z" />
    <glyph glyph-name="Nacute" unicode="&#x143;" horiz-adv-x="993" 
d="M649 1505l156 246h246l-215 -246h-187zM-37 0l410 1434h235l41 -813h10l95 383l123 430h243l-409 -1434h-236l-41 813h-10l-94 -383l-123 -430h-244z" />
    <glyph glyph-name="nacute" unicode="&#x144;" horiz-adv-x="870" 
d="M494 1198l155 246h246l-215 -246h-186zM-57 0l321 1126h176v-122q118 133 232 133h28q106 0 151 -83t7 -216l-240 -838h-245l243 852q17 59 -43 59h-77q-27 0 -41.5 -15t-22.5 -46l-244 -850h-245z" />
    <glyph glyph-name="uni0145" unicode="&#x145;" horiz-adv-x="993" 
d="M-37 0l410 1434h235l41 -813h10l95 383l123 430h243l-409 -1434h-236l-41 813h-10l-94 -383l-123 -430h-244zM217 -317v245h213l-74 -245h-139z" />
    <glyph glyph-name="uni0146" unicode="&#x146;" horiz-adv-x="870" 
d="M-57 0l321 1126h176v-122q118 133 232 133h28q106 0 151 -83t7 -216l-240 -838h-245l243 852q17 59 -43 59h-77q-27 0 -41.5 -15t-22.5 -46l-244 -850h-245zM133 -317v245h213l-74 -245h-139z" />
    <glyph glyph-name="Ncaron" unicode="&#x147;" horiz-adv-x="993" 
d="M666 1505l-134 246h193l51 -125l121 125h215l-272 -246h-174zM-37 0l410 1434h235l41 -813h10l95 383l123 430h243l-409 -1434h-236l-41 813h-10l-94 -383l-123 -430h-244z" />
    <glyph glyph-name="ncaron" unicode="&#x148;" horiz-adv-x="870" 
d="M510 1198l-133 246h192l52 -125l120 125h215l-272 -246h-174zM-57 0l321 1126h176v-122q118 133 232 133h28q106 0 151 -83t7 -216l-240 -838h-245l243 852q17 59 -43 59h-77q-27 0 -41.5 -15t-22.5 -46l-244 -850h-245z" />
    <glyph glyph-name="Eng" unicode="&#x14a;" horiz-adv-x="993" 
d="M242 -317l63 225h88q26 0 40 14.5t24 46.5l16 62l-39 782h-10l-94 -383l-123 -430h-244l410 1434h235l41 -813h10l95 383l123 430h243l-422 -1479q-41 -141 -116.5 -206.5t-198.5 -65.5h-141z" />
    <glyph glyph-name="eng" unicode="&#x14b;" horiz-adv-x="870" 
d="M150 -317l63 225h88q26 0 40 14.5t24 46.5l251 883q17 59 -43 59h-77q-27 0 -41.5 -15t-22.5 -46l-244 -850h-245l321 1126h176v-122q55 64 116 98.5t116 34.5h28q106 0 151 -83t7 -216l-252 -883q-41 -141 -116.5 -206.5t-198.5 -65.5h-141z" />
    <glyph glyph-name="Omacron" unicode="&#x14c;" horiz-adv-x="954" 
d="M541 1536l53 184h430l-53 -184h-430zM279 -10q-81 0 -139 28t-84.5 76t-32 112t17.5 136l223 784q49 171 135 244.5t228 73.5h139q81 0 139 -28t84.5 -76t32 -112t-17.5 -136l-224 -785q-49 -171 -134.5 -244t-227.5 -73h-139zM340 227h102q35 0 53 19.5t29 60.5l236 823
q21 76 -55 76h-103q-35 0 -53 -19.5t-29 -60.5l-235 -823q-21 -76 55 -76z" />
    <glyph glyph-name="omacron" unicode="&#x14d;" horiz-adv-x="849" 
d="M406 1229l53 184h430l-53 -184h-430zM217 -10q-130 0 -185.5 82.5t-17.5 216.5l166 575q40 141 116.5 207t199.5 66h149q130 0 185.5 -82.5t17.5 -216.5l-164 -576q-41 -141 -116.5 -206.5t-198.5 -65.5h-152zM297 207h80q26 0 39.5 14.5t21.5 46.5l170 592q18 60 -43 60
h-78q-26 0 -40.5 -15.5t-22.5 -46.5l-170 -592q-17 -59 43 -59z" />
    <glyph glyph-name="Ohungarumlaut" unicode="&#x150;" horiz-adv-x="954" 
d="M479 1505l156 246h246l-215 -246h-187zM766 1505l156 246h245l-215 -246h-186zM279 -10q-81 0 -139 28t-84.5 76t-32 112t17.5 136l223 784q49 171 135 244.5t228 73.5h139q81 0 139 -28t84.5 -76t32 -112t-17.5 -136l-224 -785q-49 -171 -134.5 -244t-227.5 -73h-139z
M340 227h102q35 0 53 19.5t29 60.5l236 823q21 76 -55 76h-103q-35 0 -53 -19.5t-29 -60.5l-235 -823q-21 -76 55 -76z" />
    <glyph glyph-name="ohungarumlaut" unicode="&#x151;" horiz-adv-x="849" 
d="M344 1198l156 246h245l-215 -246h-186zM631 1198l155 246h246l-215 -246h-186zM217 -10q-130 0 -185.5 82.5t-17.5 216.5l166 575q40 141 116.5 207t199.5 66h149q130 0 185.5 -82.5t17.5 -216.5l-164 -576q-41 -141 -116.5 -206.5t-198.5 -65.5h-152zM297 207h80
q26 0 39.5 14.5t21.5 46.5l170 592q18 60 -43 60h-78q-26 0 -40.5 -15.5t-22.5 -46.5l-170 -592q-17 -59 43 -59z" />
    <glyph glyph-name="OE" unicode="&#x152;" horiz-adv-x="1198" 
d="M281 0q-81 0 -139 28t-84.5 76t-32 112t17.5 136l219 764q49 171 135 244.5t228 73.5h731l-68 -238h-280l-103 -360h260l-69 -238h-260l-103 -360h281l-68 -238h-665zM342 238h139l275 958h-156q-35 0 -53 -19.5t-29 -60.5l-231 -803q-21 -75 55 -75z" />
    <glyph glyph-name="oe" unicode="&#x153;" horiz-adv-x="1269" 
d="M217 -10q-130 0 -185.5 82.5t-17.5 216.5l166 575q40 141 116.5 207t199.5 66h108q54 0 88 -32t43 -89q81 121 236 121h84q130 0 185 -82.5t17 -216.5l-100 -349h-416l-63 -223q-17 -59 43 -59h63q26 0 40 15t22 46l33 111h241l-33 -117q-41 -141 -116.5 -206.5
t-198.5 -65.5h-84q-74 0 -122.5 32t-67.5 91q-66 -123 -187 -123h-94zM297 207h80q26 0 39.5 14.5t21.5 46.5l170 592q18 60 -43 60h-78q-26 0 -40.5 -15.5t-22.5 -46.5l-170 -592q-17 -59 43 -59zM797 680h174l51 180q18 60 -43 60h-68q-26 0 -40.5 -15.5t-22.5 -46.5z" />
    <glyph glyph-name="Racute" unicode="&#x154;" horiz-adv-x="911" 
d="M543 1505l155 246h246l-215 -246h-186zM-47 0l409 1434h371q160 0 220.5 -101.5t17.5 -251.5l-58 -198q-67 -231 -225 -293l12 -590h-249l-5 565h-75l-162 -565h-256zM436 795h137q35 0 53 19t29 60l74 254q21 76 -55 76h-121z" />
    <glyph glyph-name="racute" unicode="&#x155;" horiz-adv-x="774" 
d="M473 1198l156 246h245l-215 -246h-186zM-57 0l321 1126h178v-122q114 133 226 133h12q101 0 137 -74t-4 -225l-61 -217h-238l66 231q17 59 -43 59h-43q-26 0 -40 -15t-22 -46l-244 -850h-245z" />
    <glyph glyph-name="uni0156" unicode="&#x156;" horiz-adv-x="911" 
d="M-47 0l409 1434h371q160 0 220.5 -101.5t17.5 -251.5l-58 -198q-67 -231 -225 -293l12 -590h-249l-5 565h-75l-162 -565h-256zM436 795h137q35 0 53 19t29 60l74 254q21 76 -55 76h-121zM197 -317v245h213l-74 -245h-139z" />
    <glyph glyph-name="uni0157" unicode="&#x157;" horiz-adv-x="774" 
d="M-57 0l321 1126h178v-122q114 133 226 133h12q101 0 137 -74t-4 -225l-61 -217h-238l66 231q17 59 -43 59h-43q-26 0 -40 -15t-22 -46l-244 -850h-245zM-82 -317v245h213l-74 -245h-139z" />
    <glyph glyph-name="Rcaron" unicode="&#x158;" horiz-adv-x="911" 
d="M559 1505l-133 246h192l52 -125l121 125h215l-273 -246h-174zM-47 0l409 1434h371q160 0 220.5 -101.5t17.5 -251.5l-58 -198q-67 -231 -225 -293l12 -590h-249l-5 565h-75l-162 -565h-256zM436 795h137q35 0 53 19t29 60l74 254q21 76 -55 76h-121z" />
    <glyph glyph-name="rcaron" unicode="&#x159;" horiz-adv-x="774" 
d="M489 1198l-133 246h193l51 -125l121 125h215l-272 -246h-175zM-57 0l321 1126h178v-122q114 133 226 133h12q101 0 137 -74t-4 -225l-61 -217h-238l66 231q17 59 -43 59h-43q-26 0 -40 -15t-22 -46l-244 -850h-245z" />
    <glyph glyph-name="Sacute" unicode="&#x15a;" horiz-adv-x="866" 
d="M569 1505l156 246h246l-215 -246h-187zM248 -10q-81 0 -139 28t-84.5 76t-32 112t17.5 136l45 158h254l-57 -197q-21 -76 55 -76h78q35 0 53 19.5t29 60.5l16 62q2 6 7 26t6 26t3.5 21.5t1 23.5t-4.5 21t-10 24.5t-17 23.5l-188 227q-52 61 -69.5 135.5t3.5 153.5l21 75
q45 167 133 242.5t229 75.5h90q81 0 139 -28t84.5 -76t32 -112t-17.5 -136l-45 -160h-254l59 198q21 76 -55 76h-58q-35 0 -52.5 -19t-28.5 -61l-19 -61q-20 -53 -17.5 -91t36.5 -79l184 -229q55 -69 71.5 -149t-8.5 -155l-16 -55q-49 -170 -135 -243.5t-228 -73.5h-112z
" />
    <glyph glyph-name="sacute" unicode="&#x15b;" horiz-adv-x="749" 
d="M459 1198l155 246h246l-215 -246h-186zM176 -10q-127 0 -180.5 82.5t-15.5 216.5l34 121h232l-43 -152q-17 -59 43 -59h49q26 0 39.5 14.5t21.5 46.5l13 39q14 35 13.5 70t-28.5 63l-157 168q-97 104 -54 250l9 31q34 120 113 188t190 68h102q127 0 181 -82.5t16 -216.5
l-35 -121h-232l43 153q18 60 -41 60h-43q-52 0 -69 -62l-15 -49q-11 -40 -5.5 -63.5t36.5 -57.5l154 -166q58 -63 68.5 -131.5t-19.5 -160.5l-4 -19q-29 -103 -107.5 -167t-195.5 -64h-113z" />
    <glyph glyph-name="Scedilla" unicode="&#x15e;" horiz-adv-x="866" 
d="M248 -10q-81 0 -139 28t-84.5 76t-32 112t17.5 136l45 158h254l-57 -197q-21 -76 55 -76h78q35 0 53 19.5t29 60.5l16 62q2 6 7 26t6 26t3.5 21.5t1 23.5t-4.5 21t-10 24.5t-17 23.5l-188 227q-52 61 -69.5 135.5t3.5 153.5l21 75q45 167 133 242.5t229 75.5h90
q81 0 139 -28t84.5 -76t32 -112t-17.5 -136l-45 -160h-254l59 198q21 76 -55 76h-58q-35 0 -52.5 -19t-28.5 -61l-19 -61q-20 -53 -17.5 -91t36.5 -79l184 -229q55 -69 71.5 -149t-8.5 -155l-16 -55q-49 -170 -135 -243.5t-228 -73.5h-112zM141 -317l74 245h139v-245h-213z
" />
    <glyph glyph-name="scedilla" unicode="&#x15f;" horiz-adv-x="749" 
d="M176 -10q-127 0 -180.5 82.5t-15.5 216.5l34 121h232l-43 -152q-17 -59 43 -59h49q26 0 39.5 14.5t21.5 46.5l13 39q14 35 13.5 70t-28.5 63l-157 168q-97 104 -54 250l9 31q34 120 113 188t190 68h102q127 0 181 -82.5t16 -216.5l-35 -121h-232l43 153q18 60 -41 60h-43
q-52 0 -69 -62l-15 -49q-11 -40 -5.5 -63.5t36.5 -57.5l154 -166q58 -63 68.5 -131.5t-19.5 -160.5l-4 -19q-29 -103 -107.5 -167t-195.5 -64h-113zM74 -317l73 245h140v-245h-213z" />
    <glyph glyph-name="Scaron" unicode="&#x160;" horiz-adv-x="866" 
d="M586 1505l-133 246h192l51 -125l121 125h215l-272 -246h-174zM248 -10q-81 0 -139 28t-84.5 76t-32 112t17.5 136l45 158h254l-57 -197q-21 -76 55 -76h78q35 0 53 19.5t29 60.5l16 62q2 6 7 26t6 26t3.5 21.5t1 23.5t-4.5 21t-10 24.5t-17 23.5l-188 227
q-52 61 -69.5 135.5t3.5 153.5l21 75q45 167 133 242.5t229 75.5h90q81 0 139 -28t84.5 -76t32 -112t-17.5 -136l-45 -160h-254l59 198q21 76 -55 76h-58q-35 0 -52.5 -19t-28.5 -61l-19 -61q-20 -53 -17.5 -91t36.5 -79l184 -229q55 -69 71.5 -149t-8.5 -155l-16 -55
q-49 -170 -135 -243.5t-228 -73.5h-112z" />
    <glyph glyph-name="scaron" unicode="&#x161;" horiz-adv-x="749" 
d="M475 1198l-133 246h193l51 -125l121 125h215l-273 -246h-174zM176 -10q-127 0 -180.5 82.5t-15.5 216.5l34 121h232l-43 -152q-17 -59 43 -59h49q26 0 39.5 14.5t21.5 46.5l13 39q14 35 13.5 70t-28.5 63l-157 168q-97 104 -54 250l9 31q34 120 113 188t190 68h102
q127 0 181 -82.5t16 -216.5l-35 -121h-232l43 153q18 60 -41 60h-43q-52 0 -69 -62l-15 -49q-11 -40 -5.5 -63.5t36.5 -57.5l154 -166q58 -63 68.5 -131.5t-19.5 -160.5l-4 -19q-29 -103 -107.5 -167t-195.5 -64h-113z" />
    <glyph glyph-name="uni0162" unicode="&#x162;" horiz-adv-x="808" 
d="M117 0l342 1196h-236l68 238h727l-68 -238h-235l-342 -1196h-256zM25 -317l73 245h140v-245h-213z" />
    <glyph glyph-name="uni0163" unicode="&#x163;" horiz-adv-x="616" 
d="M293 0q-130 0 -185.5 82.5t-17.5 216.5l172 602h-143l63 225h144l127 197h176l-56 -197h175l-64 -225h-176l-176 -616q-18 -60 43 -60h114l-63 -225h-133zM88 -317l74 245h139v-245h-213z" />
    <glyph glyph-name="Tcaron" unicode="&#x164;" horiz-adv-x="808" 
d="M590 1505l-133 246h192l51 -125l121 125h215l-272 -246h-174zM117 0l342 1196h-236l68 238h727l-68 -238h-235l-342 -1196h-256z" />
    <glyph glyph-name="tcaron" unicode="&#x165;" horiz-adv-x="755" 
d="M293 0q-130 0 -185.5 82.5t-17.5 216.5l172 602h-143l63 225h144l127 197h176l-56 -197h138l90 318h227l-172 -328h-111l-61 -215h-176l-176 -616q-18 -60 43 -60h114l-63 -225h-133z" />
    <glyph glyph-name="Tbar" unicode="&#x166;" horiz-adv-x="808" 
d="M117 0l180 631h-174l49 172h174l113 393h-236l68 238h727l-68 -238h-235l-113 -393h174l-49 -172h-174l-180 -631h-256z" />
    <glyph glyph-name="tbar" unicode="&#x167;" horiz-adv-x="626" 
d="M293 0q-130 0 -185.5 82.5t-17.5 216.5l51 178h-143l49 172h143l72 252h-143l63 225h144l127 197h176l-56 -197h175l-64 -225h-176l-72 -252h185l-50 -172h-184l-55 -192q-18 -60 43 -60h114l-63 -225h-133z" />
    <glyph glyph-name="Umacron" unicode="&#x16a;" horiz-adv-x="966" 
d="M547 1536l53 184h430l-53 -184h-430zM291 -10q-81 0 -139 28t-85 76t-32.5 112t18.5 136l309 1092h256l-323 -1131q-21 -76 57 -76h94q35 0 52 19t28 61l324 1127h254l-322 -1127q-49 -171 -133.5 -244t-226.5 -73h-131z" />
    <glyph glyph-name="umacron" unicode="&#x16b;" horiz-adv-x="870" 
d="M403 1229l54 184h430l-53 -184h-431zM174 -10q-107 0 -152.5 83.5t-7.5 215.5l240 837h246l-244 -852q-8 -31 2 -45t41 -14h78q26 0 40.5 15t24.5 46l242 850h246l-322 -1126h-176v123q-55 -64 -115 -98.5t-114 -34.5h-29z" />
    <glyph glyph-name="Uring" unicode="&#x16e;" horiz-adv-x="966" 
d="M748 1487q-75 0 -126 50.5t-51 125.5q0 74 51 124t126 50q72 0 122 -50.5t50 -123.5q0 -75 -50 -125.5t-122 -50.5zM748 1589q30 0 50.5 21.5t20.5 52.5t-20.5 52.5t-50.5 21.5q-32 0 -54 -21.5t-22 -52.5t22 -52.5t54 -21.5zM291 -10q-81 0 -139 28t-85 76t-32.5 112
t18.5 136l309 1092h256l-323 -1131q-21 -76 57 -76h94q35 0 52 19t28 61l324 1127h254l-322 -1127q-49 -171 -133.5 -244t-226.5 -73h-131z" />
    <glyph glyph-name="uring" unicode="&#x16f;" horiz-adv-x="870" 
d="M604 1180q-75 0 -125.5 50.5t-50.5 125.5q0 74 50.5 124t125.5 50q72 0 122 -50.5t50 -123.5q0 -75 -50 -125.5t-122 -50.5zM604 1282q31 0 51.5 21.5t20.5 52.5t-20.5 52.5t-51.5 21.5q-32 0 -54 -21.5t-22 -52.5t22 -52.5t54 -21.5zM174 -10q-107 0 -152.5 83.5
t-7.5 215.5l240 837h246l-244 -852q-8 -31 2 -45t41 -14h78q26 0 40.5 15t24.5 46l242 850h246l-322 -1126h-176v123q-55 -64 -115 -98.5t-114 -34.5h-29z" />
    <glyph glyph-name="Uhungarumlaut" unicode="&#x170;" horiz-adv-x="966" 
d="M485 1505l156 246h246l-215 -246h-187zM772 1505l156 246h246l-216 -246h-186zM291 -10q-81 0 -139 28t-85 76t-32.5 112t18.5 136l309 1092h256l-323 -1131q-21 -76 57 -76h94q35 0 52 19t28 61l324 1127h254l-322 -1127q-49 -171 -133.5 -244t-226.5 -73h-131z" />
    <glyph glyph-name="uhungarumlaut" unicode="&#x171;" horiz-adv-x="870" 
d="M342 1198l156 246h245l-215 -246h-186zM629 1198l155 246h246l-215 -246h-186zM174 -10q-107 0 -152.5 83.5t-7.5 215.5l240 837h246l-244 -852q-8 -31 2 -45t41 -14h78q26 0 40.5 15t24.5 46l242 850h246l-322 -1126h-176v123q-55 -64 -115 -98.5t-114 -34.5h-29z" />
    <glyph glyph-name="Uogonek" unicode="&#x172;" horiz-adv-x="966" 
d="M291 -10q-81 0 -139 28t-85 76t-32.5 112t18.5 136l309 1092h256l-323 -1131q-21 -76 57 -76h94q35 0 52 19t28 61l324 1127h254l-322 -1127q-49 -171 -133.5 -244t-226.5 -73h-131zM303 -317v245h139l74 -245h-213z" />
    <glyph glyph-name="uogonek" unicode="&#x173;" horiz-adv-x="870" 
d="M174 -10q-107 0 -152.5 83.5t-7.5 215.5l240 837h246l-244 -852q-8 -31 2 -45t41 -14h78q26 0 40.5 15t24.5 46l242 850h246l-322 -1126h-176v123q-55 -64 -115 -98.5t-114 -34.5h-29zM438 -317v245h140l73 -245h-213z" />
    <glyph glyph-name="Wcircumflex" unicode="&#x174;" horiz-adv-x="1331" 
d="M647 1505l273 246h174l133 -246h-193l-51 125l-121 -125h-215zM113 0l198 1434h250l-94 -598l-68 -355h9l358 764h160l-58 -764h9l141 371l239 582h263l-621 -1434h-252l49 676h-8l-305 -676h-270z" />
    <glyph glyph-name="wcircumflex" unicode="&#x175;" horiz-adv-x="1171" 
d="M481 1198l273 246h174l133 -246h-193l-51 125l-121 -125h-215zM74 0l129 1126h233l-71 -469l-52 -278h11l303 600h145l-35 -600h11l102 264l205 483h237l-489 -1126h-248l12 485h-10l-240 -485h-243z" />
    <glyph glyph-name="Ycircumflex" unicode="&#x176;" horiz-adv-x="864" 
d="M414 1505l272 246h174l133 -246h-192l-51 125l-121 -125h-215zM145 0l138 485l-13 949h254l-14 -320l-27 -338h11l325 658h275l-551 -938l-142 -496h-256z" />
    <glyph glyph-name="ycircumflex" unicode="&#x177;" horiz-adv-x="778" 
d="M289 1198l272 246h174l133 -246h-192l-51 125l-121 -125h-215zM-154 -317l64 225h92q60 0 84 35l111 1183h235l-61 -473l-80 -428h8l358 901h256l-538 -1171q-129 -272 -359 -272h-170z" />
    <glyph glyph-name="Ydieresis" unicode="&#x178;" horiz-adv-x="864" 
d="M446 1505l70 246h221l-69 -246h-222zM737 1505l70 246h221l-70 -246h-221zM145 0l138 485l-13 949h254l-14 -320l-27 -338h11l325 658h275l-551 -938l-142 -496h-256z" />
    <glyph glyph-name="Zacute" unicode="&#x179;" horiz-adv-x="829" 
d="M563 1505l156 246h246l-215 -246h-187zM-98 0l55 197l674 999h-371l68 238h659l-55 -197l-674 -999h408l-68 -238h-696z" />
    <glyph glyph-name="zacute" unicode="&#x17a;" horiz-adv-x="710" 
d="M432 1198l156 246h246l-216 -246h-186zM-117 0l51 186l547 715h-325l63 225h594l-53 -188l-545 -713h358l-63 -225h-627z" />
    <glyph glyph-name="Zdotaccent" unicode="&#x17b;" horiz-adv-x="829" 
d="M543 1505l69 246h246l-70 -246h-245zM-98 0l55 197l674 999h-371l68 238h659l-55 -197l-674 -999h408l-68 -238h-696z" />
    <glyph glyph-name="zdotaccent" unicode="&#x17c;" horiz-adv-x="710" 
d="M412 1198l69 246h246l-70 -246h-245zM-117 0l51 186l547 715h-325l63 225h594l-53 -188l-545 -713h358l-63 -225h-627z" />
    <glyph glyph-name="Zcaron" unicode="&#x17d;" horiz-adv-x="829" 
d="M580 1505l-134 246h193l51 -125l121 125h215l-272 -246h-174zM-98 0l55 197l674 999h-371l68 238h659l-55 -197l-674 -999h408l-68 -238h-696z" />
    <glyph glyph-name="zcaron" unicode="&#x17e;" horiz-adv-x="710" 
d="M449 1198l-134 246h193l51 -125l121 125h215l-272 -246h-174zM-117 0l51 186l547 715h-325l63 225h594l-53 -188l-545 -713h358l-63 -225h-627z" />
    <glyph glyph-name="uni0218" unicode="&#x218;" horiz-adv-x="866" 
d="M248 -10q-81 0 -139 28t-84.5 76t-32 112t17.5 136l45 158h254l-57 -197q-21 -76 55 -76h78q35 0 53 19.5t29 60.5l16 62q2 6 7 26t6 26t3.5 21.5t1 23.5t-4.5 21t-10 24.5t-17 23.5l-188 227q-52 61 -69.5 135.5t3.5 153.5l21 75q45 167 133 242.5t229 75.5h90
q81 0 139 -28t84.5 -76t32 -112t-17.5 -136l-45 -160h-254l59 198q21 76 -55 76h-58q-35 0 -52.5 -19t-28.5 -61l-19 -61q-20 -53 -17.5 -91t36.5 -79l184 -229q55 -69 71.5 -149t-8.5 -155l-16 -55q-49 -170 -135 -243.5t-228 -73.5h-112zM166 -317v245h213l-74 -245h-139z
" />
    <glyph glyph-name="uni0219" unicode="&#x219;" horiz-adv-x="749" 
d="M176 -10q-127 0 -180.5 82.5t-15.5 216.5l34 121h232l-43 -152q-17 -59 43 -59h49q26 0 39.5 14.5t21.5 46.5l13 39q14 35 13.5 70t-28.5 63l-157 168q-97 104 -54 250l9 31q34 120 113 188t190 68h102q127 0 181 -82.5t16 -216.5l-35 -121h-232l43 153q18 60 -41 60h-43
q-52 0 -69 -62l-15 -49q-11 -40 -5.5 -63.5t36.5 -57.5l154 -166q58 -63 68.5 -131.5t-19.5 -160.5l-4 -19q-29 -103 -107.5 -167t-195.5 -64h-113zM98 -317v245h213l-73 -245h-140z" />
    <glyph glyph-name="uni021A" unicode="&#x21a;" horiz-adv-x="808" 
d="M117 0l342 1196h-236l68 238h727l-68 -238h-235l-342 -1196h-256zM82 -317v245h213l-74 -245h-139z" />
    <glyph glyph-name="uni021B" unicode="&#x21b;" horiz-adv-x="616" 
d="M293 0q-130 0 -185.5 82.5t-17.5 216.5l172 602h-143l63 225h144l127 197h176l-56 -197h175l-64 -225h-176l-176 -616q-18 -60 43 -60h114l-63 -225h-133zM113 -317v245h213l-74 -245h-139z" />
    <glyph glyph-name="uni02BC" unicode="&#x2bc;" horiz-adv-x="471" 
d="M217 973l135 471h266l-196 -471h-205z" />
    <glyph glyph-name="circumflex" unicode="&#x2c6;" horiz-adv-x="860" 
d="M324 1198l272 246h174l133 -246h-192l-52 125l-120 -125h-215z" />
    <glyph glyph-name="caron" unicode="&#x2c7;" horiz-adv-x="860" 
d="M526 1198l-133 246h193l51 -125l121 125h215l-273 -246h-174z" />
    <glyph glyph-name="breve" unicode="&#x2d8;" horiz-adv-x="860" 
d="M582 1219q-94 0 -129 58.5t-9 147.5l5 19h169l-10 -41q-7 -26 0 -35.5t31 -9.5h51q21 0 31 11t16 36l11 39h170l-11 -39q-26 -99 -77 -142.5t-136 -43.5h-112z" />
    <glyph glyph-name="dotaccent" unicode="&#x2d9;" horiz-adv-x="860" 
d="M489 1198l70 246h246l-70 -246h-246z" />
    <glyph glyph-name="ring" unicode="&#x2da;" horiz-adv-x="860" 
d="M606 1180q-75 0 -125.5 50.5t-50.5 125.5q0 74 50.5 124t125.5 50q72 0 122 -50.5t50 -123.5q0 -75 -50 -125.5t-122 -50.5zM606 1282q31 0 51.5 21.5t20.5 52.5t-20.5 52.5t-51.5 21.5q-32 0 -54 -21.5t-22 -52.5t22 -52.5t54 -21.5z" />
    <glyph glyph-name="ogonek" unicode="&#x2db;" horiz-adv-x="860" 
d="M270 -317v245h140l73 -245h-213z" />
    <glyph glyph-name="tilde" unicode="&#x2dc;" horiz-adv-x="860" 
d="M385 1229l37 123q19 64 45.5 93.5t77.5 29.5q34 0 102 -37l58 -31q24 -12 28 -12q6 0 10.5 4.5t4.5 9.5l20 66h160l-35 -123q-20 -65 -47 -94t-78 -29q-34 0 -102 37l-58 30q-22 13 -26 13q-6 0 -11.5 -5t-5.5 -10l-20 -65h-160z" />
    <glyph glyph-name="hungarumlaut" unicode="&#x2dd;" horiz-adv-x="860" 
d="M344 1198l156 246h245l-215 -246h-186zM631 1198l155 246h246l-215 -246h-186z" />
    <glyph glyph-name="uni0326" unicode="&#x326;" horiz-adv-x="0" 
d="M-733 -317v245h213l-74 -245h-139z" />
    <glyph glyph-name="uni0401" unicode="&#x401;" horiz-adv-x="757" 
d="M395 1505l70 246h221l-70 -246h-221zM686 1505l70 246h221l-70 -246h-221zM-47 0l409 1434h553l-67 -238h-301l-103 -360h281l-70 -238h-280l-103 -360h301l-67 -238h-553z" />
    <glyph glyph-name="uni0404" unicode="&#x404;" horiz-adv-x="919" 
d="M279 -10q-81 0 -139 28t-84.5 76t-32 112t17.5 136l223 784q49 171 135 244.5t228 73.5h112q81 0 139 -28t84.5 -76t32 -112t-17.5 -136l-47 -170h-250l59 208q21 76 -55 76h-82q-35 0 -53 -19.5t-29 -60.5l-84 -290h207l-70 -238h-204l-84 -295q-21 -76 55 -76h82
q35 0 53 19.5t29 60.5l57 205h250l-55 -205q-46 -170 -133 -243.5t-230 -73.5h-114z" />
    <glyph glyph-name="uni0406" unicode="&#x406;" horiz-adv-x="481" 
d="M-47 0l409 1434h256l-409 -1434h-256z" />
    <glyph glyph-name="uni0407" unicode="&#x407;" horiz-adv-x="481" 
d="M256 1505l70 246h221l-70 -246h-221zM547 1505l69 246h222l-70 -246h-221zM-47 0l409 1434h256l-409 -1434h-256z" />
    <glyph glyph-name="uni040E" unicode="&#x40e;" horiz-adv-x="862" 
d="M666 1526q-94 0 -129 59t-9 148l4 18h170l-10 -41q-7 -26 0 -35.5t31 -9.5h51q21 0 31 11t16 36l10 39h170l-10 -39q-26 -99 -77 -142.5t-136 -43.5h-112zM12 0l68 238h80q31 0 51 22t51 90l8 1084h250l-26 -525l-31 -299h6l115 308l225 516h272l-524 -1041
q-40 -79 -67 -129.5t-58.5 -99.5t-57.5 -76t-59.5 -49t-69.5 -30.5t-81 -8.5h-152z" />
    <glyph glyph-name="uni0410" unicode="&#x410;" horiz-adv-x="888" 
d="M-109 0l570 1434h459l-242 -1434h-244l49 270h-237l-101 -270h-254zM336 508h190l125 690h-57z" />
    <glyph glyph-name="uni0411" unicode="&#x411;" horiz-adv-x="878" 
d="M-47 0l409 1434h650l-68 -238h-393l-92 -319h110q160 0 220.5 -101.5t17.5 -251.5l-59 -207q-49 -170 -135 -243.5t-228 -73.5h-432zM276 238h134q35 0 53 19t29 60l71 246q21 76 -55 76h-117z" />
    <glyph glyph-name="uni0412" unicode="&#x412;" horiz-adv-x="909" 
d="M-37 0l410 1434h346q161 0 221.5 -100t17.5 -253l-40 -141q-26 -92 -66 -146.5t-100 -82.5q47 -41 59 -105t-10 -137l-43 -152q-49 -169 -135 -243t-228 -74h-432zM449 825h120q38 0 58.5 19.5t31.5 60.5l68 228q21 75 -55 75h-113zM279 227h139q35 0 53 19.5t29 60.5
l63 225q11 39 -3 57.5t-56 18.5h-117z" />
    <glyph glyph-name="uni0413" unicode="&#x413;" horiz-adv-x="716" 
d="M-47 0l409 1434h584l-67 -238h-328l-342 -1196h-256z" />
    <glyph glyph-name="uni0414" unicode="&#x414;" horiz-adv-x="1011" 
d="M-199 -205l127 443h103q71 148 196 559l197 637h682l-342 -1196h125l-127 -443h-166v205h-487l-140 -205h-168zM260 238h248l274 958h-180l-123 -399q-112 -361 -219 -559z" />
    <glyph glyph-name="uni0415" unicode="&#x415;" horiz-adv-x="757" 
d="M-47 0l409 1434h553l-67 -238h-301l-103 -360h281l-70 -238h-280l-103 -360h301l-67 -238h-553z" />
    <glyph glyph-name="uni0416" unicode="&#x416;" horiz-adv-x="1415" 
d="M-47 0l409 1434h256l-169 -598h210l170 598h256l-170 -598h211l170 598h256l-409 -1434h-256l170 598h-211l-170 -598h-256l170 598h-211l-170 -598h-256z" />
    <glyph glyph-name="uni0417" unicode="&#x417;" horiz-adv-x="878" 
d="M248 -10q-81 0 -139 28t-84.5 76t-32 112t17.5 136l47 170h252l-59 -209q-21 -76 55 -76h82q35 0 53 19.5t29 60.5l61 215q21 76 -55 76h-129l70 238h143q35 0 53 19t29 60l61 215q21 76 -55 76h-80q-35 0 -53 -19.5t-29 -60.5l-57 -204h-242l56 204q46 170 133 244
t229 74h101q81 0 138.5 -28t84 -76t32 -112t-17.5 -136l-41 -148q-28 -95 -69.5 -149.5t-104.5 -79.5q44 -42 55.5 -106t-10.5 -136l-47 -166q-49 -170 -135 -243.5t-228 -73.5h-114z" />
    <glyph glyph-name="uni0418" unicode="&#x418;" horiz-adv-x="993" 
d="M-37 0l410 1434h248l-115 -404l-123 -383h10l492 787h235l-409 -1434h-248l115 403l122 383h-10l-491 -786h-236z" />
    <glyph glyph-name="uni0419" unicode="&#x419;" horiz-adv-x="993" 
d="M737 1526q-94 0 -128.5 59t-8.5 148l4 18h170l-10 -41q-7 -26 0 -35.5t31 -9.5h51q21 0 31 11t16 36l10 39h170l-10 -39q-26 -99 -77 -142.5t-136 -43.5h-113zM-37 0l410 1434h248l-115 -404l-123 -383h10l492 787h235l-409 -1434h-248l115 403l122 383h-10l-491 -786
h-236z" />
    <glyph glyph-name="uni041A" unicode="&#x41a;" horiz-adv-x="917" 
d="M-47 0l409 1434h256l-169 -598h47l348 598h262l-412 -697l21 -737h-256l-2 598h-78l-170 -598h-256z" />
    <glyph glyph-name="uni041B" unicode="&#x41b;" horiz-adv-x="985" 
d="M-55 -4l-74 4l68 238h55q62 0 97 75t133 401q2 5 2.5 8t2 7t2.5 8l209 697h682l-409 -1434h-256l342 1196h-187l-166 -549q-12 -39 -43 -142.5t-52.5 -168t-45.5 -119.5q-34 -77 -75 -124.5t-112.5 -74.5t-172.5 -22z" />
    <glyph glyph-name="uni041C" unicode="&#x41c;" horiz-adv-x="1228" 
d="M-37 0l410 1434h229l47 -727l441 727h266l-410 -1434h-244l123 430l123 383h-10l-352 -575h-115l-37 575h-10l-94 -383l-123 -430h-244z" />
    <glyph glyph-name="uni041D" unicode="&#x41d;" horiz-adv-x="962" 
d="M-47 0l409 1434h256l-169 -598h225l170 598h256l-410 -1434h-256l170 598h-225l-170 -598h-256z" />
    <glyph glyph-name="uni041E" unicode="&#x41e;" horiz-adv-x="954" 
d="M279 -10q-81 0 -139 28t-84.5 76t-32 112t17.5 136l223 784q49 171 135 244.5t228 73.5h139q81 0 139 -28t84.5 -76t32 -112t-17.5 -136l-224 -785q-49 -171 -134.5 -244t-227.5 -73h-139zM340 227h102q35 0 53 19.5t29 60.5l236 823q21 76 -55 76h-103q-35 0 -53 -19.5
t-29 -60.5l-235 -823q-21 -76 55 -76z" />
    <glyph glyph-name="uni041F" unicode="&#x41f;" horiz-adv-x="962" 
d="M-47 0l409 1434h738l-410 -1434h-256l342 1196h-225l-342 -1196h-256z" />
    <glyph glyph-name="uni0420" unicode="&#x420;" horiz-adv-x="911" 
d="M-47 0l409 1434h379q160 0 220.5 -101.5t17.5 -251.5l-59 -207q-49 -170 -135 -243.5t-228 -73.5h-188l-160 -557h-256zM436 795h146q35 0 53 19t29 60l71 246q21 76 -55 76h-129z" />
    <glyph glyph-name="uni0421" unicode="&#x421;" horiz-adv-x="919" 
d="M279 -10q-81 0 -139 28t-84.5 76t-32 112t17.5 136l223 784q49 171 135 244.5t228 73.5h112q81 0 139 -28t84.5 -76t32 -112t-17.5 -136l-72 -252h-250l84 290q21 76 -55 76h-82q-35 0 -53 -19.5t-29 -60.5l-235 -823q-21 -76 55 -76h82q35 0 53 19.5t29 60.5l76 266h251
l-75 -266q-49 -170 -135 -243.5t-228 -73.5h-114z" />
    <glyph glyph-name="uni0422" unicode="&#x422;" horiz-adv-x="808" 
d="M117 0l342 1196h-236l68 238h727l-68 -238h-235l-342 -1196h-256z" />
    <glyph glyph-name="uni0423" unicode="&#x423;" horiz-adv-x="862" 
d="M80 238h80q31 0 51 22t51 90l8 1084h250l-26 -525l-31 -299h6l115 308l225 516h272l-524 -1041q-40 -79 -67 -129.5t-58.5 -99.5t-57.5 -76t-59.5 -49t-69.5 -30.5t-81 -8.5h-152z" />
    <glyph glyph-name="uni0424" unicode="&#x424;" horiz-adv-x="1361" 
d="M387 -20l53 184h-121q-108 0 -173 47t-78 125.5t12 179.5l141 498q50 172 135.5 244.5t227.5 72.5h188l47 164h256l-47 -164h123q161 0 221.5 -98t18.5 -254l-144 -498q-49 -172 -134.5 -244.5t-227.5 -72.5h-189l-53 -184h-256zM381 401h127l197 693h-146
q-34 0 -51.5 -19t-30.5 -61l-151 -537q-24 -76 55 -76zM764 401h145q35 0 53 19.5t29 60.5l154 537q21 76 -55 76h-129z" />
    <glyph glyph-name="uni0425" unicode="&#x425;" horiz-adv-x="913" 
d="M-129 0l500 776l-82 658h250l30 -449h9l258 449h274l-467 -725l80 -709h-248l-37 446h-8l-272 -446h-287z" />
    <glyph glyph-name="uni0426" unicode="&#x426;" horiz-adv-x="999" 
d="M584 -205v205h-631l409 1434h256l-342 -1196h226l342 1196h256l-342 -1196h119l-127 -443h-166z" />
    <glyph glyph-name="uni0427" unicode="&#x427;" 
d="M373 0l157 553h-153q-160 0 -212.5 73.5t-6.5 233.5l164 574h256l-166 -582q-9 -29 2.5 -45t40.5 -16h143l184 643h256l-409 -1434h-256z" />
    <glyph glyph-name="uni0428" unicode="&#x428;" horiz-adv-x="1402" 
d="M-47 0l409 1434h256l-342 -1196h205l342 1196h256l-342 -1196h205l342 1196h256l-410 -1434h-1177z" />
    <glyph glyph-name="uni0429" unicode="&#x429;" horiz-adv-x="1439" 
d="M1024 -205v205h-1071l409 1434h256l-342 -1196h205l342 1196h256l-342 -1196h205l342 1196h256l-342 -1196h119l-127 -443h-166z" />
    <glyph glyph-name="uni042A" unicode="&#x42a;" horiz-adv-x="997" 
d="M72 0l342 1196h-201l68 238h456l-159 -557h110q160 0 220.5 -101.5t17.5 -251.5l-60 -207q-49 -171 -134.5 -244t-227.5 -73h-432zM395 238h133q35 0 53 19t29 60l72 246q21 76 -55 76h-117z" />
    <glyph glyph-name="uni042B" unicode="&#x42b;" horiz-adv-x="1335" 
d="M-47 0l409 1434h256l-159 -557h110q160 0 220.5 -101.5t17.5 -251.5l-59 -207q-49 -170 -135 -243.5t-228 -73.5h-432zM807 0l410 1434h256l-410 -1434h-256zM276 238h134q35 0 53 19t29 60l71 246q21 76 -55 76h-117z" />
    <glyph glyph-name="uni042C" unicode="&#x42c;" horiz-adv-x="878" 
d="M-47 0l409 1434h256l-159 -557h110q160 0 220.5 -101.5t17.5 -251.5l-59 -207q-49 -170 -135 -243.5t-228 -73.5h-432zM276 238h134q35 0 53 19t29 60l71 246q21 76 -55 76h-117z" />
    <glyph glyph-name="uni042D" unicode="&#x42d;" horiz-adv-x="899" 
d="M248 -10q-81 0 -139 28t-84.5 76t-32 112t17.5 136l47 170h252l-59 -209q-21 -76 55 -76h82q35 0 53 19.5t29 60.5l84 291h-207l70 238h205l84 294q21 76 -56 76h-82q-35 0 -53 -19.5t-29 -60.5l-57 -204h-242l56 204q46 170 133 244t229 74h107q81 0 138.5 -28t84 -76
t32 -112t-17.5 -136l-223 -785q-49 -170 -135 -243.5t-228 -73.5h-114z" />
    <glyph glyph-name="uni042E" unicode="&#x42e;" horiz-adv-x="1363" 
d="M709 -10q-81 0 -139 28t-84.5 76t-32 112t17.5 136l74 256h-166l-170 -598h-256l409 1434h256l-169 -598h163l82 290q49 171 135 244.5t228 73.5h119q81 0 138.5 -28t84 -76t32 -112t-17.5 -136l-223 -785q-49 -170 -135 -243.5t-228 -73.5h-118zM770 227h82
q35 0 53 19.5t29 60.5l235 823q21 76 -55 76h-82q-35 0 -53 -19.5t-29 -60.5l-235 -823q-21 -76 55 -76z" />
    <glyph glyph-name="uni042F" unicode="&#x42f;" horiz-adv-x="919" 
d="M-129 0l401 629q-64 42 -81 122.5t14 184.5l51 180q94 318 362 318h439l-410 -1434h-256l162 565h-51l-363 -565h-268zM496 795h122l117 409h-139q-35 0 -53 -19.5t-29 -60.5l-74 -254q-21 -75 56 -75z" />
    <glyph glyph-name="uni0430" unicode="&#x430;" horiz-adv-x="815" 
d="M143 -10q-114 0 -154 81.5t-1 217.5l16 55q38 135 96.5 190.5t173.5 94.5l191 69q41 14 53 56l35 118q8 32 -0.5 46t-38.5 14h-61q-47 0 -66 -62l-33 -114h-219l33 108q40 141 116 207t199 66h97q130 0 185 -82t17 -217l-239 -838h-176v115q-104 -125 -203 -125h-21z
M258 209h59q26 0 40 14.5t24 46.5l68 240l-136 -59q-49 -19 -69 -89l-29 -94q-8 -31 2 -45t41 -14z" />
    <glyph glyph-name="uni0431" unicode="&#x431;" horiz-adv-x="858" 
d="M219 -10q-130 0 -185.5 82.5t-17.5 216.5l238 833q40 141 116 207t199 66h144q26 0 37 9t18 28l2 12h246l-6 -23q-35 -123 -108.5 -179t-196.5 -56h-150q-26 0 -39.5 -15t-21.5 -47l-45 -155q96 90 190 90h29q106 0 149.5 -83t5.5 -216l-141 -498q-41 -141 -116.5 -206.5
t-198.5 -65.5h-148zM301 215h76q26 0 39.5 14.5t23.5 46.5l142 498q18 60 -43 60h-76q-48 0 -64 -62l-141 -498q-8 -31 2 -45t41 -14z" />
    <glyph glyph-name="uni0432" unicode="&#x432;" horiz-adv-x="811" 
d="M-57 0l321 1126h330q130 0 185.5 -82.5t17.5 -216.5l-19 -67q-42 -152 -133 -221q67 -76 29 -203l-19 -64q-40 -141 -116 -206.5t-199 -65.5h-397zM350 647h117q26 0 39.5 15t23.5 47l43 153q18 60 -43 60h-102zM225 205h125q26 0 40 15t22 46l43 148q7 31 -3.5 45
t-41.5 14h-109z" />
    <glyph glyph-name="uni0433" unicode="&#x433;" horiz-adv-x="655" 
d="M-57 0l321 1126h522l-63 -225h-277l-258 -901h-245z" />
    <glyph glyph-name="uni0434" unicode="&#x434;" horiz-adv-x="909" 
d="M666 -184h-166v184h-402l-131 -184h-157l114 409h82q85 161 164 428l143 473h633l-258 -901h94zM225 215h215l199 696h-147l-91 -288q-75 -238 -176 -408z" />
    <glyph glyph-name="uni0435" unicode="&#x435;" horiz-adv-x="839" 
d="M217 -10q-130 0 -185.5 82.5t-17.5 216.5l166 575q40 141 116.5 207t199.5 66h129q130 0 185 -82.5t17 -216.5l-100 -349h-416l-63 -223q-17 -59 43 -59h63q26 0 40 15t22 46l33 111h241l-33 -117q-41 -141 -116.5 -206.5t-198.5 -65.5h-125zM367 680h174l51 180
q18 60 -43 60h-68q-26 0 -40.5 -15.5t-22.5 -46.5z" />
    <glyph glyph-name="uni0436" unicode="&#x436;" horiz-adv-x="1253" 
d="M-57 0l321 1126h246l-129 -450h156l129 450h245l-129 -450h156l129 450h246l-322 -1126h-246l129 451h-155l-129 -451h-246l129 451h-156l-129 -451h-245z" />
    <glyph glyph-name="uni0437" unicode="&#x437;" horiz-adv-x="757" 
d="M178 -10q-130 0 -186.5 82.5t-18.5 216.5l31 102h242l-37 -125q-17 -59 43 -59h67q27 0 41.5 15t22.5 46l37 129q18 60 -43 60h-127l61 213h142q27 0 41 15t22 46l37 129q18 60 -43 60h-70q-26 0 -39.5 -15t-21.5 -47l-35 -123h-242l37 129q40 141 116.5 207t199.5 66
h116q131 0 191 -83t22 -216l-16 -60q-26 -85 -63 -138.5t-97 -84.5q80 -72 41 -201l-24 -92q-41 -141 -117 -206.5t-199 -65.5h-131z" />
    <glyph glyph-name="uni0438" unicode="&#x438;" horiz-adv-x="892" 
d="M-57 0l321 1126h242l-88 -309l-94 -285h10l383 594h235l-321 -1126h-242l88 309l94 285h-10l-383 -594h-235z" />
    <glyph glyph-name="uni0439" unicode="&#x439;" horiz-adv-x="892" 
d="M598 1219q-94 0 -128.5 58.5t-8.5 147.5l4 19h170l-10 -41q-7 -26 -0.5 -35.5t30.5 -9.5h52q21 0 31 11t16 36l10 39h170l-10 -39q-26 -99 -77 -142.5t-136 -43.5h-113zM-57 0l321 1126h242l-88 -309l-94 -285h10l383 594h235l-321 -1126h-242l88 309l94 285h-10
l-383 -594h-235z" />
    <glyph glyph-name="uni043A" unicode="&#x43a;" horiz-adv-x="835" 
d="M-57 0l323 1126h246l-129 -450h49l268 450h242l-332 -561l15 -565h-242v451h-66l-129 -451h-245z" />
    <glyph glyph-name="uni043B" unicode="&#x43b;" horiz-adv-x="917" 
d="M-68 -4l-63 4l63 225h45q26 0 42.5 9t34 34.5t36.5 76t44 128t61 196.5q8 26 12 40l127 417h643l-322 -1126h-245l258 901h-168l-86 -280q-14 -44 -35 -112t-33.5 -107.5t-29 -87.5t-31.5 -83q-57 -131 -135.5 -187.5t-217.5 -47.5z" />
    <glyph glyph-name="uni043C" unicode="&#x43c;" horiz-adv-x="1085" 
d="M-47 0l321 1126h248l27 -540l313 540h283l-322 -1126h-241l96 336l102 326h-8l-264 -476h-131l2 476h-8l-80 -326l-96 -336h-242z" />
    <glyph glyph-name="uni043D" unicode="&#x43d;" horiz-adv-x="874" 
d="M-57 0l321 1126h246l-129 -450h178l129 450h246l-322 -1126h-245l129 451h-179l-129 -451h-245z" />
    <glyph glyph-name="uni043E" unicode="&#x43e;" horiz-adv-x="849" 
d="M217 -10q-130 0 -185.5 82.5t-17.5 216.5l166 575q40 141 116.5 207t199.5 66h149q130 0 185.5 -82.5t17.5 -216.5l-164 -576q-41 -141 -116.5 -206.5t-198.5 -65.5h-152zM297 207h80q26 0 39.5 14.5t21.5 46.5l170 592q18 60 -43 60h-78q-26 0 -40.5 -15.5t-22.5 -46.5
l-170 -592q-17 -59 43 -59z" />
    <glyph glyph-name="uni043F" unicode="&#x43f;" horiz-adv-x="874" 
d="M-57 0l321 1126h670l-322 -1126h-245l258 901h-179l-258 -901h-245z" />
    <glyph glyph-name="uni0440" unicode="&#x440;" horiz-adv-x="872" 
d="M-147 -317l411 1443h180v-122q118 133 232 133h29q106 0 149.5 -83t5.5 -216l-166 -576q-78 -272 -295 -272h-8q-118 0 -174 112l-119 -419h-245zM309 215h80q26 0 40 14.5t24 46.5l163 576q17 59 -43 59h-77q-27 0 -41.5 -15t-22.5 -46l-166 -576q-8 -31 2 -45t41 -14z
" />
    <glyph glyph-name="uni0441" unicode="&#x441;" horiz-adv-x="839" 
d="M217 -10q-130 0 -185.5 82.5t-17.5 216.5l166 575q40 141 116.5 207t199.5 66h129q130 0 185 -82.5t17 -216.5l-55 -193h-242l62 215q18 60 -43 60h-62q-26 0 -40.5 -15.5t-22.5 -46.5l-170 -592q-17 -59 43 -59h63q26 0 40 15t22 46l55 193h242l-55 -199
q-41 -141 -117 -206.5t-199 -65.5h-131z" />
    <glyph glyph-name="uni0442" unicode="&#x442;" horiz-adv-x="714" 
d="M76 0l258 901h-205l64 225h655l-64 -225h-204l-258 -901h-246z" />
    <glyph glyph-name="uni0443" unicode="&#x443;" horiz-adv-x="778" 
d="M-154 -317l64 225h92q60 0 84 35l111 1183h235l-61 -473l-80 -428h8l358 901h256l-538 -1171q-129 -272 -359 -272h-170z" />
    <glyph glyph-name="uni0444" unicode="&#x444;" horiz-adv-x="1253" 
d="M254 -317l119 421q-46 -55 -96 -84.5t-91 -29.5h-24q-102 0 -144 83t-4 216l166 575q35 128 106.5 200.5t176.5 72.5h8q63 0 101.5 -29t64.5 -84l119 420h245l-118 -422q47 55 96.5 85t91.5 30h25q101 0 141.5 -83t3.5 -216l-164 -576q-78 -272 -282 -272h-9
q-115 0 -168 112l-118 -419h-246zM299 215h59q26 0 41 15t25 46l164 576q17 59 -43 59h-62q-26 0 -39.5 -14.5t-21.5 -46.5l-166 -576q-8 -31 2 -45t41 -14zM711 215h61q26 0 40 14.5t24 46.5l163 576q17 59 -43 59h-59q-27 0 -41 -15t-22 -46l-166 -576q-8 -31 2 -45
t41 -14z" />
    <glyph glyph-name="uni0445" unicode="&#x445;" horiz-adv-x="788" 
d="M-129 0l403 606l-75 520h229l29 -335h8l203 335h245l-381 -561l66 -565h-223l-33 350h-10l-207 -350h-254z" />
    <glyph glyph-name="uni0446" unicode="&#x446;" horiz-adv-x="899" 
d="M489 -184v184h-544l321 1126h246l-258 -901h178l258 901h246l-258 -901h94l-117 -409h-166z" />
    <glyph glyph-name="uni0447" unicode="&#x447;" horiz-adv-x="813" 
d="M305 0l117 414h-105q-130 0 -185 82.5t-17 216.5l118 413h246l-123 -428q-17 -59 43 -59h86l140 487h245l-319 -1126h-246z" />
    <glyph glyph-name="uni0448" unicode="&#x448;" horiz-adv-x="1251" 
d="M-57 0l321 1126h246l-258 -901h156l258 901h243l-258 -901h156l258 901h246l-322 -1126h-1046z" />
    <glyph glyph-name="uni0449" unicode="&#x449;" horiz-adv-x="1275" 
d="M866 -184v184h-923l321 1126h246l-258 -901h156l258 901h243l-258 -901h156l258 901h246l-258 -901h96l-117 -409h-166z" />
    <glyph glyph-name="uni044A" unicode="&#x44a;" horiz-adv-x="915" 
d="M51 0l258 901h-180l64 225h425l-122 -430h108q130 0 185.5 -82.5t17.5 -216.5l-35 -125q-40 -141 -116 -206.5t-199 -65.5h-406zM356 211h107q27 0 41 15t22 46l43 154q17 59 -43 59h-90z" />
    <glyph glyph-name="uni044B" unicode="&#x44b;" horiz-adv-x="1196" 
d="M-57 0l321 1126h246l-123 -430h109q130 0 185 -82.5t17 -216.5l-34 -125q-40 -141 -116.5 -206.5t-199.5 -65.5h-405zM688 0l322 1126h245l-321 -1126h-246zM248 211h106q27 0 41.5 15t22.5 46l43 154q17 59 -43 59h-90z" />
    <glyph glyph-name="uni044C" unicode="&#x44c;" horiz-adv-x="806" 
d="M-57 0l321 1126h246l-123 -430h109q130 0 185 -82.5t17 -216.5l-34 -125q-40 -141 -116.5 -206.5t-199.5 -65.5h-405zM248 211h106q27 0 41.5 15t22.5 46l43 154q17 59 -43 59h-90z" />
    <glyph glyph-name="uni044D" unicode="&#x44d;" horiz-adv-x="815" 
d="M178 -10q-130 0 -186.5 82.5t-18.5 216.5l31 102h242l-37 -125q-17 -59 43 -59h74q27 0 41 15t22 46l53 189h-192l61 213h193l55 190q18 60 -43 60h-76q-26 0 -39.5 -15t-21.5 -47l-35 -123h-235l36 129q40 141 116.5 207t199.5 66h125q130 0 184 -82.5t16 -216.5
l-163 -576q-41 -141 -117 -206.5t-199 -65.5h-129z" />
    <glyph glyph-name="uni044E" unicode="&#x44e;" horiz-adv-x="1234" 
d="M629 -10q-130 0 -185.5 82.5t-17.5 216.5l45 162h-154l-129 -451h-245l321 1126h246l-129 -450h156l53 188q40 141 116 207t199 66h125q130 0 185.5 -82.5t17.5 -216.5l-164 -576q-40 -141 -116 -206.5t-199 -65.5h-125zM702 215h62q27 0 41 15t22 46l164 576
q17 59 -43 59h-61q-27 0 -41.5 -15t-22.5 -46l-164 -576q-17 -59 43 -59z" />
    <glyph glyph-name="uni044F" unicode="&#x44f;" horiz-adv-x="831" 
d="M-139 0l325 492q-96 80 -49 249l33 113q40 141 116 206.5t199 65.5h406l-322 -1126h-245l122 430h-59l-274 -430h-252zM410 618h90l86 300h-107q-26 0 -39.5 -15t-23.5 -47l-49 -178q-18 -60 43 -60z" />
    <glyph glyph-name="uni0451" unicode="&#x451;" horiz-adv-x="839" 
d="M319 1198l70 246h221l-69 -246h-222zM610 1198l70 246h221l-70 -246h-221zM217 -10q-130 0 -185.5 82.5t-17.5 216.5l166 575q40 141 116.5 207t199.5 66h129q130 0 185 -82.5t17 -216.5l-100 -349h-416l-63 -223q-17 -59 43 -59h63q26 0 40 15t22 46l33 111h241
l-33 -117q-41 -141 -116.5 -206.5t-198.5 -65.5h-125zM367 680h174l51 180q18 60 -43 60h-68q-26 0 -40.5 -15.5t-22.5 -46.5z" />
    <glyph glyph-name="uni0454" unicode="&#x454;" horiz-adv-x="804" 
d="M217 -10q-130 0 -185.5 82.5t-17.5 216.5l166 575q40 141 116.5 207t199.5 66h129q130 0 185 -82.5t17 -216.5l-28 -103h-242l35 125q18 60 -43 60h-74q-26 0 -40.5 -15.5t-22.5 -46.5l-54 -188h193l-62 -213h-192l-55 -191q-17 -59 43 -59h75q26 0 40 15t22 46l37 123
h241l-36 -129q-41 -141 -117 -206.5t-199 -65.5h-131z" />
    <glyph glyph-name="uni0456" unicode="&#x456;" horiz-adv-x="432" 
d="M285 1198l69 246h246l-70 -246h-245zM-57 0l321 1126h246l-322 -1126h-245z" />
    <glyph glyph-name="uni0457" unicode="&#x457;" horiz-adv-x="450" 
d="M152 1198l69 246h221l-69 -246h-221zM442 1198l70 246h221l-69 -246h-222zM-57 0l321 1126h246l-322 -1126h-245z" />
    <glyph glyph-name="uni045E" unicode="&#x45e;" horiz-adv-x="778" 
d="M547 1219q-94 0 -128.5 58.5t-8.5 147.5l4 19h170l-11 -41q-7 -26 0 -35.5t31 -9.5h51q21 0 31 11t16 36l11 39h170l-11 -39q-26 -99 -77 -142.5t-136 -43.5h-112zM-154 -317l64 225h92q60 0 84 35l111 1183h235l-61 -473l-80 -428h8l358 901h256l-538 -1171
q-129 -272 -359 -272h-170z" />
    <glyph glyph-name="uni0490" unicode="&#x490;" horiz-adv-x="716" 
d="M-47 0l409 1434h361l115 204h168l-127 -442h-328l-342 -1196h-256z" />
    <glyph glyph-name="uni0491" unicode="&#x491;" horiz-adv-x="655" 
d="M-57 0l321 1126h293l127 185h154l-115 -410h-277l-258 -901h-245z" />
    <glyph glyph-name="Wgrave" unicode="&#x1e80;" horiz-adv-x="1331" 
d="M799 1505l-156 246h236l118 -246h-198zM113 0l198 1434h250l-94 -598l-68 -355h9l358 764h160l-58 -764h9l141 371l239 582h263l-621 -1434h-252l49 676h-8l-305 -676h-270z" />
    <glyph glyph-name="wgrave" unicode="&#x1e81;" horiz-adv-x="1171" 
d="M633 1198l-156 246h236l118 -246h-198zM74 0l129 1126h233l-71 -469l-52 -278h11l303 600h145l-35 -600h11l102 264l205 483h237l-489 -1126h-248l12 485h-10l-240 -485h-243z" />
    <glyph glyph-name="Wacute" unicode="&#x1e82;" horiz-adv-x="1331" 
d="M834 1505l155 246h246l-215 -246h-186zM113 0l198 1434h250l-94 -598l-68 -355h9l358 764h160l-58 -764h9l141 371l239 582h263l-621 -1434h-252l49 676h-8l-305 -676h-270z" />
    <glyph glyph-name="wacute" unicode="&#x1e83;" horiz-adv-x="1171" 
d="M668 1198l155 246h246l-215 -246h-186zM74 0l129 1126h233l-71 -469l-52 -278h11l303 600h145l-35 -600h11l102 264l205 483h237l-489 -1126h-248l12 485h-10l-240 -485h-243z" />
    <glyph glyph-name="Wdieresis" unicode="&#x1e84;" horiz-adv-x="1331" 
d="M680 1505l70 246h221l-70 -246h-221zM971 1505l69 246h222l-70 -246h-221zM113 0l198 1434h250l-94 -598l-68 -355h9l358 764h160l-58 -764h9l141 371l239 582h263l-621 -1434h-252l49 676h-8l-305 -676h-270z" />
    <glyph glyph-name="wdieresis" unicode="&#x1e85;" horiz-adv-x="1171" 
d="M514 1198l70 246h221l-70 -246h-221zM805 1198l69 246h222l-70 -246h-221zM74 0l129 1126h233l-71 -469l-52 -278h11l303 600h145l-35 -600h11l102 264l205 483h237l-489 -1126h-248l12 485h-10l-240 -485h-243z" />
    <glyph glyph-name="uni1E9E" unicode="&#x1e9e;" horiz-adv-x="1146" 
d="M-47 0l319 1116q49 171 135 244.5t228 73.5h635l-56 -197l-354 -373q148 -4 199 -90.5t12 -218.5l-70 -248q-49 -171 -133 -244t-221 -73h-29q-81 0 -138.5 28t-84 76t-32 112t17.5 136l33 117h233l-47 -156q-21 -76 55 -76h17q35 0 53 19.5t29 60.5l77 273q21 75 -55 75
h-262l51 176l350 365h-319q-35 0 -53 -19.5t-29 -60.5l-319 -1116h-242z" />
    <glyph glyph-name="Ygrave" unicode="&#x1ef2;" horiz-adv-x="864" 
d="M565 1505l-155 246h235l119 -246h-199zM145 0l138 485l-13 949h254l-14 -320l-27 -338h11l325 658h275l-551 -938l-142 -496h-256z" />
    <glyph glyph-name="ygrave" unicode="&#x1ef3;" horiz-adv-x="778" 
d="M440 1198l-155 246h235l119 -246h-199zM-154 -317l64 225h92q60 0 84 35l111 1183h235l-61 -473l-80 -428h8l358 901h256l-538 -1171q-129 -272 -359 -272h-170z" />
    <glyph glyph-name="endash" unicode="&#x2013;" horiz-adv-x="880" 
d="M72 522l63 226h717l-64 -226h-716z" />
    <glyph glyph-name="emdash" unicode="&#x2014;" horiz-adv-x="1269" 
d="M72 522l63 226h1106l-63 -226h-1106z" />
    <glyph glyph-name="quoteleft" unicode="&#x2018;" horiz-adv-x="471" 
d="M197 973l196 471h205l-135 -471h-266z" />
    <glyph glyph-name="quoteright" unicode="&#x2019;" horiz-adv-x="471" 
d="M217 973l135 471h266l-196 -471h-205z" />
    <glyph glyph-name="quotesinglbase" unicode="&#x201a;" horiz-adv-x="471" 
d="M-111 -184l136 471h266l-197 -471h-205z" />
    <glyph glyph-name="quotedblleft" unicode="&#x201c;" horiz-adv-x="860" 
d="M197 973l196 471h205l-135 -471h-266zM586 973l196 471h205l-135 -471h-266z" />
    <glyph glyph-name="quotedblright" unicode="&#x201d;" horiz-adv-x="860" 
d="M217 973l135 471h266l-196 -471h-205zM606 973l135 471h267l-197 -471h-205z" />
    <glyph glyph-name="quotedblbase" unicode="&#x201e;" horiz-adv-x="860" 
d="M-111 -184l136 471h266l-197 -471h-205zM279 -184l135 471h266l-197 -471h-204z" />
    <glyph glyph-name="dagger" unicode="&#x2020;" 
d="M188 0l261 909h-277l61 217h277l88 308h205l-88 -308h276l-61 -217h-277l-260 -909h-205z" />
    <glyph glyph-name="daggerdbl" unicode="&#x2021;" 
d="M188 0l88 307h-276l61 217h277l111 385h-277l61 217h277l88 308h205l-88 -308h276l-61 -217h-277l-110 -385h276l-61 -217h-277l-88 -307h-205z" />
    <glyph glyph-name="bullet" unicode="&#x2022;" horiz-adv-x="880" 
d="M444 399q-103 0 -169 66.5t-66 169.5t66 169t169 66t169.5 -66t66.5 -169t-66.5 -169.5t-169.5 -66.5z" />
    <glyph glyph-name="ellipsis" unicode="&#x2026;" horiz-adv-x="1331" 
d="M-57 0l82 287h266l-82 -287h-266zM373 0l82 287h266l-82 -287h-266zM803 0l82 287h266l-82 -287h-266z" />
    <glyph glyph-name="perthousand" unicode="&#x2030;" horiz-adv-x="1650" 
d="M326 834q-84 0 -120 53.5t-11 140.5l69 240q26 91 76 133.5t129 42.5h94q85 0 122 -54t11 -141l-67 -239q-26 -90 -76.5 -133t-130.5 -43h-96zM-78 0l1178 1434h166l-1178 -1434h-166zM377 975h53q18 0 26 9t13 30l72 250q12 39 -25 39h-51q-18 0 -27.5 -9.5t-15.5 -31.5
l-72 -250q-6 -20 0.5 -28.5t26.5 -8.5zM623 -10q-84 0 -120 53.5t-11 140.5l67 240q26 90 76.5 133t130.5 43h94q85 0 121.5 -53t11.5 -141l-69 -240q-26 -91 -76 -133.5t-129 -42.5h-96zM1176 -10q-84 0 -120.5 53.5t-11.5 140.5l68 240q26 90 76.5 133t130.5 43h94
q85 0 121.5 -53t11.5 -141l-69 -240q-26 -91 -76 -133.5t-129 -42.5h-96zM672 131h53q18 0 26.5 8.5t14.5 30.5l72 250q5 21 -1 30t-26 9h-51q-18 0 -27.5 -9.5t-15.5 -31.5l-72 -250q-5 -21 1 -29t26 -8zM1225 131h53q18 0 26.5 8.5t14.5 30.5l72 250q5 21 -1 30t-26 9h-51
q-18 0 -27.5 -9.5t-15.5 -31.5l-72 -250q-5 -21 1 -29t26 -8z" />
    <glyph glyph-name="guilsinglleft" unicode="&#x2039;" horiz-adv-x="512" 
d="M178 319l-69 261l34 122l193 248h207l-246 -325l65 -306h-184z" />
    <glyph glyph-name="guilsinglright" unicode="&#x203a;" horiz-adv-x="512" 
d="M35 319l244 326l-64 305h184l68 -260l-35 -123l-190 -248h-207z" />
    <glyph glyph-name="Euro" unicode="&#x20ac;" 
d="M352 -10q-81 0 -138.5 28t-84 76t-32 112t17.5 136l51 180h-141l41 144h141l29 102h-142l41 143h141l62 215q49 171 134.5 244.5t227.5 73.5h48q81 0 138.5 -28t84 -76t32 -112t-17.5 -136l-24 -88h-244l39 126q21 76 -56 76h-45q-35 0 -53 -19.5t-29 -60.5l-61 -215h287
l-41 -143h-287l-29 -102h287l-41 -144h-287l-63 -219q-21 -76 55 -76h45q35 0 53 19.5t29 60.5l35 123h240l-33 -123q-49 -170 -135 -243.5t-228 -73.5h-47z" />
    <glyph glyph-name="uni20B4" unicode="&#x20b4;" 
d="M274 -10q-81 0 -140 23.5t-87.5 63t-38 91.5t9.5 108l2 13q11 37 48.5 86t124.5 147h-142l41 144h227l91 102h-289l41 143h375l86 99q64 71 79 123l7 18q8 28 -7 41.5t-55 13.5h-53q-35 0 -53 -19.5t-29 -60.5l-35 -122h-244l35 122q49 171 135 244.5t228 73.5h78
q159 0 224.5 -83.5t31.5 -203.5l-2 -12q-11 -38 -49 -88.5t-123 -145.5h149l-41 -143h-235l-91 -102h297l-41 -144h-383l-86 -98q-64 -71 -79 -123l-7 -18q-8 -28 7.5 -42t54.5 -14h53q35 0 53 19.5t29 60.5l35 123h244l-35 -123q-49 -170 -135 -243.5t-228 -73.5h-78z" />
    <glyph glyph-name="uni20BD" unicode="&#x20bd;" horiz-adv-x="985" 
d="M16 0l90 313l-141 -2l43 150h139l29 96h-139l41 143h139l209 734h338q81 0 138.5 -28.5t83.5 -77t31.5 -112.5t-16.5 -135l-59 -207q-49 -171 -134.5 -244t-227.5 -73h-168l-29 -96h289l-41 -144l-289 -2l-90 -315h-236zM479 795h146q35 0 53 19t29 60l71 246
q21 76 -55 76h-129z" />
    <glyph glyph-name="uni2116" unicode="&#x2116;" horiz-adv-x="1478" 
d="M1210 793q-73 0 -104.5 47.5t-9.5 122.5l94 325q23 80 65.5 118t110.5 38h107q73 0 105.5 -47.5t10.5 -122.5l-94 -326q-23 -81 -66 -118t-112 -37h-107zM-43 0l410 1434h223l26 -813h11l96 383l123 430h231l-409 -1434h-226l-24 813h-10l-97 -383l-123 -430h-231z
M1262 928h57q27 0 37 35l90 311q9 35 -25 35h-55q-16 0 -24 -9t-13 -26l-90 -311q-5 -19 0.5 -27t22.5 -8zM995 535l43 151h363l-43 -151h-363z" />
    <glyph glyph-name="trademark" unicode="&#x2122;" horiz-adv-x="972" 
d="M233 881l127 442h-100l31 111h321l-30 -111h-101l-127 -442h-121zM516 881l158 553h121l12 -267l156 267h137l-158 -553h-119l47 163l52 160h-4l-130 -231h-65l2 231h-4l-39 -160l-47 -163h-119z" />
    <glyph glyph-name="minus" unicode="&#x2212;" 
d="M94 532l60 205h696l-59 -205h-697z" />
    <glyph glyph-name="approxequal" unicode="&#x2248;" 
d="M123 633l59 207q32 107 75.5 157t125.5 50q50 0 78.5 -15t68.5 -55l74 -74q7 -6 18 -17.5t16.5 -16t12.5 -9t13 -4.5q16 0 24 27l47 164h203l-59 -207q-30 -107 -74 -157t-127 -50q-50 0 -78.5 14.5t-69.5 54.5l-73 74q-5 5 -13.5 14t-13 13.5t-11 10t-11 7.5t-9.5 2
q-19 0 -26 -26l-47 -164h-203zM-18 141l59 207q32 107 75.5 157t125.5 50q50 0 78.5 -15t68.5 -55l74 -73q7 -7 18 -17.5t16 -15.5t12 -9.5t13 -4.5q18 0 25 26l47 164h203l-60 -207q-30 -107 -73.5 -157t-126.5 -50q-50 0 -78 15t-70 55l-74 74q-6 6 -14 14.5t-12.5 13
t-10.5 10t-10.5 7.5t-9.5 2q-19 0 -27 -27l-47 -164h-202z" />
    <glyph glyph-name="notequal" unicode="&#x2260;" 
d="M14 184l125 164h-96l57 205h195l125 164h-273l60 205h368l125 163h230l-125 -163h98l-59 -205h-195l-125 -164h273l-58 -205h-370l-125 -164h-230z" />
    <glyph glyph-name="lessequal" unicode="&#x2264;" 
d="M758 412l-580 266l58 205l733 266l-70 -240l-410 -145l328 -146zM18 123l60 205h655l-59 -205h-656z" />
    <glyph glyph-name="greaterequal" unicode="&#x2265;" 
d="M100 412l70 239l410 146l-328 145l59 207l580 -266l-57 -205zM18 123l60 205h655l-59 -205h-656z" />
    <glyph glyph-name="i.loclTRK" horiz-adv-x="450" 
d="M285 1198l69 246h246l-70 -246h-245zM-57 0l321 1126h246l-322 -1126h-245z" />
    <glyph glyph-name="a.ss01" horiz-adv-x="860" 
d="M170 -10q-106 0 -150 83t-6 216l166 575q35 128 109 200.5t186 72.5h8q131 0 193 -131l76 120h178l-322 -1126h-178v123q-56 -64 -118 -98.5t-117 -34.5h-25zM299 215h80q26 0 39.5 14.5t23.5 46.5l164 576q17 59 -43 59h-78q-27 0 -41 -15t-22 -46l-166 -576
q-8 -31 2 -45t41 -14z" />
    <glyph glyph-name="zero.osf" 
d="M268 -10q-81 0 -138.5 28t-84 76t-32 112t17.5 136l135 477q50 171 136 244.5t228 73.5h107q160 0 219 -100t16 -253l-135 -477q-49 -171 -134.5 -244t-227.5 -73h-107zM326 227h77q35 0 53 19.5t29 60.5l148 516q21 76 -55 76h-78q-35 0 -53 -19.5t-29 -60.5l-148 -516
q-21 -76 56 -76z" />
    <glyph glyph-name="one.osf" horiz-adv-x="589" 
d="M45 0l258 901h-174l64 225h425l-321 -1126h-252z" />
    <glyph glyph-name="two.osf" 
d="M-53 0l35 125q28 96 64 161t104 113l415 291q41 28 58 88l12 45q21 76 -55 76h-66q-35 0 -53 -19.5t-29 -60.5l-35 -125h-252l35 125q50 171 136.5 244.5t228.5 73.5h94q161 0 222.5 -94.5t19.5 -237.5l-9 -31q-45 -155 -186 -254l-375 -258l-22 -16h432l-70 -246h-704z
" />
    <glyph glyph-name="three.osf" horiz-adv-x="860" 
d="M158 -317q-81 0 -139 28t-84.5 76t-32 112t17.5 136l45 160h244l-57 -199q-21 -76 55 -76h72q35 0 52.5 19t28.5 61l62 215q21 76 -55 76h-125l69 237h131q35 0 53 19.5t29 60.5l62 215q21 76 -56 76h-61q-35 0 -53 -19.5t-29 -60.5l-45 -162h-244l45 162
q49 171 135 244.5t228 73.5h82q160 0 219.5 -100t17.5 -253l-45 -168q-25 -95 -62.5 -143t-99.5 -74q86 -80 48 -213l-54 -186q-49 -171 -134.5 -244t-227.5 -73h-92z" />
    <glyph glyph-name="four.osf" horiz-adv-x="864" 
d="M209 -307l78 276h-441l60 211l669 946h283l-264 -925h135l-65 -232h-136l-79 -276h-240zM160 201h194l70 248l88 249h-10z" />
    <glyph glyph-name="five.osf" horiz-adv-x="862" 
d="M160 -317q-81 0 -139 28t-84.5 76t-32 112t17.5 136l45 160h244l-57 -199q-21 -76 55 -76h78q35 0 53 19.5t29 60.5l118 414q21 75 -55 75h-67q-34 0 -50.5 -17t-40.5 -62h-237l231 716h631l-70 -245h-411l-88 -271q106 95 202 95h27q114 0 164 -83.5t12 -215.5
l-114 -406q-49 -170 -135 -243.5t-228 -73.5h-98z" />
    <glyph glyph-name="six.osf" horiz-adv-x="876" 
d="M274 -10q-81 0 -138.5 28t-84 76t-32 112t17.5 136l223 784q49 171 135 244.5t228 73.5h88q81 0 138.5 -28t84 -76t32 -112t-17.5 -136l-18 -66h-246l31 104q21 76 -56 76h-69q-35 0 -53 -19.5t-29 -60.5l-82 -288q86 77 176 77h43q114 0 162 -83t10 -216l-88 -309
q-49 -171 -134.5 -244t-227.5 -73h-93zM328 227h69q35 0 53 19.5t29 60.5l90 320q24 75 -55 75h-68q-35 0 -52.5 -19t-28.5 -60l-93 -320q-21 -76 56 -76z" />
    <glyph glyph-name="seven.osf" horiz-adv-x="780" 
d="M-145 -307l702 1188h-424l70 245h676l-52 -184l-712 -1249h-260z" />
    <glyph glyph-name="eight.osf" 
d="M268 -10q-161 0 -220.5 99.5t-16.5 252.5l45 160q27 99 67 148t107 75q-79 76 -41 207l55 194q50 172 135.5 245t227.5 73h86q81 0 138.5 -28t84 -76t32 -112t-17.5 -136l-45 -160q-25 -95 -62 -143t-98 -74q88 -82 48 -213l-56 -195q-49 -171 -134.5 -244t-227.5 -73
h-107zM496 821h77q35 0 53 19.5t29 60.5l72 250q21 76 -55 76h-78q-35 0 -53 -19.5t-29 -60.5l-72 -250q-21 -76 56 -76zM326 227h77q35 0 53 19.5t29 60.5l66 230q21 75 -55 75h-78q-35 0 -53 -19.5t-29 -60.5l-66 -229q-21 -76 56 -76z" />
    <glyph glyph-name="nine.osf" horiz-adv-x="876" 
d="M168 -317q-81 0 -139 28t-84.5 76t-32 112t17.5 136l19 65h246l-31 -104q-21 -76 55 -76h70q35 0 53 19.5t29 60.5l82 289q-87 -78 -177 -78h-43q-114 0 -162 83t-10 216l89 309q49 171 134.5 244.5t227.5 73.5h92q81 0 139 -28t84.5 -76t32 -112.5t-17.5 -136.5
l-224 -784q-49 -171 -134.5 -244t-227.5 -73h-88zM365 424h67q35 0 53 19.5t29 60.5l92 319q21 76 -55 76h-70q-35 0 -53 -19.5t-29 -60.5l-90 -319q-24 -76 56 -76z" />
    <glyph glyph-name="zero.tf" 
d="M268 -10q-81 0 -138.5 28t-84 76t-32 112t17.5 136l223 784q49 171 134.5 244.5t227.5 73.5h107q81 0 139 -28t84.5 -76t32 -112t-17.5 -136l-224 -785q-49 -171 -134.5 -244t-227.5 -73h-107zM326 227h77q35 0 53 19.5t29 60.5l236 823q21 76 -55 76h-78
q-35 0 -53 -19.5t-29 -60.5l-236 -823q-21 -76 56 -76z" />
    <glyph glyph-name="one.tf" 
d="M-47 0l63 225h217l283 983h-217l63 226h469l-346 -1209h228l-64 -225h-696z" />
    <glyph glyph-name="two.tf" 
d="M-53 0l65 227q47 162 166 275l461 446q45 45 57 88l27 94q21 76 -55 76h-66q-35 0 -53 -19.5t-29 -60.5l-35 -122h-252l35 122q49 171 135 244.5t228 73.5h94q81 0 139 -28t84.5 -76t32 -112t-17.5 -136l-15 -52q-19 -65 -49.5 -115t-83.5 -102l-483 -465
q-43 -43 -56 -88l-8 -24h453l-70 -246h-704z" />
    <glyph glyph-name="three.tf" 
d="M256 -10q-81 0 -139 28t-84.5 76t-32 112t17.5 136l45 160h244l-57 -199q-21 -76 55 -76h72q35 0 53 19.5t29 60.5l61 215q21 76 -55 76h-125l70 238h131q35 0 53 19t29 60l61 215q21 76 -55 76h-62q-35 0 -53 -19.5t-29 -60.5l-45 -161h-243l45 161q49 171 134.5 244.5
t227.5 73.5h82q160 0 220 -99.5t18 -252.5l-45 -168q-25 -95 -62.5 -143t-99.5 -74q85 -79 47 -213l-53 -187q-49 -170 -135 -243.5t-228 -73.5h-92z" />
    <glyph glyph-name="four.tf" 
d="M334 0l78 276h-461l59 211l690 947h283l-264 -926h135l-66 -232h-135l-80 -276h-239zM264 508h215l70 248l88 250h-10z" />
    <glyph glyph-name="five.tf" 
d="M276 -10q-81 0 -138.5 28t-84 76t-32 112t17.5 136l45 160h244l-58 -199q-21 -76 56 -76h77q35 0 53 19.5t29 60.5l119 414q21 76 -55 76h-68q-18 0 -30.5 -4.5t-23.5 -17.5t-17 -23t-19 -35h-237l231 717h631l-70 -246h-411l-89 -270q105 94 203 94h27q114 0 164 -83.5
t12 -215.5l-115 -406q-49 -171 -134.5 -244t-227.5 -73h-99z" />
    <glyph glyph-name="six.tf" 
d="M281 -10q-81 0 -139 28t-84.5 76t-32 112t17.5 136l223 784q49 171 135 244.5t228 73.5h88q81 0 138.5 -28t84 -76t32 -112t-17.5 -136l-18 -66h-246l31 104q21 76 -55 76h-70q-35 0 -53 -19.5t-29 -60.5l-82 -288q86 77 176 77h43q114 0 162 -83t10 -216l-88 -309
q-49 -171 -134.5 -244t-227.5 -73h-92zM334 227h69q35 0 53 19.5t29 60.5l90 320q24 75 -55 75h-67q-35 0 -53 -19t-29 -60l-92 -320q-21 -76 55 -76z" />
    <glyph glyph-name="seven.tf" 
d="M-4 0l754 1188h-500l69 246h775l-54 -185l-764 -1249h-280z" />
    <glyph glyph-name="eight.tf" 
d="M268 -10q-161 0 -220.5 99.5t-16.5 252.5l45 160q27 99 67 148t107 75q-79 76 -41 207l55 194q50 172 135.5 245t227.5 73h86q81 0 138.5 -28t84 -76t32 -112t-17.5 -136l-45 -160q-25 -95 -62 -143t-98 -74q88 -82 48 -213l-56 -195q-49 -171 -134.5 -244t-227.5 -73
h-107zM496 821h77q35 0 53 19.5t29 60.5l72 250q21 76 -55 76h-78q-35 0 -53 -19.5t-29 -60.5l-72 -250q-21 -76 56 -76zM326 227h77q35 0 53 19.5t29 60.5l66 230q21 75 -55 75h-78q-35 0 -53 -19.5t-29 -60.5l-66 -229q-21 -76 56 -76z" />
    <glyph glyph-name="nine.tf" 
d="M274 -10q-81 0 -138.5 28t-84 76t-32 112t17.5 136l18 66h246l-31 -105q-21 -76 56 -76h69q35 0 53 19.5t29 60.5l82 289q-87 -78 -176 -78h-43q-114 0 -162 83t-10 216l88 309q49 171 134.5 244.5t227.5 73.5h93q81 0 138.5 -28t84 -76t32 -112t-17.5 -136l-223 -785
q-49 -170 -135 -243.5t-228 -73.5h-88zM471 731h68q35 0 53 19.5t29 60.5l92 319q21 76 -56 76h-69q-35 0 -53 -19.5t-29 -60.5l-90 -319q-24 -76 55 -76z" />
    <glyph glyph-name="zero.tosf" 
d="M268 -10q-81 0 -138.5 28t-84 76t-32 112t17.5 136l135 477q50 171 136 244.5t228 73.5h107q160 0 219 -100t16 -253l-135 -477q-49 -171 -134.5 -244t-227.5 -73h-107zM326 227h77q35 0 53 19.5t29 60.5l148 516q21 76 -55 76h-78q-35 0 -53 -19.5t-29 -60.5l-148 -516
q-21 -76 56 -76z" />
    <glyph glyph-name="one.tosf" 
d="M-47 0l63 225h217l195 676h-217l63 225h469l-258 -901h228l-64 -225h-696z" />
    <glyph glyph-name="two.tosf" 
d="M-53 0l35 125q28 96 64 161t104 113l415 291q41 28 58 88l12 45q21 76 -55 76h-66q-35 0 -53 -19.5t-29 -60.5l-35 -125h-252l35 125q50 171 136.5 244.5t228.5 73.5h94q161 0 222.5 -94.5t19.5 -237.5l-9 -31q-45 -155 -186 -254l-375 -258l-22 -16h432l-70 -246h-704z
" />
    <glyph glyph-name="three.tosf" 
d="M168 -317q-81 0 -139 28t-84.5 76t-32 112t17.5 136l45 160h244l-57 -199q-21 -76 55 -76h72q35 0 53 19.5t29 60.5l61 215q21 76 -55 76h-125l70 237h131q35 0 53 19.5t29 60.5l61 215q21 76 -55 76h-62q-35 0 -53 -19.5t-29 -60.5l-45 -162h-243l45 162
q49 171 134.5 244.5t227.5 73.5h82q160 0 220 -100t18 -253l-45 -168q-25 -95 -62.5 -143t-99.5 -74q85 -79 47 -213l-53 -186q-49 -170 -135 -243.5t-228 -73.5h-92z" />
    <glyph glyph-name="four.tosf" 
d="M246 -307l78 276h-461l59 211l690 946h283l-264 -925h135l-66 -232h-135l-80 -276h-239zM176 201h215l70 248l88 249h-10z" />
    <glyph glyph-name="five.tosf" 
d="M188 -317q-81 0 -138.5 28t-84 76t-32 112t17.5 136l45 160h244l-58 -199q-21 -76 56 -76h77q35 0 53 19.5t29 60.5l119 414q21 75 -55 75h-68q-18 0 -30.5 -4t-23.5 -17t-17 -23t-19 -35h-237l231 716h631l-70 -245h-412l-88 -271q106 95 203 95h27q114 0 164 -83.5
t12 -215.5l-115 -406q-49 -171 -134.5 -244t-227.5 -73h-99z" />
    <glyph glyph-name="six.tosf" 
d="M281 -10q-81 0 -139 28t-84.5 76t-32 112t17.5 136l223 784q49 171 135 244.5t228 73.5h88q81 0 138.5 -28t84 -76t32 -112t-17.5 -136l-18 -66h-246l31 104q21 76 -55 76h-70q-35 0 -53 -19.5t-29 -60.5l-82 -288q86 77 176 77h43q114 0 162 -83t10 -216l-88 -309
q-49 -171 -134.5 -244t-227.5 -73h-92zM334 227h69q35 0 53 19.5t29 60.5l90 320q24 75 -55 75h-67q-35 0 -53 -19t-29 -60l-92 -320q-21 -76 55 -76z" />
    <glyph glyph-name="seven.tosf" 
d="M-92 -307l754 1188h-500l69 245h775l-54 -184l-764 -1249h-280z" />
    <glyph glyph-name="eight.tosf" 
d="M268 -10q-161 0 -220.5 99.5t-16.5 252.5l45 160q27 99 67 148t107 75q-79 76 -41 207l55 194q50 172 135.5 245t227.5 73h86q81 0 138.5 -28t84 -76t32 -112t-17.5 -136l-45 -160q-25 -95 -62 -143t-98 -74q88 -82 48 -213l-56 -195q-49 -171 -134.5 -244t-227.5 -73
h-107zM496 821h77q35 0 53 19.5t29 60.5l72 250q21 76 -55 76h-78q-35 0 -53 -19.5t-29 -60.5l-72 -250q-21 -76 56 -76zM326 227h77q35 0 53 19.5t29 60.5l66 230q21 75 -55 75h-78q-35 0 -53 -19.5t-29 -60.5l-66 -229q-21 -76 56 -76z" />
    <glyph glyph-name="nine.tosf" 
d="M197 -317q-81 0 -139 28t-84.5 76t-32 112t17.5 136l18 65h246l-30 -104q-21 -76 55 -76h69q35 0 53 19.5t29 60.5l82 289q-87 -78 -176 -78h-43q-114 0 -162 83t-10 216l88 309q49 171 135 244.5t228 73.5h92q81 0 138.5 -28t84 -76t32 -112.5t-17.5 -136.5l-223 -784
q-49 -171 -134.5 -244t-227.5 -73h-88zM393 424h68q35 0 53 19.5t29 60.5l92 319q21 76 -55 76h-70q-35 0 -53 -19.5t-29 -60.5l-90 -319q-24 -76 55 -76z" />
    <glyph glyph-name="at.case" horiz-adv-x="1331" 
d="M279 -10q-81 0 -139 28t-84.5 76t-32 112t17.5 136l223 784q49 171 135 244.5t228 73.5h516q81 0 138.5 -28t84 -76t32 -112t-17.5 -136l-157 -551q-49 -171 -135 -244.5t-228 -73.5h-188v101q-86 -109 -178 -109h-17q-100 0 -134.5 70.5t-0.5 189.5l14 47
q33 117 83.5 165.5t150.5 82.5l168 61q35 11 45 48l31 104q8 26 0 38.5t-35 12.5h-54q-39 0 -55 -53l-28 -100h-191l27 94q35 123 101 180t173 57h84q114 0 162 -70.5t14 -189.5l-170 -596h37q56 0 102 51.5t68 133.5l158 551q31 106 -0.5 162.5t-120.5 56.5h-516
q-117 0 -172 -185l-223 -784q-31 -106 0 -162.5t120 -56.5h482l-37 -133h-481zM578 406h51q24 0 35.5 12.5t19.5 40.5l59 209l-118 -54q-46 -17 -62 -75l-22 -82q-15 -51 37 -51z" />
    <glyph glyph-name="PariMatch" horiz-adv-x="5218" 
d="M305 764l191 670h1030q119 0 168.5 -66.5t17.5 -181.5l-18 -66q-51 -176 -236 -176h-237l-52 -180h-864zM1577 764l393 670h379v-670h-192v113h-293l-64 -113h-223zM2410 764l191 670h367q119 0 168.5 -65.5t15.5 -182.5l-17 -60q-36 -130 -145 -165l59 -197h-206
l-56 184h-125l-51 -184h-201zM3123 764l191 670h200l-190 -670h-201zM1268 1108h217l41 145h-217zM2710 1108h217l39 145h-216zM1956 1038h201v213h-80zM674 0l190 670h869l94 -269l225 269h260l-190 -670h-201l109 383l-187 -219h-129l-69 207l-107 -371h-864zM2202 0
l395 670h377v-670h-193v113h-293l-63 -113h-223zM3127 0l135 477h-219l56 193h608l-55 -193h-189l-135 -477h-201zM3834 0q-120 0 -170 65.5t-17 182.5l72 244q51 178 236 178h323l-55 -193h-305l-82 -287h305l-55 -190h-252zM4180 0l190 670h201l-67 -240h229l68 240h200
l-190 -670h-201l68 240h-230l-67 -240h-201zM2580 274h201v213h-80z" />
    </font>
</defs>
</svg>
